<svg version="1.1" xmlns="http://www.w3.org/2000/svg" viewBox="0 0 1860 1060" width="1860" height="1060">
  <!-- svg-source:excalidraw -->
  
  <defs>
    <style class="style-fonts">
      @font-face {
        font-family: "Virgil";
        src: url("https://excalidraw.com/Virgil.woff2");
      }
      @font-face {
        font-family: "Cascadia";
        src: url("https://excalidraw.com/Cascadia.woff2");
      }
    </style>
  </defs>
  <rect x="0" y="0" width="1860" height="1060" fill="#ffffff"></rect><g stroke-linecap="round" transform="translate(210 570) rotate(0 137.5 50)"><path d="M2.41 -3.84 L271.81 3.84 L273.42 101.9 L-0.62 96.22" stroke="none" stroke-width="0" fill="#12b886"></path><path d="M-1.51 2.93 C108.96 -3.13, 217.19 -1.68, 276.85 -2.59 M-1.51 -0.76 C86.38 0.19, 176.65 -0.45, 273.56 0.55 M273.86 2.2 C277.61 39.76, 278.58 70.12, 271.01 98.04 M276.76 1.81 C271.51 35.38, 272.54 72.33, 276.09 101.61 M274.86 96.91 C187.33 99.17, 104.75 102.09, 2.02 97.64 M274.76 98.78 C199.13 94.9, 121.39 96.1, 1.42 98.64 M2.57 102.07 C0.36 77.56, -3.1 49.31, 1.67 -2.86 M0.89 98.66 C0.81 63.14, -0.15 26.82, 1.43 1.46" stroke="#000000" stroke-width="1" fill="none"></path></g><g transform="translate(235 595) rotate(0 112.5 15.5)"><text x="0" y="22" font-family="Virgil, Segoe UI Emoji" font-size="25px" fill="#000000" text-anchor="start" style="white-space: pre;" direction="ltr">Application service</text></g><g stroke-linecap="round" transform="translate(210 150) rotate(0 110 40)"><path d="M-3.94 -0.11 L218.97 -0.64 L223.08 82.43 L-0.65 81.65" stroke="none" stroke-width="0" fill="#e64980"></path><path d="M-2.75 -1.54 C70.95 2.23, 149.96 -0.43, 219.17 -2.48 M1.3 -1.52 C55.46 2.63, 112.18 2.16, 221.4 -1.18 M223.55 3.2 C223.17 32.18, 219.32 59.79, 216.88 77.85 M221.66 -0.23 C221.5 29.11, 221.73 56.42, 221 81.9 M218.1 81.2 C154.35 79.04, 84.4 79.99, -0.63 77.54 M218.42 78.73 C155.48 77.97, 91.64 78.22, -0.47 81.21 M0.67 81.65 C2.45 51.81, 0.24 15.61, 0.18 3.88 M1.61 81.04 C0.23 49.39, 0.1 21.24, -1.94 -1.78" stroke="#000000" stroke-width="1" fill="none"></path></g><g transform="translate(250 170) rotate(0 76.5 25.5)"><text x="0" y="17.5" font-family="Virgil, Segoe UI Emoji" font-size="20px" fill="#000000" text-anchor="start" style="white-space: pre;" direction="ltr">Repository port</text><text x="0" y="43" font-family="Virgil, Segoe UI Emoji" font-size="20px" fill="#000000" text-anchor="start" style="white-space: pre;" direction="ltr">&lt;interaface&gt;</text></g><g stroke-linecap="round" transform="translate(1070 50) rotate(0 390 240)"><path d="M0 0 C0 0, 0 0, 0 0 M0 0 C0 0, 0 0, 0 0 M0.64 5.62 C0.62 4.17, 0.9 5.22, 6.16 1.87 M-0.01 5.94 C2.24 4.85, 3.77 1.73, 4.95 0.03 M-2.73 10.03 C-0.08 9.91, 1.9 5.57, 11.08 -0.51 M-0.9 10.88 C5.55 6.58, 7.81 2.88, 11.14 -0.69 M0.88 19.47 C4.23 16.09, 6.93 9.13, 18.25 -0.43 M0.51 17.59 C4.62 13.89, 10.97 7.89, 15.78 0.25 M-1.97 24.33 C7.32 13.94, 15.03 6.09, 19.05 -3.92 M-0.98 24.47 C6.93 18, 10.19 10.65, 23.17 -1.62 M-2.39 28.7 C5.8 23.91, 10.49 15.19, 22.98 -0.14 M0.07 29.92 C8.36 22.56, 17.68 10.1, 26.74 2.01 M-1.73 38.52 C7.79 21.98, 17.57 15.17, 34.02 -0.37 M0.07 38.79 C12.3 23.06, 24.4 10.1, 33.78 -0.54 M3.6 43.45 C10.34 23.96, 25.48 12.57, 35.36 -0.04 M0.24 41.29 C10.31 31.02, 20.01 19.25, 38.3 -0.18 M2.08 51.3 C6.65 36.22, 21.59 28.48, 44.49 3.4 M-1.3 50.16 C17.32 28.03, 33.61 8.5, 42.35 -0.09 M-2.52 54.83 C13.93 36.53, 30.09 17.04, 49.86 0.63 M-0.87 56.36 C13.79 37.26, 31 18.55, 48.88 1.23 M1.53 61.95 C14.01 51.33, 22.78 38.52, 49.99 0.56 M-0.43 62.03 C20.46 38.54, 35.28 20.68, 55 0.86 M0.38 70.54 C20.92 45.47, 35.21 30.51, 62.12 -3.53 M1.09 68.13 C18.35 47.54, 38.58 26.6, 56.82 0.43 M-1.49 70.82 C18.02 57.1, 27.85 41.25, 65.28 -3.88 M-0.11 71.68 C12.32 56.45, 27.48 40.91, 62.77 1.02 M2.61 75.8 C26.06 48.7, 58.48 18.45, 64.97 3.88 M1.36 80.93 C17.07 59.84, 31.44 41.94, 70.38 0.16 M0.1 84.05 C15.32 63.45, 30.11 50.71, 76.28 2.87 M-1.22 85.01 C28.9 54.63, 58.24 22.13, 75.62 -1.3 M3.7 89.92 C13.88 77.03, 31.89 53.51, 76.45 1.07 M0.1 92.94 C28.74 58.81, 53.95 24.28, 77.71 1.79 M-2.07 94.35 C28.84 63.51, 62.31 33.21, 84.1 -2.56 M-1.38 99.25 C20.56 73.27, 37.86 50.74, 84.41 -2.2 M3.01 103.27 C24.39 74.49, 46.32 55.72, 87.76 4.07 M-0.95 103.19 C32.33 67.97, 65.57 27.98, 88.86 -0.73 M-1.23 106 C32.46 71.51, 56.51 40.38, 93.05 -3.75 M1.64 109.96 C23.92 81.42, 51.15 49.58, 94.89 -2.18 M3.1 114.04 C32.03 75.4, 56.25 41.5, 99.3 -1.3 M-1.17 114.31 C38.96 70.45, 74.88 24.87, 101.8 1.13 M0.6 119.32 C28.2 89.27, 57.89 62.34, 106.63 3.56 M0.04 121.57 C30.01 89.09, 56.89 55.75, 105.73 -0.16 M-2.95 124.97 C26.31 101.33, 49.33 69.71, 108.65 0.62 M0.35 127.27 C39.84 80.63, 79.31 36.06, 112.4 0.51 M-0.73 131.73 C36.72 93.97, 69.56 51.85, 114.85 0.16 M0.56 134.34 C30.24 97.95, 60.64 63.58, 117.85 1.3 M-0.9 136.36 C38.19 91.59, 76.49 47.23, 122.58 3.29 M1.35 140.35 C33.46 102.64, 64.2 66.93, 120.45 1.15 M-0.21 142.44 C47.62 90.64, 96.01 32.99, 124.89 0.41 M1.86 147.12 C46.68 91.8, 92.89 34.1, 127.05 -1.02 M-2.95 154.35 C37.51 111.3, 71.4 65.67, 129.42 -1.8 M-1.3 151.79 C36.29 112.38, 72.6 67.52, 131.71 -0.57 M3.26 157.4 C28.64 130.42, 55.93 96.15, 137.2 -2.82 M-0.18 159.96 C33.62 123.92, 63.14 88.33, 137.99 -0.41 M-2.43 161.49 C42.62 115.4, 83.56 60.58, 141.48 1.56 M0.19 166.12 C41.53 118.72, 80.78 72.82, 143.46 -1.69 M-0.21 173.03 C37.91 130.54, 75.22 81.6, 151.35 0.64 M0.21 170 C44.74 118.37, 89.09 68.3, 149.01 -1.41 M-0.79 173.57 C60.71 112.1, 122.5 37.65, 153.49 -2.02 M-0.41 175.15 C50.06 119.32, 97.15 61.34, 155.31 0.65 M3.21 180.81 C47.62 132.71, 89.45 80.4, 156.89 -0.35 M0.71 183.6 C62.01 114.87, 122.81 44.47, 157.77 -1.22 M2.58 191.77 C37.22 146.85, 80.84 102.37, 161.78 1.75 M-0.23 188.43 C49.93 133.67, 98.39 79.18, 163.51 1.29 M1.46 193.08 C58.56 122.8, 111.47 58.07, 169.58 0.34 M-0.05 194.99 C47.95 141.32, 95.86 86.77, 169.38 0.57 M-3.19 198.94 C54.26 137.2, 115.41 73.33, 173.58 -1.64 M-0.49 200.8 C58.56 142.06, 110.75 78.75, 175.75 -0.63 M0.43 206.55 C64 127.44, 129.78 54.71, 180.83 1.7 M1.29 205.79 C65.37 131.26, 130.28 57.26, 181.25 0.89 M-2.5 212.61 C42.4 164.69, 86.54 120.04, 183.91 0.98 M1.24 212.54 C65.55 133.81, 130.48 58.98, 186.46 -0.83 M-0.48 220.39 C46.28 170.58, 90.69 122.07, 188.52 -0.26 M0.93 220.14 C74.16 128.53, 150.83 43.13, 191.78 1.26 M0.5 226.62 C61.8 147.28, 129.73 75.29, 198.12 1.75 M-0.56 224.42 C72.42 139.35, 144.08 53.76, 195.15 -1.02 M-1.96 230.18 C43.66 180.09, 88.29 130.48, 198.92 2.42 M-1.16 231.19 C67.51 161.73, 127.95 86.76, 201.72 -0.19 M-1.21 235.46 C64.67 166.82, 131.82 90.29, 204.64 0.83 M-0.06 236.83 C46.33 181.61, 91.63 129.95, 207.02 -0.87 M0 246.55 C45.94 196.21, 92.84 143.94, 211.33 2.54 M-1.26 242.47 C51.3 185.58, 101.35 125.48, 212.32 -1.15 M1.48 248.72 C45.76 191.53, 90.8 140.28, 218.94 2.33 M-0.47 249.21 C67.01 174.19, 132.52 99.64, 216.9 0.32 M2.16 255.09 C68.99 176.79, 138.7 98.69, 221.87 -0.85 M0.29 256.77 C53.31 193.85, 110.2 129.89, 221.27 0.09 M-0.61 261.82 C55.67 202.51, 102.77 144.81, 228.8 0.48 M-0.77 261.27 C69.21 176.67, 142.24 93.7, 228.19 -0.41 M2.48 270.38 C76.23 179.98, 154.67 87.49, 231.87 -0.9 M0.53 267.82 C59.64 201.93, 117.92 135.72, 232.33 0.83 M2.52 275.28 C72.22 193.8, 138.92 116.5, 236.45 -0.19 M1.22 273.31 C82.17 176.65, 165.37 79.23, 239.28 0.6 M1.8 279.55 C52.35 216.43, 107.02 154.21, 244.42 -1.82 M-0.03 281.31 C65.1 204.96, 128.88 130.28, 243.06 1.02 M2.51 283.96 C67.52 210.23, 128.76 133.07, 246.45 -1.71 M0 287.1 C88.28 185.08, 180.29 82.46, 248.21 1.02 M-1.3 294.27 C94.73 184.35, 189.23 75.16, 252.23 -0.19 M0.82 291.98 C93.12 189.61, 181.06 85.79, 254.3 -0.81 M1.12 299.61 C102.66 178.12, 202.84 61.92, 259.21 -0.39 M0.71 298.11 C73.02 218.84, 145.45 135.08, 259.59 1.27 M2.17 302.58 C73.44 214.83, 149.71 127.48, 264.48 -2.27 M-0.22 304.54 C82.95 211.12, 163.72 117.5, 266.13 0.65 M0.91 310.66 C58.91 240.4, 119.14 172.62, 271.82 -1.63 M-0.23 311.9 C83.88 212.74, 173.21 110.48, 271.17 0.29 M-0.62 316.35 C109.14 194.91, 217.51 68.99, 275.52 1.65 M1.02 317.23 C93.35 209.85, 187.48 102.77, 274.8 -0.06 M1.27 324.13 C83.8 227.08, 167.31 128.34, 280.43 1.5 M0.73 323.41 C82.85 230.37, 164.37 134.55, 279.98 -0.36 M-1.25 327.91 C103.81 206.53, 210.56 87.48, 286.34 -0.93 M0.79 328.88 C57.65 261.86, 118.58 190.92, 286.91 0.5 M1.5 335.79 C73.66 254.63, 146.59 170.51, 290.44 -0.3 M0.27 336.25 C75.2 247.26, 151.29 158.91, 291.5 -0.12 M-0.68 340.38 C62.67 266.23, 127.68 189.62, 297.39 0.97 M-0.8 342.5 C89.31 242.01, 176.98 142.35, 296.63 0.1 M1.21 347.11 C90.08 243.78, 182.42 141.76, 301.18 -0.55 M0.4 347.81 C87.79 251.62, 175.49 152.15, 301.68 -0.14 M0.86 353.12 C72.55 274.83, 138.45 198.11, 306.85 1.52 M-0.92 353.19 C89.24 251.49, 179.34 147.04, 307.93 0.42 M1.5 359.24 C119.63 222.49, 237.3 86.41, 312.59 -0.34 M0.48 359.41 C92.74 251.78, 186.69 142.15, 312.54 -0.19 M-1.46 364.97 C125.83 225.89, 245.11 84.42, 319.78 1.14 M0.9 365.28 C112.07 236.21, 224 106.52, 317.47 0.05 M-1.08 372.08 C62.09 297.27, 129.54 220.8, 323.46 -1.42 M-0.26 371.83 C75.56 288.59, 147.75 205.5, 323.12 0.15 M0.87 376.71 C116.35 242.88, 235.31 108.26, 328.53 0.1 M-0.13 377 C112.41 247.65, 223.69 116.88, 328.63 -0.66 M0.12 383.33 C135.78 233.51, 265.81 82.13, 333.27 -1.42 M0.52 383.42 C81.12 286.7, 163.98 190.07, 334.23 0.68 M-0.22 389.68 C119.54 255.2, 233.89 120.68, 338.92 0.11 M-0.25 389.41 C121.9 251.8, 241.65 115.7, 339.89 -0.88 M-0.61 397.71 C124.14 255.41, 250.12 112.72, 343.54 1 M0.35 397 C122.75 254.64, 243.43 113.66, 344.18 -0.1 M-1.31 401.97 C139.18 246.02, 271.72 88.47, 350.52 0.2 M-0.7 403.02 C72.16 316.55, 145.72 230.78, 348.83 0.83 M-0.41 409.49 C74.86 321.34, 147.6 236.28, 356.21 -1.6 M0.18 408.13 C138.83 251.11, 274.94 91.84, 354.46 0.53 M0.18 413.31 C99.27 296.95, 201.22 179.27, 361.45 -1.23 M-0.73 413.89 C138.07 256.95, 274.05 99.38, 360.15 1.09 M-0.64 421.62 C85.23 321.99, 172.19 223.83, 365.73 -1.54 M-0.92 421.76 C140.76 259.61, 282.91 96.59, 365.73 0.74 M0.51 428.02 C98.28 310.44, 196.77 197.76, 372.3 -0.41 M0.81 426.99 C90.08 321.95, 179.2 219.37, 371.31 0.24 M0.58 431.51 C91.08 325.06, 183.64 217.21, 376.59 -0.04 M-0.76 432.4 C100.11 318.85, 200.52 203.68, 376.98 -0.3 M0.29 437.59 C124.3 301.13, 248.8 157.01, 380.84 0.81 M0.88 439.54 C81.68 342.74, 163.09 249.38, 380.8 0.09 M-0.37 443.57 C83.46 342.23, 171.5 239.96, 385.79 0.79 M-0.36 445.46 C125.99 306.01, 250.19 163.48, 386.41 0.05 M-1.63 452.57 C106.06 328.16, 212.04 203.44, 392.49 0.5 M-0.26 451.4 C96.88 342.73, 191.24 233.91, 391.48 0.67 M1.25 458.17 C109.28 337.31, 213.01 217.49, 397.18 -0.39 M-0.52 457.44 C126.98 308.29, 253.83 164.11, 396.94 -0.95 M-0.8 462.79 C115.83 328.83, 235.81 193.96, 402.73 1.46 M-0.4 464.36 C125.05 323.52, 246.48 183.82, 403.37 -0.51 M0.23 470.81 C100.71 352.1, 198 237.83, 407.09 0.57 M-0.06 468.68 C86.1 366.33, 174.39 266.14, 409.07 -0.98 M0.96 475.47 C84.02 382.2, 167.34 286.01, 414.75 0.01 M-0.16 476.33 C124.21 336.97, 247.05 194.76, 412.84 0.25 M-0.31 479.34 C145.64 317.95, 288.08 154.35, 418.75 -1.05 M0.81 480.19 C103.34 365.28, 204.74 245.99, 418.46 0.08 M5.68 481.4 C154.35 308.23, 305.08 135.52, 424.99 0.39 M6.38 480.32 C155.38 303.72, 308.06 128.41, 424.65 0.93 M10.97 479.77 C147.96 317.36, 286.25 158.74, 431.02 -1.24 M12.35 480.63 C98.87 378.36, 191.53 273.28, 429.54 -0.57 M16.61 481.99 C170.15 303.91, 324.89 125.12, 434.36 0.39 M17.08 481.05 C167.57 304.28, 321.45 125.91, 435.09 -0.69 M21.24 480.27 C138.89 348.48, 257.74 210.69, 440.07 -1.65 M22.19 480.35 C116.87 372.94, 212.74 262.6, 440.3 0.08 M27.83 479.97 C195.65 288.68, 364.28 97.74, 446.67 -0.7 M26.49 480.09 C115.99 381.6, 201.46 282.31, 445.63 0.25 M33.61 479.25 C140.37 356.03, 248.49 230.3, 450.53 -1.64 M32.93 480.65 C181.39 312.57, 326.4 146.89, 451.07 -1.12 M36.87 481.5 C133.63 363.54, 231.77 248.7, 454.19 -0.46 M37.71 480.34 C161.4 340.05, 284.28 199.79, 455.7 0.4 M42.85 481.42 C138.59 372.52, 228.95 268.58, 461.12 0.18 M43.57 481.04 C179.06 325.65, 314.08 170.34, 462.17 0.12 M48.14 480.66 C141.19 370.52, 238.09 257.75, 464.86 -1.35 M48.99 480.94 C169.63 342.89, 292.06 202.15, 466.69 0.28 M53 480.24 C187.64 325.7, 322.89 170.92, 471.95 1.89 M53.44 480.1 C174.38 343.31, 294.89 204.4, 470.83 1.1 M58.52 480.25 C211.65 300.83, 366.73 123.57, 478.31 0.52 M59.36 481.27 C214.96 295.28, 374.76 112.06, 476.37 0.24 M65.52 482.63 C150.44 383.9, 237.63 283.37, 482.41 -0.01 M63.98 481.76 C171.72 355.46, 279.48 231.77, 482.58 1.06 M68.57 480.63 C230.72 294.55, 391.19 108.91, 487.43 0.93 M69.4 480.14 C224.01 297.63, 381.13 116.25, 487.64 -0.33 M73.93 481.98 C208.82 327.9, 344.11 169.89, 491.96 -1.19 M74.19 480.37 C167.28 375.75, 257.15 272.08, 492.18 0.17 M80.93 481.23 C195.45 349.04, 309.17 218.31, 499.19 -1.19 M80.47 481.41 C172.39 377.53, 262.68 273.11, 498.18 -0.62 M83.85 480.26 C177.27 375.48, 269.5 267.87, 504.42 -0.56 M85.44 480.34 C187.12 366.99, 285.44 253.66, 502.97 0.46 M92.31 479.06 C228.05 322.61, 369.49 160.02, 507.45 1.01 M90.67 480.37 C211.49 346.52, 327.5 212.35, 509.25 -0.76 M94.81 480.23 C187.67 371.13, 278.52 261.64, 512.88 -1.12 M95.31 481.19 C245.55 302.85, 399.53 126.09, 514.29 -0.58 M101.48 479.81 C252.13 311.71, 400.93 139.91, 520.11 -1.71 M102.09 480.55 C215.03 356.54, 323.87 230, 520.04 0.54 M107.64 481.36 C257.7 299.9, 411.13 125.01, 523.68 1.26 M107.36 480.66 C250.24 317.05, 392.09 155.02, 523.83 0.37 M110.92 480.33 C215.58 356.5, 321.3 233.69, 528.79 -1.04 M111.95 480.12 C235.73 333.28, 361.43 189.63, 530.11 0.43 M116.43 481.43 C237.79 347.16, 355.74 213.05, 535.67 0.25 M117.51 480.35 C228.27 357.34, 336.63 233.18, 534.82 0.45 M121.94 479.77 C283 297.84, 445.59 112.51, 542.34 -1.56 M123.05 480.69 C231.2 358.85, 336.56 236.79, 540.21 -0.92 M129.36 481.39 C244.9 345.07, 361.89 208.55, 544.95 -0.17 M127.64 480.06 C264.04 330.96, 396.94 178.07, 545.68 -0.53 M133.17 481.23 C240.78 358.05, 347.82 232.64, 550.12 0.08 M133.36 480.09 C220.47 375.36, 310.64 273.41, 551.42 0.48 M138.28 480.46 C256.33 346.42, 377.49 208.66, 556.1 -0.09 M138.4 480.28 C258.11 342.16, 376.88 205.08, 557.19 0.65 M145.28 480.5 C237.35 374.52, 330.91 267.85, 561.95 0.74 M144.79 481.2 C228.04 385.19, 312.73 289.48, 562.8 -1.09 M149.1 481.03 C279.25 328.74, 408.18 179.1, 567.8 1.13 M148.37 481.28 C233.34 383.38, 319.1 285.34, 566.88 0.25 M156.24 480.52 C313.6 293.63, 475 112.95, 571.32 -1.17 M154.44 479.95 C265.54 355.14, 377.44 227.16, 572.16 0.43 M161.03 480.6 C306.66 308.13, 460.27 135.17, 577.56 0.04 M159.75 480.82 C291.69 332.38, 421.64 182.89, 577.85 -0.41 M166.07 480.15 C276.9 350.67, 392.33 217.72, 581.95 -0.18 M164.96 480.48 C331.23 292.55, 494.37 105.24, 582.64 0.53 M171.33 479.78 C311.82 318.07, 454.98 155.89, 589.81 0.34 M171.04 481.26 C301.63 333.03, 429.63 184.81, 588.36 -0.6 M174.64 479.74 C334.41 293.21, 497.89 107.34, 592.8 -1.15 M175.09 480.74 C336.59 296.73, 495.77 113.96, 593.27 1.06 M180.14 480.71 C323.34 311.18, 467.28 144.72, 598.22 -1.58 M181.15 480.81 C297.48 341.88, 413.91 207.18, 599.04 0.66 M185.83 479.68 C290.52 358.36, 398.27 233.53, 605.33 -0.35 M186.32 481.46 C341.46 297.55, 501.32 114.62, 603.92 -0.42 M192.1 479.09 C345.55 297.88, 501.76 118.88, 609.75 1.03 M191.74 480.72 C274.82 382.33, 359.09 286.33, 608.86 0.59 M195.65 480.16 C348.68 310.11, 498.86 134.81, 614.94 0.31 M196.54 480.25 C346.78 310.1, 496.42 138.02, 613.85 -0.09 M201.9 481.69 C292.78 379.42, 381.81 277.57, 620.63 1.22 M201.61 481.28 C290.05 379.97, 377.3 279.57, 620.79 -0.15 M206.04 479.74 C297.66 373.11, 392.04 265.52, 624.7 -1.15 M206.65 480.62 C294.6 380.93, 382.36 280.93, 625.09 0.93 M211.9 479.25 C356.74 317.13, 499.61 151.44, 630.78 -0.81 M212.35 481 C351.49 320.78, 493.13 156.51, 631.32 0.13 M219.4 480.91 C351.5 330.28, 481.74 179.86, 637.36 1.23 M217.5 480.71 C329.02 353.6, 440.05 224.53, 635.23 0.55 M224.16 480.01 C323.35 361.43, 422.5 245.62, 642.19 0.63 M224.29 480.66 C385.81 295.12, 549.01 107.01, 640.94 0.15 M227.42 482.08 C372.82 316.27, 518.61 148.9, 647.35 0.52 M229.11 480.5 C392.4 291.07, 553.3 105.55, 646.22 -0.27 M235.6 479.34 C354.93 339.5, 478.73 201.18, 650.9 -0.82 M234.16 480.85 C339.82 357.64, 445.25 236.1, 651.68 -0.32 M238.25 482.38 C400.05 293.24, 558.3 110.86, 658.34 0.91 M239.88 481 C344.41 355.15, 453.26 230.59, 657.19 0.03 M246.01 480.55 C355.28 352.03, 463.77 225.78, 661.45 0.41 M245.41 481.2 C408.17 292.62, 571.83 104.98, 663.14 0.34 M249.34 480.07 C389.52 325.55, 523.25 170.14, 668.93 0.13 M250.55 480.28 C372.34 334.88, 498.46 191.14, 668.42 -0.3 M256.47 480.44 C342.95 375.37, 434.43 272.83, 672.45 1 M254.67 481.19 C403.45 312.79, 550.09 144.55, 673.28 -0.05 M261.78 480.53 C352.62 371.62, 446.12 264.08, 677.34 0.61 M260.23 480.62 C408.87 310.74, 558.86 138.26, 678.94 0.79 M264.52 480.58 C351.79 377.35, 442.47 275.8, 684.59 -0.04 M265.33 480.93 C375.22 358.95, 480.16 237.05, 684.02 -0.2 M272.36 481.88 C429.38 300.06, 588.33 115.12, 689.52 1.55 M270.41 481.36 C356.86 378.24, 443.2 277.09, 688.96 0.4 M275.38 479.22 C366.46 380.1, 453.89 278.44, 695.82 0.22 M277.16 480.37 C405.66 334.56, 532.52 187.92, 694.05 -0.99 M281.55 479.75 C379.68 370.8, 477.95 259.93, 698.24 0.42 M282.5 481.26 C392.32 359.2, 500.98 233.51, 699.05 -0.54 M287.55 479.38 C440.77 308.59, 592.47 136.09, 705.52 1.39 M287.06 480.09 C405.11 338.74, 526.36 199.31, 705.37 0.88 M291.88 481.7 C403.31 352.56, 514.21 224.58, 710.39 1.06 M292.32 480.92 C392.14 360.49, 497.19 241.13, 710.94 0.35 M296.95 481.52 C426.56 333.79, 554.81 184.44, 715.52 1.56 M297.26 481.27 C411.12 348.47, 526.94 216.32, 715.48 1.1 M303.14 480.01 C432.95 329, 562.86 176.87, 719.71 -0.79 M303.62 480.38 C442.96 318.07, 585.77 154.87, 720.32 -0.33 M307.53 482.19 C429.45 336.02, 555.49 192.76, 724.54 0.19 M307.52 480.26 C432.91 334.94, 557.92 191.31, 725.53 1.06 M314.04 482.1 C421.36 360.77, 526.21 238.96, 730.82 0.15 M312.92 479.94 C412.65 370.2, 508.13 260.06, 732.04 0.28 M319.36 480.11 C429.57 357.4, 538.79 230.34, 735.64 -0.09 M318.38 480.32 C436.84 342.62, 556.62 205.71, 737.23 0.81 M323.73 480.1 C450.97 331.98, 578.2 186.52, 741.61 1.06 M324.72 480.89 C428.46 362.96, 531.03 244.33, 741.73 -0.73 M329.64 481.18 C468.57 315.12, 611.89 153.45, 747.55 -0.72 M329.82 481.37 C473.3 314.15, 617.29 148.55, 746.69 0.67 M333.43 481.27 C476.96 316.09, 618.08 151.05, 751.27 -0.92 M334.66 480.01 C434.45 365.05, 533.09 249.2, 752.56 -0.06 M340.03 481.61 C489.89 309.98, 641.26 138.11, 756.29 0.78 M339.75 481.6 C441.51 360.5, 545.5 241.16, 757.96 0.37 M344.87 480.79 C501.93 306.78, 654.02 129.59, 761.83 -0.74 M344.76 479.87 C472.99 335.11, 596.39 192.96, 763.28 -0.12 M351.88 482.37 C489.09 318.57, 631.09 157.42, 769.53 -0.36 M349.68 481.42 C505.18 305.74, 658.04 130.11, 767.89 -0.1 M355.43 479.37 C460.42 363.55, 565.52 242.62, 773.42 0.15 M356.18 480.11 C456.06 364.66, 554.51 252.29, 773.79 -0.33 M361.42 481.12 C528.77 292.56, 693.25 103.31, 779.44 1.37 M360.66 481.07 C504.87 317.7, 647.09 155.61, 779.63 0.27 M366.15 481.65 C530.26 295.07, 687.29 110.44, 783.87 0.93 M366.86 479.8 C493.9 341.56, 617.84 197.94, 782.39 1.21 M370.95 480.25 C471.16 369.02, 572.34 252.13, 782.63 9.35 M372.51 481.44 C529.45 302.12, 687.39 120.68, 781.94 7.84 M376.99 481.79 C466.75 376.7, 559.13 271.63, 781.28 15.56 M377.1 479.84 C478.9 357.38, 582.71 238.24, 782.34 14.73 M380.82 482.09 C504.26 343.54, 625.47 204.88, 784.15 21.23 M383 480.05 C465.98 384.25, 549.47 288.31, 782.66 20.37 M388.34 481.08 C536.09 312.72, 680.43 144.53, 783.87 26.94 M388.76 480.57 C512.94 338.13, 639.11 194.94, 781.72 26.47 M394.3 480.89 C537.77 317.5, 679.94 151.32, 784.07 31.34 M393.48 481.46 C504.89 350.76, 617.8 220, 783.34 31.81 M399.49 479.91 C494.78 369.48, 590.68 259.2, 782.19 38.22 M398.07 480.98 C481.07 388.18, 564.34 294.28, 783.2 38.08 M403.09 480.42 C530.09 330.56, 658.84 185.19, 782.84 44.92 M403.26 480.47 C551.43 309.97, 701.6 138.06, 782.22 44.15 M409.55 480.19 C509.28 368.67, 606.8 257.84, 783.66 49.97 M408.56 481.83 C524.97 346.77, 639.5 214.85, 783.02 50.9 M414.61 479.58 C528.68 346.92, 644.71 214.13, 782.33 57.48 M413.59 480.52 C508.83 371.03, 602.09 264.89, 782.44 57.13 M418.46 480.66 C502.59 391.03, 582.03 297.84, 781.67 61.89 M418.48 480.26 C523.1 359.97, 629.56 238.62, 782.47 62.15 M424.71 480.38 C524.01 368.5, 623.06 255.29, 783.68 69.41 M425.32 480.08 C528.5 358.27, 632.68 238.87, 782.68 69.28 M431.07 479.86 C541.24 355.25, 652.99 228.05, 782.06 75.25 M430.5 481.54 C533.08 361.53, 635.2 245.97, 783.2 74.5 M435.35 479.99 C514.58 388.51, 592.74 296.06, 781.71 82.46 M434.83 479.86 C544.57 355.78, 652.16 232.28, 781.99 81.65 M438.96 481.11 C563.12 339.56, 686.4 198.35, 781.68 88.76 M440.68 480.78 C562.56 343.17, 681.92 206.46, 782.56 87.98 M446.54 481.85 C522.97 393.51, 600.79 300.95, 781.97 91.97 M446.07 480.41 C576.85 331.72, 707.4 182.01, 783.27 93.94 M450.2 482.03 C561.17 355.94, 667.72 232.97, 782.26 100.41 M451.46 480.55 C570.99 342.3, 688.6 205.73, 781.81 99.44 M458 481.4 C582.07 338.79, 706.83 198.47, 782.5 105.2 M456.98 481.33 C583.08 335.72, 707.59 193.3, 782.17 106.13 M462.14 479.31 C531.65 404.36, 601.87 322.47, 781.56 110.32 M461.22 480.43 C562.69 362.74, 667.8 241.67, 783.07 112.63 M467.46 480.3 C542.02 396.38, 612.95 313.76, 781.07 118.07 M466.55 480.39 C541.69 394.66, 614.73 310.27, 781.59 118.33 M472.55 480.19 C594.98 337.6, 715.63 199.96, 784.44 122.71 M473.27 481.17 C561.26 374.64, 651.76 270.39, 782.98 124.75 M478.92 482.08 C588.88 351.48, 696.3 226.64, 783.14 129.76 M477.57 480.98 C556.15 390.47, 634.31 300.73, 782.59 130.28 M484.79 481.35 C557.7 389.83, 634.97 301.91, 782.68 136.07 M483.24 480.18 C549.42 404.19, 618.37 325.88, 781.87 136.64 M487.3 479.46 C552.18 404.94, 615.85 330.7, 782.06 142.69 M489.1 481.33 C562.38 391.69, 638.69 304.82, 782.16 141.7 M495.63 479.47 C595.47 357.31, 702.83 235.64, 783.71 147.92 M493.59 481.55 C590.29 369.73, 686.48 257.9, 782.78 149.71 M498.23 481.82 C577.73 384.98, 660.07 295.2, 781.31 153.68 M498.37 480.02 C561.55 409.82, 620.83 340.87, 782.49 153.66 M503.8 482.05 C581.39 385.72, 666.59 295.32, 783.52 161.95 M504.2 480.08 C598.97 368.16, 694.25 258.08, 782.35 161.79 M511.72 478.93 C589.52 391.75, 668.63 299.47, 780.84 169.21 M510.03 479.44 C613.65 366.52, 712.7 251.61, 781.23 167.47 M512.92 481.44 C618.53 361.3, 720.53 240.51, 781.97 174.94 M514.86 479.74 C574.24 412.17, 630.13 346.46, 782.23 172.4 M522.01 479.45 C622.78 360.64, 728.98 241.72, 781.12 179.87 M520.53 481.91 C619.17 367.86, 715.96 255.03, 783.28 180.34 M525.75 481.1 C585.61 404.8, 645.17 337.47, 780.79 182.92 M526.38 481.04 C583.76 410.83, 643.74 340.25, 783.77 185.36 M530.95 481.79 C590.64 411.9, 651.6 341.7, 781.14 192.23 M529.4 480.39 C614.49 379.98, 700.22 281.1, 782.71 190.64 M536.54 481.42 C627.2 377.21, 717.09 272.6, 780.91 198.82 M537.3 481.28 C616.44 385.26, 697.34 293.33, 781.21 197.28 M543.03 478.99 C608.21 406.76, 676.04 333.17, 783.69 201.98 M541.91 479.95 C628.71 380.44, 718.27 277.57, 781.84 203.37 M546.79 481.46 C628.68 382.39, 711.83 290.51, 782.45 210.12 M547.03 480.16 C623.52 389.18, 704.47 297.84, 781.76 209.06 M550.85 482.53 C598.82 427.94, 645.96 374.34, 782.51 215.54 M551.38 480.32 C603.49 417.38, 656.35 353.21, 783.42 215.77 M559.1 481.35 C623.13 405.4, 688.67 325.48, 782.77 222.92 M557.51 481.69 C632.53 393.3, 711.85 301.88, 781.78 222.71 M561.37 481.51 C645.78 379.49, 733.22 279.6, 783.82 228.96 M561.37 482.2 C627.28 408.04, 688.86 334.18, 783.19 228.43 M569.04 479.69 C647.17 382.89, 732.37 286.88, 781.74 232.37 M566.81 479.99 C643.47 391.51, 722.31 304, 782.51 233.9 M573.75 479.85 C621.04 419.94, 671.06 366.1, 781.01 242.07 M572.49 480.5 C647.86 389.41, 725.63 299, 780.97 241.48 M578.03 481.92 C645.96 408.57, 711.36 328.16, 784.37 247 M578.35 481.47 C621.6 429.23, 665.45 379.29, 783.15 244.45 M586.38 479.13 C661.97 397.75, 736.69 311.54, 779.67 249.77 M583.18 482.14 C645.22 411.68, 704.95 345.21, 781.61 252.16 M591.6 480.8 C635.81 426.67, 686.47 366.39, 780.37 259.51 M588.59 479.21 C647.66 414.02, 703.26 350.67, 781.35 259.92 M593.74 481.01 C651.79 416.5, 715.7 349.87, 781.88 264.83 M593.81 479.73 C660.93 405.79, 729.57 324.33, 782.36 264.45 M598.55 481.69 C656.23 419.55, 710.34 351.07, 783.93 268.13 M599.51 479.49 C670.21 405.28, 737.1 328.34, 783.29 270.14 M607.67 477.86 C674.47 407.78, 739.36 332.66, 781.56 275.19 M605.55 481.62 C649.33 433.19, 691.67 383.91, 781.51 277.12 M609.29 482.64 C675.36 402.42, 746.34 322.87, 779.85 279.61 M611.73 480.47 C674.7 406.39, 740.61 329.12, 783.47 281.55 M618.39 480.2 C670.15 413.47, 729.34 350.6, 784.96 288.64 M615.57 480.9 C661.19 425.96, 709.47 372.86, 782.86 288.35 M623.51 482.89 C657.35 439.03, 698.21 395.49, 783.8 297.34 M622.58 478.85 C667.65 425.62, 715.89 369.49, 783.71 295.39 M627.43 483.17 C659.01 443.16, 697.61 395.89, 785.56 303.22 M624.78 481.02 C664.34 437.4, 702.88 395.91, 781.01 300.94 M631.64 479.75 C678.52 427.83, 729.59 366.4, 782.29 304.57 M630.63 481.6 C688.01 414.37, 744.82 347.49, 781.74 305.88 M639.31 481.04 C687.92 420.94, 738.96 364.62, 781.69 313.78 M636.74 482.12 C681.67 432.48, 722.95 380.82, 781.43 312.36 M644.29 479.52 C700.54 417, 755.58 352.21, 779.7 321.5 M640.57 482.11 C694.16 418.32, 745.81 358.8, 782.14 319.18 M644.18 477.87 C693.18 423.6, 745.83 365.11, 784.05 325.94 M649.13 482.21 C681.31 440.55, 720.1 399.9, 782.03 326.58 M651.11 477.41 C696 432.74, 743.08 380.06, 786.34 332.35 M654.45 482.02 C690.07 438.59, 726.32 391.92, 784.12 332.34 M655.69 477.85 C696.8 436.64, 733.91 396.41, 783.8 340.71 M658.34 482.47 C687.36 448.98, 715.75 416.79, 784.21 335.63 M662.28 481.09 C693.78 442.69, 721.9 407.38, 779.27 339.66 M664.12 480.14 C693.32 446.48, 723.29 416.73, 780.9 341.85 M666.44 482.84 C700.68 446.7, 737.35 409.55, 782.47 349.05 M668.67 481.4 C692.03 451.46, 717.49 422.7, 782.58 351.38 M671.21 478.47 C700.26 448.51, 726.79 421.65, 786.07 354.51 M675.53 479.52 C694.54 452.49, 718.93 427.83, 781.43 354.96 M678.2 477.04 C706.75 447.05, 730.92 419.88, 785.58 365.76 M680.15 481.63 C717.08 437.38, 753.26 395.03, 781.54 362.86 M688.2 483.51 C722.89 441.78, 753.33 402.25, 785.85 367.52 M682.72 481.64 C706.61 457.44, 731.47 428.07, 783.56 368.56 M692.34 480.81 C713.76 454.68, 734.57 430.52, 785.67 373.62 M689.5 479.17 C711.16 460.42, 729.31 437.28, 781.5 373.75 M696.69 483.99 C724.68 446.95, 752.54 414.65, 784.26 377.87 M693.61 480.55 C716.77 452.62, 740.65 424.75, 783.41 379.92 M697.41 482.34 C721.69 463.34, 735.99 440.53, 785.15 388.46 M700.36 481.66 C725.19 452.36, 754.27 422.4, 783.43 385.61 M705.33 477.5 C719.71 460.3, 736.29 440.42, 780.11 394.3 M704.05 480.95 C732.38 450.93, 757.63 418.86, 783.94 393.6 M713.15 481.62 C739.9 452.23, 765.56 422.84, 783.6 399.93 M709.28 482.31 C730.64 459.41, 750.53 435.36, 782.19 396.57 M719.97 483.44 C733.74 462.13, 751.31 435.98, 781.41 403.62 M715.78 480.08 C737.68 452.64, 760.54 429.37, 781.09 404.05 M722.49 478.45 C743.84 453.87, 767.81 429.32, 781.13 408.26 M723.71 481.92 C741.1 456.61, 760.86 434.76, 783.9 412.12 M723.61 483.01 C752.36 455.6, 768.47 429.96, 780.04 419.7 M726.46 481.8 C739.39 463.03, 754 447.51, 784.32 418.55 M731.55 476.46 C743.55 465.8, 750.96 458.48, 785.02 425.19 M732 478.9 C746.4 463.9, 760.08 448.93, 782.57 424.06 M736.47 479.25 C748.14 467.54, 763.19 457.16, 779.04 432.21 M735.65 482.56 C750.57 464.26, 768.82 447.03, 782.04 427.96 M741.63 479.07 C756.23 470.46, 764.87 458.01, 785.75 434.59 M741.41 479.23 C753.36 468.45, 764.64 454.22, 782.12 437.08 M747.96 476.99 C755.27 472.47, 765.24 461.53, 780 443.4 M746.8 481.4 C756.79 469.15, 767.45 457.98, 782.87 441.5 M752.57 478.29 C766.29 466.47, 772.93 458.19, 779.68 449.34 M751.46 479.28 C759.82 471.88, 766.31 466.66, 781.06 447.68 M760.64 478.87 C767.25 474.58, 774.49 458.57, 781.67 453.08 M757.3 481.97 C769.25 468.56, 778.32 460.29, 784.32 453.72 M761.35 479.65 C768.04 476.37, 770.14 473.75, 780.3 460.16 M762.54 480.7 C769.97 474.44, 775.55 467.23, 781.78 458.98 M770.3 481.37 C769.32 474.16, 780.43 469.42, 780 467.11 M768.41 482.48 C771.53 474.76, 778.92 473.37, 782.86 467.04 M776.66 479.68 C775.57 477.59, 777.75 474.44, 781.91 472.18 M774.12 481.03 C778.18 477.36, 779.95 475.8, 783.26 471.63" stroke="#ced4da" stroke-width="0.5" fill="none"></path><path d="M1.35 0.45 C248.97 3.56, 496.78 3.72, 781.5 -0.88 M0.1 0.42 C238.35 -4.89, 476.75 -3.94, 779.35 0.45 M778.47 -1.49 C778.86 190.85, 777.9 381.59, 779.78 478.51 M779.38 0.85 C775.72 192.03, 775.83 383.2, 779.56 479.97 M781.51 479.24 C509.1 484.66, 237.95 484.07, 0.78 478.43 M779.64 480.2 C613.89 479.47, 448.24 479.39, -0.06 479.23 M0.47 480.77 C-0.13 358.19, 2.38 239.58, 0.65 1.73 M0.75 479.6 C1.51 351.01, 2.12 222.17, -0.4 -0.38" stroke="#000000" stroke-width="1" fill="none"></path></g><g transform="translate(1390 50) rotate(0 111.5 28.5)"><text x="0" y="40" font-family="Virgil, Segoe UI Emoji" font-size="44.99999999999999px" fill="#000000" text-anchor="start" style="white-space: pre;" direction="ltr">Aggregate</text></g><g stroke-linecap="round" transform="translate(1510 170) rotate(0 110 40)"><path d="M3.3 -3.4 L217.06 2.34 L223.26 79.58 L1.78 79.51" stroke="none" stroke-width="0" fill="#fa5252"></path><path d="M1.87 -1.62 C54.61 -2.27, 109.98 -4.43, 221.01 -1.49 M1.69 -0.6 C86.82 -0.57, 175.16 -0.61, 220.63 -0.6 M220.37 -2.89 C220.9 21.91, 216.02 39.9, 222.55 82.39 M220.3 0.99 C219.22 25.42, 220.58 47.62, 220.11 78.36 M220.86 80.41 C150.71 84.12, 74.3 80.2, 2.42 82.61 M219.91 79.3 C156.87 79.13, 94.81 78.97, -0.55 79.45 M1.86 80.68 C3.63 58.87, -0.56 31.31, 2 -3.53 M1.66 79.07 C0.75 53.28, 2.82 25.54, 1.82 -1.54" stroke="#000000" stroke-width="1" fill="none"></path></g><g stroke-linecap="round" transform="translate(1490 150) rotate(0 110 40)"><path d="M-1.89 -1.66 L221.83 -3.94 L220.34 81.94 L-3.93 76.5" stroke="none" stroke-width="0" fill="#fa5252"></path><path d="M1.18 -1.93 C79.92 -0.31, 153.82 2.97, 217.15 0.69 M-1.43 -1.51 C52.82 0.78, 105.75 -0.78, 221.63 -0.64 M221.44 -3.7 C219.49 24.97, 220.95 45.97, 219.96 81.29 M218.5 -0.28 C219.79 29.3, 219.37 56.96, 218.98 81.68 M217.63 81.18 C151.11 78.99, 75.89 80.58, 2.3 80.45 M220.86 80.45 C140.97 77.41, 66.4 76.11, 0.86 78.47 M-3.02 83.43 C-0.18 59.44, 4.32 42.31, -1 -2.88 M-1.33 78.71 C0.26 48.06, 2.2 17.88, 1.26 1.88" stroke="#000000" stroke-width="1" fill="none"></path></g><g transform="translate(1570 170) rotate(0 30.5 13)"><text x="0" y="18" font-family="Virgil, Segoe UI Emoji" font-size="20px" fill="#000000" text-anchor="start" style="white-space: pre;" direction="ltr">Entity</text></g><g stroke-linecap="round" transform="translate(1510 350) rotate(0 110 40)"><path d="M3.98 2.56 L217 -1.05 L221.99 81.14 L1.16 83.07" stroke="none" stroke-width="0" fill="#82c91e"></path><path d="M-0.39 2.42 C76.69 -3.82, 145.69 -4.71, 217.86 -0.38 M-1.13 0.95 C59.69 -1.61, 115.55 -1.9, 219.91 -1.13 M219.08 -0.36 C218.94 25.82, 217.72 49.39, 221.72 82.54 M221.45 -1.71 C218.9 31.14, 220.74 63.25, 219.51 78.47 M217.38 81.31 C149.43 79.47, 78.37 80.97, 0.82 79.51 M218.48 79.49 C171.03 77.34, 119.38 76.33, 0.22 78.47 M2.68 83.08 C-3.56 65.87, 2.11 45.8, 2.76 3.6 M0.18 78.37 C-0.23 54.66, 0.43 28.99, 1.13 -0.89" stroke="#000000" stroke-width="1" fill="none"></path></g><g stroke-linecap="round" transform="translate(1490 330) rotate(0 110 40)"><path d="M2.56 -3 L218.95 1.99 L221.14 81.16 L3.07 81.87" stroke="none" stroke-width="0" fill="#82c91e"></path><path d="M2.42 2.77 C72.93 -1.72, 147.12 -1.72, 219.62 -1.18 M0.95 1.21 C86.27 1.06, 170.96 2.39, 218.87 -0.23 M219.64 -1.06 C222.07 21.72, 222.72 49.73, 222.54 83.79 M218.29 -1.75 C218.65 27.33, 219.17 53.97, 218.47 80.43 M221.31 80.19 C156.19 77.02, 94.59 77.94, -0.49 77.46 M219.49 80.94 C175.76 75.84, 130.29 76.88, -1.53 78.38 M3.08 76.04 C2.93 59.69, -0.59 38.69, 3.6 1 M-1.63 79.84 C0.87 56.15, 1.2 32.42, -0.89 1.99" stroke="#000000" stroke-width="1" fill="none"></path></g><g transform="translate(1550 350) rotate(0 61.5 13)"><text x="0" y="18" font-family="Virgil, Segoe UI Emoji" font-size="20px" fill="#000000" text-anchor="start" style="white-space: pre;" direction="ltr">Value object</text></g><g stroke-linecap="round" transform="translate(810 510) rotate(0 110 40)"><path d="M3.63 0.52 L222.98 -0.4 L223.37 81.63 L-0.07 77.33" stroke="none" stroke-width="0" fill="#15aabf"></path><path d="M-3.3 -0.17 C56.69 -1.58, 110.94 4.45, 217.71 1.61 M-0.24 -1.09 C78.28 1.98, 154.91 2.15, 220.92 0.57 M219.58 -1.17 C218.15 26.43, 215.16 52.46, 218.98 83.14 M220.23 1.7 C220.85 33.5, 220.96 65.43, 218.02 79.6 M219.05 76.66 C171.49 75.92, 124.09 77.87, -0.79 78.95 M221.6 81.18 C150.53 78.38, 82.41 77.85, -0.42 80.27 M3.18 76.56 C1.71 66.66, -1.82 46.05, 2.58 -2.11 M1.98 80.06 C0.44 52.49, -2.66 22.7, -0.46 1.01" stroke="#000000" stroke-width="1" fill="none"></path></g><g stroke-linecap="round" transform="translate(790 490) rotate(0 110 40)"><path d="M0.52 2.98 L219.6 3.37 L221.63 79.93 L-2.67 83.14" stroke="none" stroke-width="0" fill="#15aabf"></path><path d="M-0.17 1.77 C44.7 4.73, 98.79 1.34, 221.61 1.67 M-1.09 1.65 C50.45 2.19, 100.62 1.45, 220.57 0.33 M218.83 -0.8 C222.36 14.93, 222.85 36.41, 223.14 83.88 M221.7 -0.2 C222.91 29.19, 223.07 56.6, 219.6 78.42 M216.66 80.13 C160.88 80.33, 106.49 78.16, -1.05 80.35 M221.18 78.75 C156.99 82.36, 92.03 83.09, 0.27 78.47 M-3.44 80.98 C2.78 57.09, -0.89 41.87, -2.11 2.14 M0.06 81.92 C1.85 47.4, 0.34 16.68, 1.01 1.82" stroke="#000000" stroke-width="1" fill="none"></path></g><g transform="translate(830 510) rotate(0 73 13)"><text x="0" y="18" font-family="Virgil, Segoe UI Emoji" font-size="20px" fill="#000000" text-anchor="start" style="white-space: pre;" direction="ltr">Domain Service</text></g><g stroke-linecap="round" transform="translate(1090 970) rotate(0 110 40)"><path d="M2.67 -1.75 L217.88 -0.18 L216.68 78.86 L0.95 76.7" stroke="none" stroke-width="0" fill="#fab005"></path><path d="M-0.38 -3.14 C50.53 -0.18, 105.16 -3.57, 218.7 -0.51 M0.92 -1.72 C50.66 0.33, 99.49 -1.42, 219.46 -1.36 M218.7 2.94 C218.77 14.1, 222.61 30.79, 223.92 79.8 M218.85 0.3 C219.88 26.79, 219.77 56.57, 221.47 81.51 M219.78 80.2 C166 83.42, 110.92 82.54, -0.89 80.05 M220.1 79.05 C146.3 79.39, 69.03 80.58, -0.6 81.41 M-1.85 83.71 C2.51 62.61, -2.16 50.71, 3.34 2.22 M-1.11 80.86 C0.3 50.45, 1.25 22.75, 0.78 -1.94" stroke="#000000" stroke-width="1" fill="none"></path></g><g transform="translate(1170 990) rotate(0 38.5 13)"><text x="0" y="18" font-family="Virgil, Segoe UI Emoji" font-size="20px" fill="#000000" text-anchor="start" style="white-space: pre;" direction="ltr">Factory</text></g><g stroke-linecap="round" transform="translate(970 710) rotate(0 110 40)"><path d="M3.93 1.53 L221.73 -1.63 L217.89 81.87 L-2.77 79.12" stroke="none" stroke-width="0" fill="#4c6ef5"></path><path d="M-2.57 -3.04 C81.3 1.88, 163.01 0.19, 217.61 0.09 M-0.63 -1.05 C62.58 1.15, 124.89 2.05, 218.75 0.3 M218 2.66 C216.23 28.9, 218.22 58.01, 223.4 76.24 M219.81 0.69 C221.98 22.74, 221.15 47.89, 218.64 79.77 M218.86 76.71 C159.3 83.58, 97.86 83.53, 3.44 81.17 M219.48 79.12 C166.54 78.53, 110.79 79.26, 0.85 78.41 M0.65 76.37 C-3.05 47.13, -2.93 16.43, -1.82 -2.14 M-0.81 79.16 C0.62 53.21, 1.43 28.97, -1.15 -0.01" stroke="#000000" stroke-width="1" fill="none"></path></g><g stroke-linecap="round" transform="translate(950 690) rotate(0 110 40)"><path d="M1.53 1.73 L218.37 -2.11 L221.87 77.23 L-0.88 82.21" stroke="none" stroke-width="0" fill="#4c6ef5"></path><path d="M-3.04 1.49 C55.5 6.21, 107.58 0.44, 220.09 -0.63 M-1.05 0.56 C48.55 2.21, 98.88 0.13, 220.3 1.29 M222.66 -3.3 C218.47 20.33, 217.64 46.69, 216.24 80.34 M220.69 0.91 C217.82 29.41, 218.28 57.3, 219.77 79.6 M216.71 80.92 C158.6 79.86, 96.38 82.18, 1.17 78.2 M219.12 81.12 C170.82 78.8, 122.42 79.71, -1.59 81.47 M-3.63 78.49 C-1.1 46.93, -1.01 14.83, -2.14 0.71 M-0.84 80.5 C-0.71 57.91, 0.46 32.06, -0.01 1.97" stroke="#000000" stroke-width="1" fill="none"></path></g><g transform="translate(1030 710) rotate(0 27.5 13)"><text x="0" y="18" font-family="Virgil, Segoe UI Emoji" font-size="20px" fill="#000000" text-anchor="start" style="white-space: pre;" direction="ltr">Policy</text></g><g stroke-linecap="round" transform="translate(390 10) rotate(0 100 40)"><path d="M0 0 C0 0, 0 0, 0 0 M0 0 C0 0, 0 0, 0 0 M-1.78 7.44 C0.7 5.91, 1.73 3.01, 4.42 -0.55 M0.15 6.39 C1.39 4.32, 2.99 2.56, 5.41 1.11 M2.36 11.43 C3.49 10.46, 5.55 0.56, 7.53 2.68 M0.18 12.74 C5.43 7.71, 8.29 3.57, 9.49 0.59 M-0.85 17.28 C4.59 14.28, 12.47 9.52, 15.07 -0.14 M0.01 19.17 C5.21 12.24, 14.17 4.84, 14.71 -1.21 M3.31 21.58 C5.02 21.57, 7.33 14.15, 24.43 -0.29 M-1.61 22.64 C6.75 16.03, 11.18 10.77, 22.06 -1.39 M2.9 28.57 C13.04 19.69, 16.46 11.78, 28.75 -2.29 M0.33 28.71 C4.82 25.09, 11.16 16.96, 26.02 0.89 M-0.97 33.1 C13.56 23.59, 18.29 14.36, 29.3 3.25 M1.21 37.42 C13.28 22.72, 25.05 8.41, 30.84 0.83 M0.52 44.57 C10.64 30.3, 25.19 12.31, 37.58 0.17 M1.77 43.82 C12.64 29.2, 21.23 16.92, 35.94 2.16 M-1.9 51.13 C11.28 37.47, 21.11 20.4, 44.72 2.63 M1.06 48.27 C8.74 35.77, 20.09 23.68, 42.08 1.25 M-2.89 52.19 C18.53 35.63, 35.16 16.11, 48.33 -1 M1.99 53.22 C17.24 36.01, 35.13 15.04, 49.05 1.15 M-3.61 58.41 C16.14 44.8, 29.18 33.19, 53.89 -0.31 M0.99 61.35 C19.41 37, 35.34 19.66, 53.89 -0.37 M-3.04 68.25 C12.35 53.67, 27.83 36.61, 61.6 -2.89 M1.57 68.29 C15.79 49.79, 32.06 30.81, 56.52 -0.71 M0.23 72.13 C13.83 50.95, 30.18 31.9, 59.79 -2.55 M-0.72 72.99 C14.41 55.28, 33.63 34.41, 61.98 -0.4 M2.11 76.53 C19.08 62.87, 35.62 44.15, 67.77 -3.37 M0.67 78.03 C18.1 57.56, 36.05 36, 70.11 -1.04 M0.4 81.62 C19.42 60.78, 41.88 42.14, 73.23 -3.88 M1.45 81.4 C26.1 52.73, 52.82 21.56, 73.68 -1.26 M4.35 83.18 C22.64 60.72, 43.58 43.23, 83.07 2.86 M8.94 82.59 C30.84 54.03, 54.95 28.57, 80.17 1.4 M16.1 84.42 C36.12 53.99, 58.37 36.42, 84.83 -2.91 M14.23 80.68 C36.14 60.88, 53.07 38.43, 85.88 -1.5 M18.78 85.89 C45.68 51.87, 74.65 20.94, 89.52 -3.71 M17.15 84.34 C40.96 60, 60.38 33.99, 89.65 0.8 M27.25 84.31 C52.19 49.71, 81.87 18.27, 93.02 -1.04 M23.81 80.93 C51.85 49.31, 79.98 20.33, 95.06 -1.74 M30.98 84.5 C54.52 57.09, 74.24 37.77, 102.95 0.59 M30.3 80.55 C49.66 62.14, 68.38 39.4, 100.1 -1.79 M30.77 79.97 C50.17 59.67, 66.93 38.52, 108.04 1.49 M34.22 82.85 C56.15 58.06, 76.02 36.12, 107.34 1.3 M40.92 85.05 C70.95 50.76, 100.77 18.57, 113.01 -1.36 M41.62 81.36 C56.18 65.5, 69.78 46.8, 109.65 -0.36 M47.37 83.02 C76.04 47.9, 99.76 14.76, 115.29 2.39 M44.01 81.8 C69.1 52.1, 98.32 22.22, 115.72 1.55 M48.42 82.74 C71.47 58.99, 94.29 29.24, 119.17 0.49 M51.89 82.85 C70.72 56.19, 93.38 30.16, 123.03 1.95 M57.61 86.52 C80.74 52.85, 105.62 23.74, 129.95 -1.69 M56.4 82.28 C80.56 51.87, 108.33 21.79, 128.81 -1.4 M57.09 81.97 C76.41 59.22, 98.6 45.43, 134.7 -0.62 M59.53 80.97 C77.53 62.39, 94.93 46.06, 133.57 -1.05 M64.51 81.95 C87.02 60.96, 111.46 29.06, 141.06 1.34 M67.82 80.98 C87.89 60.52, 109.6 32.6, 136.8 0.19 M70.37 84.33 C102.05 51.35, 129.51 24.84, 142.68 -0.26 M70.53 81.6 C101.6 50.23, 128.77 18.58, 145.17 -0.67 M72.91 79.99 C95.56 60.79, 112.63 40.4, 150.09 -0.01 M77.33 81.45 C100.46 55.87, 124.42 29.75, 148.18 1.24 M79.49 84.59 C95.43 61.9, 115.7 40.9, 156.02 -2.82 M80.49 82.51 C107.19 52.27, 136.84 19.67, 154.37 0.71 M85.46 82.51 C105.37 62.83, 114.44 44.77, 158.35 3.99 M88.56 84.19 C112.77 52.99, 143.01 21.49, 158.99 -1.46 M91.52 82.7 C120.85 49.6, 150.73 16.56, 165.43 -1.49 M92.57 83.38 C114.9 57.75, 136.99 27.98, 164.25 -0.41 M98.62 78.56 C115.5 62.85, 134.85 34.17, 170.97 0.22 M99.73 80.57 C115.72 62.79, 137.92 39.66, 170.9 0.82 M101.32 79.81 C126.94 50.97, 149.95 26.63, 175.43 1.72 M103.57 83.82 C124.66 58.81, 147.9 36.68, 174.51 1.39 M106.67 80.39 C133.02 57.88, 157.2 29.73, 176.87 -3.24 M109.68 82.9 C131.25 60.7, 152.75 34.76, 181.13 -1.31 M111.58 82.27 C138.01 51.78, 169.72 20.86, 184.36 -0.01 M113.85 81.31 C135.21 57.65, 155.74 32.38, 187.46 -1.57 M121.69 79.42 C136.37 56.48, 156.77 35.81, 192.81 2.91 M119.81 82.37 C135.92 65.77, 151.03 45.54, 192.54 -1.31 M128.77 81.59 C150.74 52.52, 171.15 20.47, 196.37 1.68 M125.38 81.26 C145.81 59.34, 164.68 36.17, 197.97 -0.04 M129.58 82.27 C145.12 63.22, 167.77 39.94, 202.66 1.86 M128.15 83.09 C145.92 64.51, 161.47 44.97, 198.91 2 M135.22 82.48 C161.93 49.16, 183.7 27.73, 203.51 9.15 M135.71 82.97 C158.59 54.31, 186.51 24.04, 201.63 4.89 M142.05 82.74 C163.63 57.39, 180.77 35.62, 201.63 11.83 M139.29 84.07 C154.49 64.96, 165.93 49.41, 199.06 11.52 M149.04 82.85 C159.45 68.41, 171.46 54.27, 202.22 16.37 M147.99 81.67 C158.51 65.9, 170 51.35, 201.15 17.51 M152.64 81.83 C170.21 59.73, 191.97 40.64, 203.73 26.33 M150.44 81.24 C166.02 61.58, 182.58 42.65, 202.47 26.2 M155.5 86.52 C175.66 65.29, 186.75 46.66, 203.99 30.48 M156.32 83.23 C166.97 72.88, 174 59.34, 199.12 30.99 M164.66 83.7 C175.45 68.61, 191.06 51.15, 200.96 35.4 M161.38 81.4 C174.29 69.47, 187.09 56.15, 202.34 36.17 M169.66 80.26 C178.29 70.67, 188.65 55.51, 203.56 41.36 M166.35 83.16 C176.19 70.56, 184.12 59.42, 200.14 42.94 M171.28 83.74 C177.87 70.34, 185.28 59.25, 200.46 50.98 M172.51 80.3 C181.44 74.28, 188.49 63.87, 198.84 50.25 M180.42 82.29 C184.32 70.27, 193.09 65.58, 198.15 57.31 M177.35 81.15 C186.27 74.96, 194.86 66.07, 200.06 57.1 M183.46 80.49 C184.24 79.66, 192.37 67.81, 199.16 59.98 M182.8 80.57 C189.13 74.38, 193.48 66.82, 199.67 62.89 M189.15 79.26 C189.67 75.66, 196.99 71.32, 198.77 69.81 M186.86 84.06 C194.95 75.12, 196.23 72.24, 199.34 66.17 M193.8 80.8 C196.16 80.54, 195.87 79.51, 200.28 73.23 M192.62 81.94 C195.83 81.02, 196.9 78.25, 201.56 73.24" stroke="#ced4da" stroke-width="0.5" fill="none"></path><path d="M1.75 2.67 C67.85 2.79, 127.06 2.9, 201.5 -2.94 M1.19 0.1 C68.63 0.07, 140.55 1.4, 198.29 1.32 M197.58 2.21 C199.63 20.96, 198.49 32.29, 196.65 80.01 M201.73 1.09 C198.83 22.59, 201.81 41.64, 199.94 79.23 M200.37 77.12 C133.25 80.09, 60.78 80.54, 1.09 79.59 M198.45 80.81 C152.11 78.92, 104.97 77.17, 1.59 80.23 M0.21 76.83 C2.74 61.96, 4.18 35.96, 0.77 2.6 M-1.49 81.11 C3.34 49.73, 0.18 17.19, 0.27 0.06" stroke="#000000" stroke-width="1" fill="none"></path></g><g transform="translate(410 30) rotate(0 74 13)"><text x="0" y="18" font-family="Virgil, Segoe UI Emoji" font-size="20px" fill="#000000" text-anchor="start" style="white-space: pre;" direction="ltr">Infrastructure</text></g><g stroke-linecap="round"><g transform="translate(430 90) rotate(0 -49.49395897090437 31.8265154761076)"><path d="M-1.61 2.47 C-18.41 12.08, -82.88 49.64, -99.65 59.14 M2.7 1.35 C-14.53 11.22, -85.14 52.15, -101.69 62.3" stroke="#000000" stroke-width="1" fill="none"></path></g></g><mask></mask><g stroke-linecap="round" transform="translate(1150 210) rotate(0 110 40)"><path d="M2.34 -1.46 L220.01 -1.51 L222.83 81.33 L-2.94 76.81" stroke="none" stroke-width="0" fill="#7950f2"></path><path d="M2.72 -2.89 C66.01 3.92, 135.36 0.02, 221.77 -3 M0.77 1.27 C53.41 4.84, 110.15 1.9, 219.49 1.23 M218.56 1.65 C219.73 18.24, 219.35 39.69, 219.54 83.8 M221.74 0.63 C218.95 28.23, 218.76 53.09, 218.47 80.95 M221.95 83.46 C151.87 83.78, 83.12 85.56, -2.83 81.66 M220.53 78.53 C135.82 78.03, 51.39 77.67, 0.69 78.44 M1.44 76.91 C-4.36 59.1, -1.71 44.36, 2.75 -0.98 M0.72 81.08 C-2.01 54.71, 0.14 30.04, -0.34 -1.17" stroke="#000000" stroke-width="1" fill="none"></path></g><g transform="translate(1190 230) rotate(0 78.5 13)"><text x="0" y="18" font-family="Virgil, Segoe UI Emoji" font-size="20px" fill="#000000" text-anchor="start" style="white-space: pre;" direction="ltr">Aggregate Root</text></g><g transform="translate(10 370) rotate(0 183.5 13)"><text x="0" y="18" font-family="Virgil, Segoe UI Emoji" font-size="20px" fill="#000000" text-anchor="start" style="white-space: pre;" direction="ltr">Interacts with external systems/dbs</text></g><g stroke-linecap="round"><g transform="translate(390.79239861213273 551.9303167276084) rotate(0 -29.490684753324103 -149.8039229363948)"><path d="M1.9 -1.24 C-8.3 -51.55, -48.65 -250.02, -59.4 -299.93 M-0.51 4.25 C-11.13 -47.01, -51.52 -252.22, -60.88 -303.86" stroke="#000000" stroke-width="1" fill="none"></path></g><g transform="translate(390.79239861213273 551.9303167276084) rotate(0 -29.490684753324103 -149.8039229363948)"><path d="M-47.31 -276.1 C-48.64 -289.84, -55.37 -299.14, -64.73 -302.95 M-43.95 -276.41 C-49.42 -283.16, -53.83 -289.5, -58.93 -305.55" stroke="#000000" stroke-width="1" fill="none"></path></g><g transform="translate(390.79239861213273 551.9303167276084) rotate(0 -29.490684753324103 -149.8039229363948)"><path d="M-67.47 -272.26 C-61.49 -287.67, -60.86 -298.38, -64.73 -302.95 M-64.11 -272.57 C-65.06 -280.33, -64.98 -287.53, -58.93 -305.55" stroke="#000000" stroke-width="1" fill="none"></path></g></g><mask></mask><g mask="url(#mask-uVHfVJbsVbf0yfnWm7b4s)" stroke-linecap="round"><g transform="translate(472.62553645148864 570.3874905370176) rotate(0 158.19997868761425 -27.302655280310148)"><path d="M-2.63 1.93 C50.62 -7.56, 265.35 -46.72, 319.03 -56.54 M1.14 0.51 C53.97 -8.57, 263.56 -43.99, 316.26 -53.12" stroke="#000000" stroke-width="1" fill="none"></path></g><g transform="translate(472.62553645148864 570.3874905370176) rotate(0 158.19997868761425 -27.302655280310148)"><path d="M292.96 -39.65 C297 -42.78, 303.82 -43.72, 313.48 -49.82 M290.95 -37.52 C299.46 -44.29, 311.83 -49.16, 317.13 -54.15" stroke="#000000" stroke-width="1" fill="none"></path></g><g transform="translate(472.62553645148864 570.3874905370176) rotate(0 158.19997868761425 -27.302655280310148)"><path d="M289.5 -59.88 C294.58 -57.2, 302.38 -52.4, 313.48 -49.82 M287.5 -57.74 C297.14 -56.52, 310.89 -53.35, 317.13 -54.15" stroke="#000000" stroke-width="1" fill="none"></path></g></g><mask id="mask-uVHfVJbsVbf0yfnWm7b4s"><rect x="0" y="0" fill="#fff" width="892.6255364514886" height="726.5352607479756"></rect><rect x="534.1255364514886" y="503.3136054315386" fill="#000" width="197" height="78" opacity="1"></rect></mask><g transform="translate(534.1255364514886 503.3136054315386) rotate(0 96.69997868761425 39.77122982516886)"><text x="98.5" y="18" font-family="Virgil, Segoe UI Emoji" font-size="20px" fill="#000000" text-anchor="middle" style="white-space: pre;" direction="ltr">Delegates more </text><text x="98.5" y="44" font-family="Virgil, Segoe UI Emoji" font-size="20px" fill="#000000" text-anchor="middle" style="white-space: pre;" direction="ltr">complicated domain </text><text x="98.5" y="70" font-family="Virgil, Segoe UI Emoji" font-size="20px" fill="#000000" text-anchor="middle" style="white-space: pre;" direction="ltr">orachestration logic</text></g><g stroke-linecap="round"><g transform="translate(864.3990929705142 470) rotate(0 141.87562766535893 -111.23626749694348)"><path d="M-0.95 0.62 C46.49 -36.07, 237.33 -181.59, 284.7 -218.76 M3.73 -1.51 C50.71 -39.17, 234.45 -186.58, 281.97 -223.09" stroke="#000000" stroke-width="1" fill="none"></path></g><g transform="translate(864.3990929705142 470) rotate(0 141.87562766535893 -111.23626749694348)"><path d="M267.06 -198.88 C272.47 -208.51, 272.03 -209.23, 282.77 -224.35 M264.55 -198.27 C271.27 -206.82, 274.76 -213.9, 282.84 -221.5" stroke="#000000" stroke-width="1" fill="none"></path></g><g transform="translate(864.3990929705142 470) rotate(0 141.87562766535893 -111.23626749694348)"><path d="M254.36 -215 C263.77 -219.67, 267.17 -215.52, 282.77 -224.35 M251.85 -214.39 C262.71 -218.08, 270.16 -220.14, 282.84 -221.5" stroke="#000000" stroke-width="1" fill="none"></path></g></g><mask></mask><g mask="url(#mask-kMfBTs1v076TmsKHX5bKf)" stroke-linecap="round"><g transform="translate(490 652.3550192867659) rotate(0 229.88503911197188 22.765060069176144)"><path d="M1.06 -0.3 C77.83 6.95, 385.29 37.3, 461.58 45.43 M-1.81 -2.93 C74.73 4.53, 384.29 40.64, 460.75 48.46" stroke="#000000" stroke-width="1" fill="none"></path></g><g transform="translate(490 652.3550192867659) rotate(0 229.88503911197188 22.765060069176144)"><path d="M431.17 59.26 C439.66 52.7, 453.72 48.78, 458.41 50.01 M432.79 55.57 C441.85 54.27, 448.68 49.79, 462.13 48.22" stroke="#000000" stroke-width="1" fill="none"></path></g><g transform="translate(490 652.3550192867659) rotate(0 229.88503911197188 22.765060069176144)"><path d="M433.42 38.86 C441.44 39.14, 454.75 42.02, 458.41 50.01 M435.04 35.17 C443.34 40.37, 449.45 42.37, 462.13 48.22" stroke="#000000" stroke-width="1" fill="none"></path></g></g><mask id="mask-kMfBTs1v076TmsKHX5bKf"><rect x="0" y="0" fill="#fff" width="1049" height="798.8880247116282"></rect><rect x="578.5" y="662.621521999197" fill="#000" width="282" height="26" opacity="1"></rect></mask><g transform="translate(578.5 662.6215219991971) rotate(0 141.38503911197188 12.49855735674501)"><text x="141" y="18" font-family="Virgil, Segoe UI Emoji" font-size="20px" fill="#000000" text-anchor="middle" style="white-space: pre;" direction="ltr">Selects different strategies</text></g><g stroke-linecap="round"><g transform="translate(1094.0038235841898 690) rotate(0 26.406021755252937 -199.03973597511646)"><path d="M-2.43 2.28 C6.77 -64.54, 45.75 -333.56, 55.24 -400.36 M1.44 1.06 C10.21 -65.37, 44.18 -329.54, 52.6 -396.93" stroke="#000000" stroke-width="1" fill="none"></path></g><g transform="translate(1094.0038235841898 690) rotate(0 26.406021755252937 -199.03973597511646)"><path d="M62.48 -368.75 C56.6 -378.63, 57.22 -388.12, 51.07 -396.8 M57.6 -368.33 C55.88 -377.46, 55.86 -385.21, 54.31 -395.69" stroke="#000000" stroke-width="1" fill="none"></path></g><g transform="translate(1094.0038235841898 690) rotate(0 26.406021755252937 -199.03973597511646)"><path d="M42.13 -371.33 C42.36 -380.09, 49.11 -388.8, 51.07 -396.8 M37.24 -370.91 C41.55 -379.58, 47.61 -386.56, 54.31 -395.69" stroke="#000000" stroke-width="1" fill="none"></path></g></g><mask></mask><g mask="url(#mask-jckWoQDhnWJdg9TVqSUco)" stroke-linecap="round"><g transform="translate(490 650.2932550705702) rotate(0 298.0122885435819 168.68014207930514)"><path d="M0.16 -2.15 C100.11 53.99, 499.54 283.07, 599.23 339.51 M-3.2 2.86 C96.44 59.28, 497.23 278.92, 597.11 334.81" stroke="#000000" stroke-width="1" fill="none"></path></g><g transform="translate(490 650.2932550705702) rotate(0 298.0122885435819 168.68014207930514)"><path d="M564.41 330.47 C576.76 330.42, 580.75 335.08, 593.51 335.24 M565.69 330.33 C576.87 331.51, 585.85 332.2, 596.77 335.14" stroke="#000000" stroke-width="1" fill="none"></path></g><g transform="translate(490 650.2932550705702) rotate(0 298.0122885435819 168.68014207930514)"><path d="M574.35 312.51 C584.24 317.54, 585.43 327.26, 593.51 335.24 M575.63 312.37 C583.96 318.88, 590.06 324.78, 596.77 335.14" stroke="#000000" stroke-width="1" fill="none"></path></g></g><mask id="mask-jckWoQDhnWJdg9TVqSUco"><rect x="0" y="0" fill="#fff" width="1189" height="1089.2191267453095"></rect><rect x="629" y="806.7561909079398" fill="#000" width="321" height="26" opacity="1"></rect></mask><g transform="translate(629 806.7561909079399) rotate(0 159.01228854358192 12.217206241935514)"><text x="160.5" y="18" font-family="Virgil, Segoe UI Emoji" font-size="20px" fill="#000000" text-anchor="middle" style="white-space: pre;" direction="ltr">Composes consistent aggregates</text></g><g stroke-linecap="round"><g transform="translate(1283.3333333333646 950) rotate(0 -6.153337635363982 -331.09432922825215)"><path d="M2.66 -0.55 C0.09 -110.9, -12.71 -551.96, -14.96 -661.64 M0.65 -3.31 C-1.04 -113.38, -7.46 -548.89, -9.45 -658.9" stroke="#000000" stroke-width="1" fill="none"></path></g><g transform="translate(1283.3333333333646 950) rotate(0 -6.153337635363982 -331.09432922825215)"><path d="M0.49 -633.21 C-4.56 -635.97, -3.63 -650.46, -10.83 -655.74 M0.11 -628.95 C-4.23 -642.35, -9.02 -654.2, -9.76 -659.81" stroke="#000000" stroke-width="1" fill="none"></path></g><g transform="translate(1283.3333333333646 950) rotate(0 -6.153337635363982 -331.09432922825215)"><path d="M-20.03 -632.88 C-18.59 -636.13, -11.17 -650.72, -10.83 -655.74 M-20.41 -628.62 C-16.7 -642.18, -13.43 -654.16, -9.76 -659.81" stroke="#000000" stroke-width="1" fill="none"></path></g></g><mask></mask><g stroke-linecap="round"><g transform="translate(1370.583708009869 210.7548667691648) rotate(0 51.65745618835081 -19.27365452542901)"><path d="M-0.58 -2.57 C16.16 -9.23, 81.44 -34.08, 98.38 -40.75 M4.29 2.21 C22.14 -3.97, 87.99 -30.35, 103.9 -37.54" stroke="#000000" stroke-width="1" fill="none"></path></g><g transform="translate(1370.583708009869 210.7548667691648) rotate(0 51.65745618835081 -19.27365452542901)"><path d="M78.22 -19.46 C85.91 -20.2, 88.26 -30.23, 104.95 -35.15 M81.73 -18.98 C90.81 -22.19, 96.2 -32.4, 104.39 -36.27" stroke="#000000" stroke-width="1" fill="none"></path></g><g transform="translate(1370.583708009869 210.7548667691648) rotate(0 51.65745618835081 -19.27365452542901)"><path d="M70.26 -38.38 C79.64 -34.8, 83.8 -40.55, 104.95 -35.15 M73.77 -37.89 C85.6 -34.38, 93.78 -37.96, 104.39 -36.27" stroke="#000000" stroke-width="1" fill="none"></path></g></g><mask></mask><g stroke-linecap="round"><g transform="translate(1370 290) rotate(0 51.4879640273748 41.19156541779637)"><path d="M1.63 2.54 C18.07 16.01, 81.87 65.04, 98.38 78.25 M-0.92 1.46 C16.45 15.48, 87.2 68.3, 103.9 80.93" stroke="#000000" stroke-width="1" fill="none"></path></g><g transform="translate(1370 290) rotate(0 51.4879640273748 41.19156541779637)"><path d="M78.83 69.87 C80.91 75.38, 94.32 76.36, 106.99 83.75 M76.09 73.7 C85.61 76.62, 94.2 77.55, 101.99 81.51" stroke="#000000" stroke-width="1" fill="none"></path></g><g transform="translate(1370 290) rotate(0 51.4879640273748 41.19156541779637)"><path d="M91.16 53.47 C89.34 63.91, 99.16 69.67, 106.99 83.75 M88.42 57.3 C93.98 65.2, 98.74 71.24, 101.99 81.51" stroke="#000000" stroke-width="1" fill="none"></path></g></g><mask></mask><g mask="url(#mask-LAFu_1wnWaEsus1WeMSMW)" stroke-linecap="round"><g transform="translate(430 550) rotate(0 358.907864715904 -170.0622985981405)"><path d="M-0.98 1.74 C118.76 -55, 598.43 -284.78, 718.79 -341.86 M3.69 0.21 C122.91 -56.08, 596.51 -282.86, 715.9 -339.24" stroke="#000000" stroke-width="1" fill="none"></path></g><g transform="translate(430 550) rotate(0 358.907864715904 -170.0622985981405)"><path d="M697.34 -319.59 C699.02 -322.74, 707.17 -327.53, 714.4 -337.02 M694.84 -318.96 C701.57 -327.17, 711.84 -335.93, 714.11 -339.74" stroke="#000000" stroke-width="1" fill="none"></path></g><g transform="translate(430 550) rotate(0 358.907864715904 -170.0622985981405)"><path d="M688.52 -338.12 C692.77 -335.4, 703.69 -334.38, 714.4 -337.02 M686.02 -337.49 C696.4 -338.39, 710.13 -339.88, 714.11 -339.74" stroke="#000000" stroke-width="1" fill="none"></path></g></g><mask id="mask-LAFu_1wnWaEsus1WeMSMW"><rect x="0" y="0" fill="#fff" width="1250" height="990"></rect><rect x="693.5" y="367" fill="#000" width="193" height="26" opacity="1"></rect></mask><g transform="translate(693.5 367) rotate(0 95.407864715904 12.9377014018595)"><text x="96.5" y="18" font-family="Virgil, Segoe UI Emoji" font-size="20px" fill="#000000" text-anchor="middle" style="white-space: pre;" direction="ltr">Interacts/Mutates</text></g></svg>