<svg version="1.1" xmlns="http://www.w3.org/2000/svg" viewBox="0 0 2294.4444580078125 1202.5804945120913" width="2294.4444580078125" height="1202.5804945120913">
  <!-- svg-source:excalidraw -->
  
  <defs>
    <style class="style-fonts">
      @font-face {
        font-family: "Virgil";
        src: url("https://excalidraw.com/Virgil.woff2");
      }
      @font-face {
        font-family: "Cascadia";
        src: url("https://excalidraw.com/Cascadia.woff2");
      }
    </style>
  </defs>
  <rect x="0" y="0" width="2294.4444580078125" height="1202.5804945120913" fill="#ffffff"></rect><g stroke-linecap="round" transform="translate(950 370) rotate(0 260 160)"><path d="M0 0 C0 0, 0 0, 0 0 M0 0 C0 0, 0 0, 0 0 M-0.18 7.8 C1.93 5.66, 4.97 2.13, 3.6 1.17 M0.07 6.62 C0.61 4.57, 1.5 3, 4.72 0.65 M-1 10.38 C6.6 7.1, 8.85 2.53, 12.02 -2.27 M-0.1 10.94 C4.07 8.69, 9.84 3.65, 11.75 -0.38 M-2.47 15.85 C0.47 10.88, 5.72 9.2, 11.88 2.94 M0.31 17.25 C4.16 12.54, 10.81 9.94, 14.36 -1.14 M-0.42 25.65 C4.45 19.22, 6.99 12.34, 22.07 -2.83 M2.08 24.86 C8.92 13.5, 16.04 5.62, 21.53 0.52 M3.53 33.1 C8.12 16.6, 21.4 4.51, 25.25 2.13 M1.86 28.61 C12.5 19.4, 19.02 7.48, 26.95 1.31 M1.95 34.41 C9.69 28.15, 20.17 13.4, 31.19 -1.09 M1.62 36.18 C10.1 26.23, 18.41 14.98, 30.51 -1.69 M1.22 38.63 C12.06 26.51, 25.16 15.17, 33.73 1.6 M0.73 41.03 C11.49 30.36, 22.6 18.4, 37.44 -0.17 M-2.52 50.1 C14.36 30.46, 24.93 18.55, 45.93 3.4 M-2.01 49.63 C15.31 28.57, 33.11 11.82, 41.55 -1.66 M3.06 55.21 C18.82 32.47, 37.1 19.49, 48.65 2.76 M-1.64 55.08 C14.68 39.28, 28.02 22.27, 48.1 1.41 M3.09 64.65 C16.46 43, 35.72 20.46, 49.7 -2.52 M-0.32 60.1 C10.62 47.68, 21.69 34.55, 53.1 0.65 M-1.97 68.19 C14.37 51.42, 35.94 26.67, 56.48 2.87 M-0.57 66.68 C15.82 49.88, 31.96 27.88, 58.11 -1.35 M3.51 73.07 C23.37 44.85, 47.78 18.5, 63.08 -2.19 M0.74 71.29 C15.5 58.73, 27.9 42.45, 65.55 -2.11 M-1.71 82.44 C19.54 52.29, 42.47 28.73, 70.91 -1.03 M0.51 78.08 C19.64 52.4, 46.01 25.9, 69.53 -0.28 M2.67 86.15 C14.11 63.36, 33 42.41, 75.84 -1.16 M2.1 86.52 C28.35 52.88, 55.69 20.23, 75.16 1.27 M-0.8 90.94 C20 77.12, 32.25 57.12, 80.8 -0.07 M0.09 92.39 C25.75 64.3, 52.72 31.72, 81.34 -1.59 M3.04 95.27 C26.44 59.97, 64.42 21.15, 82.94 0.85 M0.97 99.44 C21.91 67.25, 45.99 41.35, 84.12 -1.36 M1.97 99.71 C25.35 74.79, 52.72 43.18, 86.21 -1.55 M-0.77 104.56 C23.7 76.83, 49.97 52.21, 91.44 0.08 M-3.78 113.34 C24.51 85.55, 43.81 59.31, 96.53 -2.07 M-0.57 109.03 C35.64 74.18, 69.98 33.29, 94.52 0.39 M1 116.59 C26.55 82.34, 60.3 54.47, 102.38 -1 M-1.11 116.13 C38.82 72.35, 77.81 31.45, 102.61 -0.3 M3.06 119.38 C30.25 85.48, 54.66 59.77, 109.94 -2.03 M-1.51 122.15 C19.42 96.43, 44.22 73.21, 106.35 1.55 M3.21 131.99 C36.58 84.62, 80.85 45.24, 107.73 -2.1 M1.3 130 C26.33 97.29, 53.04 68.34, 112.56 -0.17 M0.22 131.43 C42.63 84.41, 85.87 42.55, 117.05 3.44 M-1.29 132.47 C42.63 90.09, 81.9 45.53, 114.88 0.47 M2.7 143.85 C43.66 89.34, 84.4 35.47, 119.89 3.26 M-1.47 141.38 C29.76 104.3, 57.83 70.65, 123.89 0.62 M3.59 147.35 C22.71 116.14, 53.58 84.01, 126.87 -3.64 M1.6 147.27 C27.81 114.04, 56.01 83.07, 127.21 1.85 M-2.89 150.43 C34.37 109.86, 75.45 62.38, 135.34 -0.89 M-1.23 152.36 C44.18 101.79, 88.06 54.08, 133.95 1.62 M-0.42 157.74 C31.65 114.73, 66.85 78.9, 139.4 2.53 M-1.03 158.25 C56.76 97.74, 111.69 33.58, 136.53 -0.65 M0.51 165.92 C37.73 129.29, 66.89 92.4, 143.04 -2.71 M-1.57 163.05 C35.29 121.77, 69.74 83.72, 141.85 0.64 M-0.31 170.24 C43.56 125.08, 85.29 76.6, 145.84 -1.7 M0.94 171.96 C30.97 135.25, 63.38 98.81, 149.8 1.74 M2.08 173.17 C42.37 123.75, 88.39 72.54, 156.64 0.39 M-0.25 177.21 C43.15 126.43, 85.02 77.5, 152.13 -1.4 M0.58 179.7 C62.72 113.06, 123.56 37.82, 159.45 -0.98 M-0.07 182.15 C45.59 133.84, 89.9 78.73, 159.61 1.79 M-0.71 192.24 C66.82 115.64, 130.09 42.49, 161.19 0.89 M0.64 188.01 C52.98 127.32, 111.34 59.39, 163.16 0.93 M-0.56 196.94 C49.02 139.1, 89.87 82.54, 170.27 3.25 M0.3 193.67 C37.06 153.49, 73.58 113.08, 170.62 0.18 M2.27 198.9 C39.77 152.67, 75.4 103.44, 177.72 -1.61 M-0.55 200.42 C50.81 142.37, 103.14 82.54, 175.73 -0.58 M2.53 206.39 C60.56 141.33, 116.94 77.6, 182.96 -1.34 M-1.16 207.39 C46.1 152.19, 92.04 99.57, 180.67 -0.46 M0.63 212.04 C55.63 147.67, 108.31 85.8, 187.34 1.57 M-0.99 213.66 C73.34 130.35, 145.35 46.91, 185.17 0.33 M2.01 222.13 C58.74 147.97, 118.1 85.71, 193.44 2.93 M-1.25 219.95 C53.29 158.05, 103.68 98.6, 189.28 -0.42 M1.51 228.2 C53.24 157.65, 111.42 91.46, 193.62 0.14 M0.82 226.82 C53.23 168.94, 103.89 110.8, 195.42 -0.05 M1.07 230.92 C58.88 158.82, 118.96 89.49, 199.07 -2.04 M1.02 231.81 C79.6 140.68, 155.83 49.42, 201.78 -0.94 M0.6 239.94 C65.42 161.97, 123.23 93.25, 204.8 -0.72 M0.4 238.11 C62.05 166.83, 125.59 92.1, 207.73 -0.93 M0.11 242.77 C39.67 189.57, 87.64 142.78, 212.36 0.05 M-0.25 243.73 C68.12 162.16, 136.94 85.63, 212.93 0.09 M-2.92 251.03 C46.12 202.38, 91.14 148.67, 219.2 -2.14 M0.01 249.91 C66.66 172.36, 139.45 89.28, 216.92 0.79 M2.2 254.82 C80.65 161.16, 164.73 65.76, 223.36 -2.37 M0.43 255.46 C61.75 189.25, 123.27 120.65, 223.51 0.85 M-1.86 263.81 C60.27 184.11, 126.31 113.78, 229.58 -2.57 M0.79 261.18 C67.89 184.07, 135.43 106.38, 227.07 -1.64 M-0.89 267.03 C85.05 171.22, 167.01 73.92, 232.07 -0.02 M0.62 267.79 C89.48 162.56, 182.93 58.18, 232.86 0.17 M1.32 275.86 C52.68 213.96, 106 152.34, 236.15 -0.1 M0.6 273.44 C81.34 177.48, 162.52 83.93, 237.77 1.58 M-0.01 280.02 C53.35 215.74, 111.15 150.61, 244.16 1.27 M-0.61 281.9 C86.46 177.82, 173.04 78.58, 242.85 1.12 M0.95 285.57 C71.11 207.78, 135.26 130.63, 250.16 2.24 M0.55 286.5 C57.07 224.15, 113.81 159.05, 248.67 0.71 M-0.22 294.39 C61.63 220.32, 126.92 143.85, 253.31 0.03 M0.7 292.87 C95.41 183.52, 189.44 71.92, 253.8 -0.41 M-0.11 299.61 C83.2 206.66, 162.51 112.73, 258.07 -0.84 M0.38 298.2 C56.46 231.38, 112.32 164.73, 259.39 0.87 M-1.23 303.58 C89.55 196.24, 185.03 89.75, 263.91 0.54 M0.99 305.11 C100.36 189.69, 198.85 75.49, 265.93 0.32 M0.53 312.02 C107.16 193.65, 208.59 73.11, 270.67 0.98 M-0.85 311.14 C61.45 235.38, 127.75 159.14, 270.66 -0.02 M1.6 316.41 C80.38 227.17, 157.96 135.09, 273.81 0.93 M0.49 316.11 C63.91 239.89, 129.28 164.8, 276.11 -0.97 M2.36 321.49 C100.15 204.78, 204.93 83.19, 281.81 -0.65 M0.26 322.05 C93.71 215.57, 189.05 107.66, 280.42 0.31 M8.08 320.27 C92.5 223.13, 176.14 126.47, 285.91 0.56 M7.44 322.16 C95.87 217.69, 190.56 110.56, 285.84 -0.4 M10.52 322.07 C91.34 227.53, 175.09 135.65, 289.92 1.35 M11.51 321.71 C115.8 201.21, 220.38 81.65, 291.43 0.55 M17.25 319.74 C83.51 248.77, 147.03 176.91, 297.4 1.84 M17.08 320.35 C77.43 254.35, 136.61 185.59, 297.32 -0.3 M20.47 321.27 C88.95 245.06, 151.98 173.31, 303.25 1.13 M23.3 322.16 C119.8 206.69, 219.54 91.3, 301.56 -0.74 M28.31 320.76 C135.69 196.52, 246.23 67.54, 306.18 -0.32 M29.07 321.7 C112.09 223.76, 197.72 124.95, 308.57 0.55 M33.35 321.25 C138.93 197.8, 248.41 73.49, 312.89 -0.9 M33.08 322.06 C119.26 220.45, 207.17 118.57, 313.4 0.03 M39.81 322.53 C128.22 213.48, 221.23 109.9, 317 0.43 M39.11 320.96 C104.49 246.77, 166.2 173.92, 318.6 -0.53 M44.61 322.99 C108.51 249.25, 171.87 173.93, 324.17 -0.27 M43.46 322.46 C104.07 250.8, 164.32 182.13, 322.67 -0.07 M47.8 319.98 C118.71 241.66, 189.12 156.49, 326.87 -1.15 M48.62 321.02 C119.72 239.78, 192.63 157.42, 328.49 -0.67 M54.54 320.07 C156.27 203.47, 259.03 87.92, 333.62 1.12 M54.9 321.58 C123.71 241.8, 193.15 163.06, 333.93 1.08 M60.44 322.6 C166.42 194.48, 276.77 69.41, 339.68 1.11 M59.48 321.46 C132.79 237.26, 206.97 152, 340.28 -0.88 M66.11 321.65 C137.69 240.44, 205.11 158.04, 343.63 1.27 M64.7 322.14 C159.05 215.78, 249.1 110.28, 344.91 -0.9 M70.83 323.03 C135.23 242.29, 207.05 164.06, 350.94 -1.7 M70.91 321.61 C129.47 256, 188.27 191.59, 349.05 -0.05 M74.57 321.11 C152.07 232.44, 226.91 143.57, 356.15 0.17 M76.37 321.94 C132.45 256.91, 191.38 189.77, 355.88 0.89 M80.01 320.06 C170.61 214.88, 264.04 110.47, 360.81 -0.91 M80.51 321.66 C137.77 255.47, 195.41 190.88, 359.12 0.97 M86.24 323.23 C167.49 230.58, 243.51 138.94, 366.43 1.92 M86.04 321.19 C190.15 200.73, 296.09 80.66, 366.56 0.6 M90.7 320.82 C158.26 244.96, 224.2 171.77, 372.33 -1.43 M91.61 321.55 C164.2 238.38, 237.4 153.83, 370.71 0.76 M95.5 321.2 C173.17 232.16, 249.31 145.4, 377.67 0.03 M96.09 321.43 C184.93 215.6, 276.2 109.46, 377.14 -0.51 M100.98 321.83 C206.33 199.07, 313.7 75.82, 379.31 -1.66 M101.7 320 C209.02 200.43, 313.12 82.15, 381.47 -0.45 M107.83 319.6 C182.99 237.95, 256.17 156.21, 386.38 0.48 M107.78 320.36 C193.9 219.14, 280.85 117.88, 387.22 0.7 M114.84 319.5 C181.71 248.1, 249.45 169.19, 392.97 0.93 M113.99 321.8 C166.25 256.25, 223.27 191.3, 391.14 1.04 M116.77 319.79 C180.25 245.84, 247.86 165.76, 396.98 -1.3 M118.17 321.2 C228.95 194.57, 339.5 66.4, 396.9 -0.18 M122.54 321.41 C211.17 220.03, 299.6 118.22, 402.09 -0.67 M123.13 320.73 C235.19 193.35, 344.62 64.07, 402.53 0.84 M126.94 321.97 C195.63 246.31, 256.73 174.69, 407.23 -1.63 M129.46 321.21 C239.62 198.42, 347.42 74.15, 407.79 0.61 M134.81 320.18 C244.09 199.95, 350.55 76.16, 412.83 0.08 M133.57 320.68 C213.94 233.46, 293.7 140.31, 414.21 0.12 M139.39 323.13 C252.41 192.76, 361.88 65.34, 418.63 0.99 M139.65 321.1 C222.02 221.64, 305.9 125.56, 419.88 -0.71 M143.19 321.07 C209.77 249.53, 272.87 177.06, 425.7 0.19 M144.03 322.35 C249.31 203.89, 352.67 84.3, 423.66 0.36 M149.53 323.27 C250.1 204.86, 347.96 92.86, 430.14 -0.4 M149.81 321.89 C233.08 225.42, 319.08 127.81, 430.48 0.25 M154.13 320.13 C243.32 221.41, 334.01 121.57, 433.44 1.78 M155.44 321.3 C222.12 245.06, 288.16 169.99, 434.59 0.22 M161.75 319.16 C239.69 234.09, 317.11 146.97, 440.34 1.78 M160.98 321.77 C266.6 199.3, 371.46 78.04, 439.5 0.32 M165.26 319.58 C259.56 213.61, 348.92 109.14, 444.08 1.67 M165.02 322.28 C236.18 241.79, 305.16 159.31, 445.43 0.73 M170.61 323.18 C269.92 211.14, 366.15 101.88, 449.44 -1.73 M170.99 321.34 C236.84 240.81, 306.59 162.5, 450.43 0.33 M175.89 321.54 C236.68 246.81, 300.37 174.29, 453.71 1.81 M175.67 321.46 C247.34 235.98, 320.97 151.61, 456.66 0.13 M183.82 319.36 C274.05 218.35, 367.2 111.85, 461.42 -1.45 M181.82 320.45 C255.89 236.65, 326.64 154.68, 460.99 -0.18 M184.91 321.75 C287.21 202.9, 391.96 80.44, 465.32 -1.21 M186.62 322.13 C266.77 226.48, 347.46 133.4, 465.55 -0.96 M190.91 319.86 C257.43 248.94, 317.1 174.84, 472.93 0.2 M192.25 321.37 C271.24 230.11, 349.62 138.71, 471.82 0.99 M197.06 320.05 C255.86 252.2, 315.98 185.95, 478.33 -1.44 M198.57 321.08 C266.89 243.15, 334.07 167.69, 477.71 -0.56 M202.94 321.09 C300.18 207.77, 402.18 92.15, 482.11 0.53 M203.12 321.43 C266.16 249.63, 331.37 176.29, 481.85 0.4 M208.27 322.44 C268.46 248.39, 329.3 178.06, 486.5 1.71 M208.54 322.21 C322.52 194.27, 431.97 65.99, 487.19 -0.54 M212.76 322.45 C303.58 215.35, 394.76 105.77, 491.03 -0.99 M214.17 320.38 C308.4 214.5, 403.12 104.8, 491.62 0.89 M220.33 322.3 C308.99 221.67, 394.33 119.39, 496.77 1.43 M219.26 320.85 C311.33 217.89, 401.69 114.21, 498.46 0.63 M226.41 320.12 C297.48 236.7, 374.17 151.11, 501.97 0.55 M225.09 321.43 C300.55 235.46, 375.75 146.86, 502.85 1.15 M230.44 323.34 C305.56 235.48, 374.02 153.82, 510.45 -1.89 M229.74 321.52 C334.02 202.28, 437.89 83.73, 508.59 0.66 M235.21 322.49 C326.7 212.45, 423.46 98.19, 514.71 1.58 M233.8 322.53 C299.36 249.51, 365.81 175.49, 514.54 -0.33 M241.63 320.81 C319.68 233.36, 395.86 140.84, 521.06 1.49 M240.49 322.26 C336.08 206.63, 434.12 95.09, 518.82 0.66 M245.68 319.8 C324.07 227.83, 403.47 137.27, 522.41 2.79 M244.34 320.77 C307.94 242.87, 374.73 167.05, 522.13 2.23 M252.38 320.31 C305.35 253.11, 366.32 185.93, 521.78 7.49 M250.44 321.96 C321.47 237.59, 396.39 152.95, 522.02 8.31 M256.71 320.2 C330.49 234.92, 399.53 152.51, 523.79 14.22 M255.62 322.12 C321.26 244.39, 387.42 168.68, 522.16 15.56 M262.72 323.45 C358.54 207.94, 459.38 89.8, 521.15 22.03 M262.19 321.3 C321.65 258.34, 377.4 193.07, 521.58 20.49 M268.51 319.46 C365.54 208.6, 466.99 91.61, 523.66 26.43 M267.21 322.64 C326.49 247.58, 390.58 176.88, 522.62 27.63 M272.19 320.25 C354.6 227.38, 436 132.99, 523.68 30.87 M272.27 322.04 C333.35 249.76, 394.69 177.29, 523.39 33.06 M274.77 320.92 C333.68 258.54, 384.51 198.47, 524.41 39.79 M277.27 320.42 C364.27 220.92, 447.35 123.87, 522.2 37.93 M282.26 323.64 C339.96 254.4, 397.48 185.79, 524.32 45.19 M283.32 321 C355.43 235.4, 427.54 151.32, 523.23 44.8 M289.14 319.53 C348.27 256.91, 410.16 186.34, 522.66 52.83 M288.66 322.51 C355.42 244.04, 424.88 166.71, 521.82 50.22 M294.17 320.19 C375.04 228.4, 454.59 134.94, 521.22 55.11 M293.89 320.7 C363.3 238.57, 433.8 156.36, 523.36 56.31 M299.32 323.82 C350.38 255.3, 406.49 190.07, 523.88 61.25 M298.09 321.7 C376.9 230.13, 459.48 136.79, 521.28 63.62 M306.06 321.08 C385.92 223.51, 465.64 128.07, 523.91 66.47 M304.21 321.1 C363.26 251.03, 422.46 183.62, 523.65 70.12 M308.25 322.88 C371.97 250.09, 431.68 176.61, 520.74 76.31 M309.89 322.34 C360.09 256.67, 413.94 195.08, 521.55 75.18 M315.18 319.55 C352.81 273.31, 397.69 225.79, 523.99 79.69 M315.22 320.47 C387.08 238.91, 461.82 151.18, 521.84 81.84 M317.35 319.67 C392.38 240.43, 458.36 165.47, 524.93 87.11 M319.01 321.34 C363.28 274.95, 406.05 225.23, 523.7 88.86 M326.56 319.29 C375.04 267.73, 418.03 215.19, 520.43 94.2 M324.24 322.33 C370.43 266, 418.86 213.23, 523.17 94.68 M329.2 319.04 C373.38 267.43, 418.32 214.6, 525.6 101.68 M331.46 320.04 C382.27 257.14, 436.86 198.34, 523.71 98.57 M333.23 321.38 C386.99 261.11, 439.76 201.83, 519.93 104.07 M335 319.83 C403.73 242.48, 471.35 167.72, 523.85 106.21 M338.37 318.69 C410.19 241.03, 475.19 167.77, 524.3 111.43 M340.16 320.45 C390.16 268.9, 437.24 213.65, 521.6 113.13 M348.57 320.64 C382.53 275.59, 422.31 227.89, 525.61 115.64 M347.73 320.48 C389.02 274.47, 427.01 231.36, 523.33 117.94 M352.4 323.84 C418.53 248.21, 476.96 177.13, 524.31 126.29 M352.93 320.53 C417.71 245.94, 484.21 169.12, 523.4 125.63 M354.08 321.46 C416.7 261.02, 469.1 193.27, 525.69 127.89 M356.29 321.94 C411.27 255.87, 464.81 193.19, 522.55 128.83 M364.31 318.75 C421.04 257.53, 477.3 189.56, 523.21 133.57 M360.43 321.77 C422.33 250.07, 485.92 176.26, 523.03 136.87 M366.91 319.63 C401.42 280.83, 432.75 245.16, 520.54 141.92 M368.25 322.2 C412.32 269.42, 458.57 218.32, 521.84 143.99 M374.01 321.2 C412.86 278.72, 448.4 234.99, 525.16 148.46 M372.44 321.21 C413.67 274.8, 456.53 227.07, 521.89 148.3 M376.07 323.07 C416.08 277.81, 450.23 240.26, 524.05 154.73 M376.97 322.78 C407.91 282.83, 441.68 242.27, 521.85 153.51 M385.95 321.32 C422 269.18, 464.51 224.82, 523.59 159.9 M384.13 319.58 C431.88 268.78, 476.62 212.06, 524.17 161.2 M386.92 318.29 C420.93 275.84, 455.85 238.58, 522.33 166.98 M389.02 320.65 C443.29 260.69, 495.63 198.4, 521.05 165.24 M391.57 324.34 C440.35 261.21, 493.59 206.08, 524.34 174.16 M393.53 319.91 C433.55 276.72, 476.21 225.33, 523.99 171.81 M397.3 323.13 C446.65 269.53, 492.84 213.91, 519.63 176.37 M397.84 321.17 C430.01 290.8, 456.21 258.49, 523.98 180.52 M401.68 317.74 C430.76 293.62, 456.25 263.46, 523.44 188.16 M404.05 323.09 C441.32 282.42, 476.18 240.72, 522.64 184.94 M408.26 318.95 C441.34 278.88, 479.51 236.13, 522.98 190.43 M410.55 322.61 C455.95 271.7, 497.36 221.59, 524 191.38 M413.55 322.86 C440.8 288.9, 468.64 259.52, 522.06 196.57 M415.52 319.67 C454.63 273.59, 495 224.39, 521.18 197.65 M419.63 321.1 C449.64 292.21, 474.77 260.96, 519.51 207.33 M419.67 320.21 C457.28 279.09, 496.24 235.69, 522.98 202.67 M429.28 318.86 C460.29 284.49, 494.55 244.69, 525.12 209.19 M425.58 321.05 C462.45 279.17, 501.79 239.78, 524.05 209.74 M434.6 321.12 C455.93 297.39, 479.61 267.37, 523.55 216.77 M432.52 320.89 C463.04 284.37, 495.61 247.13, 520.9 215.7 M436.13 318.7 C464.67 288.62, 500.92 254.72, 520.09 224.4 M435.75 321.2 C466.25 286.07, 495.96 250.54, 523.95 223.37 M439.51 322.4 C469.35 287.69, 494.62 257.38, 520.65 224.53 M441.33 321.18 C458.86 297.95, 480.42 275.47, 521.64 226.7 M450.57 317.14 C476.66 288.02, 506.14 255.78, 523.58 238.11 M445.45 322.69 C468.56 295.52, 493.83 267.79, 522.47 234.03 M455.94 320.1 C476.36 302.11, 492.26 279.65, 522.21 237.44 M453.24 321.2 C471.32 297.67, 490.27 274.57, 521.69 241.71 M458.24 318.79 C473.63 301.07, 488.44 283.57, 525.43 244.33 M458.04 322.7 C478.23 301.95, 494.7 279.04, 524.1 245.07 M464.62 321.23 C481.55 296.05, 511.62 267.81, 520.17 252.92 M464.29 322.67 C475.26 306.81, 489.38 288.6, 522.74 252.11 M465.31 318.79 C486.7 294.32, 508.64 270.75, 519.31 260.1 M466.11 319.74 C486.65 297.14, 506.1 274.32, 520.93 258.66 M473.48 324.58 C486.96 302.73, 502.63 287.22, 525.59 267.9 M473.43 322.89 C480.63 311.15, 491.07 298.81, 524.4 265.62 M481.14 319.84 C488.92 306.88, 504.36 297.69, 522.09 274.31 M480.11 320.65 C493.7 301.01, 511.86 283.63, 521.94 270.58 M481.63 324.78 C493.75 305.24, 502.26 299.43, 520.8 279.43 M484.53 320.76 C491.62 311.15, 501.3 299.34, 522.2 276.83 M486.26 324.73 C499.45 305.76, 513.53 293.47, 521.17 284.37 M490.45 323.14 C494.4 311.58, 503.98 303.82, 522.36 284.97 M491.39 324.26 C502.51 312.01, 506.87 310.16, 521.94 285.59 M496.33 322.79 C501.13 312.83, 512.24 301.32, 524.21 290.15 M503.08 321.29 C506.23 310.09, 518.34 300.99, 521.1 297.29 M500.1 322.75 C503.68 315.11, 511.64 308.61, 524.28 293.26 M504.23 321.25 C510.58 316.86, 510.2 308.88, 526.34 298.27 M504.51 321.05 C508.26 318.2, 511.53 310.15, 524.45 302.59 M511.13 319.29 C517.55 314.82, 515.73 311.56, 519.81 306.16 M509.94 319.72 C513.32 317.37, 518.94 312.2, 522.76 308.71 M516.32 321.5 C517.32 317.24, 519.88 315.99, 523.12 314.79 M515.72 320.21 C517.58 319.57, 520.15 316.83, 523.26 314.08" stroke="#ced4da" stroke-width="0.5" fill="none"></path><path d="M-1.02 -1.44 C195.14 -2.11, 388.93 0.21, 520.3 -1.43 M0.14 0.39 C139.57 4.36, 278.28 2.92, 520.31 -0.13 M522.37 2 C518.45 70.35, 516.83 146.68, 518.31 318.18 M518.9 -1.18 C522.05 72, 522.21 143.42, 520.91 319.62 M520.82 320.47 C401.91 319.92, 287.35 319.89, -0.42 319.72 M519.58 319.71 C348.21 317.43, 176.64 316.82, -0.22 319.63 M-2.04 318.44 C-0.39 246.54, -0.39 168.86, -0.77 1.6 M-0.42 321.39 C-0.4 233.77, -0.27 145.91, 0.03 1.24" stroke="#000000" stroke-width="1" fill="none"></path></g><g stroke-linecap="round" transform="translate(550 530) rotate(0 110 40)"><path d="M-1.5 -1.02 L220.53 -2.49 L221.77 80.53 L-0.97 77.52" stroke="none" stroke-width="0" fill="#b4a7d6"></path><path d="M-1.83 -0.25 C45.03 -3.04, 89.3 -0.34, 219.42 -1.76 M-1.65 0.31 C87.99 -1.19, 177.19 0.2, 221.36 1.66 M223.82 -3.84 C216.48 34.1, 217.27 65, 220.04 79.68 M221.53 1.31 C218.95 20.9, 219.01 41.74, 218.75 81.55 M221.73 79.87 C145.58 85.1, 66.13 83.28, -0.01 78.11 M218.61 80.53 C150.27 81.32, 78.89 79.35, -1.12 79.15 M0.12 80.82 C-1.42 57.47, 2.93 34.14, 1.29 0.83 M-1.42 79.55 C-1.56 54, -2.31 25.98, -0.9 0.94" stroke="#000000" stroke-width="1" fill="none"></path></g><g stroke-linecap="round" transform="translate(10 330) rotate(0 187.22222900390625 240)"><path d="M0 0 C0 0, 0 0, 0 0 M0 0 C0 0, 0 0, 0 0 M0.38 7.82 C2.02 5.43, 4.08 1.88, 4.37 1.44 M-0.44 6.66 C1.5 4.38, 3.31 2.81, 5.09 0.84 M-1 14.2 C0.34 7.56, 7.38 3.54, 11.21 0.81 M-0.09 11.09 C2.78 8.2, 9.81 3.54, 10.77 0.97 M0.77 18.64 C6.28 11.78, 10.59 6.52, 12.91 -0.14 M0.8 17.89 C3.45 10.54, 9.14 7.76, 16.69 -0.36 M-3.55 25.44 C5.19 20.85, 11.26 9.76, 20.23 0.37 M1.79 25.55 C6.09 20.02, 11.06 10.88, 19.44 -0.27 M-0.46 27.19 C9.09 19.02, 14.67 10.12, 23.15 -3.26 M1.37 30.88 C6.6 21.32, 17.2 10.49, 27.14 0.39 M3.09 39.02 C10.95 24.15, 18 14.34, 28.3 -1.37 M-0.32 36.18 C7.76 28.81, 16.2 17.35, 32.66 -0.48 M3.38 41.58 C7.97 36.56, 12.28 22.82, 35.77 -2.66 M0.54 44.23 C9.72 29.35, 20.67 17.65, 38.48 -1.06 M3.78 47.36 C14.45 39.36, 19.55 22.1, 46.23 -4.12 M-0.45 47.49 C15.61 31.79, 32.82 12.38, 42.03 -0.71 M-2.77 51.61 C14.57 43.12, 25.59 28.2, 45.54 -0.87 M0.76 55.74 C16.37 33.51, 37.13 17.13, 48.47 1.03 M-1.12 62.44 C16.23 43.13, 40.92 16.46, 51.89 -4.03 M1.42 61.09 C11.14 48.11, 24.08 31.73, 52.03 -0.69 M-3.45 67.67 C25 44.28, 44.45 13.96, 60.41 -2.61 M0.73 65.58 C11.1 49.63, 24.28 33.61, 56.81 0.97 M2.61 69.27 C13.5 56.13, 22.5 38.27, 66.33 2.6 M-0.15 74.43 C22.12 47.25, 44.79 21.77, 62.07 -0.56 M-2.05 81.68 C24.1 44.91, 52.08 21.62, 65.54 -2.8 M0.03 79.23 C14.36 59.74, 35.25 41.51, 67.08 -0.31 M-1.63 86.69 C13.49 67.93, 28.85 49.13, 77.79 -0.75 M1.29 83.57 C22.8 59.05, 45.7 31.25, 72.42 1.16 M3.27 91.62 C21.35 62.69, 45.57 41.39, 83.26 1.46 M1.17 90.03 C29.85 59.6, 56.01 26.11, 80.78 -1.3 M-1.92 100.12 C34.81 59.67, 68.31 23.83, 85.71 1.23 M1.46 97.87 C31.23 60.79, 63.99 23.08, 86.29 1.51 M2.18 102.57 C25.85 73.25, 60.07 37.16, 89.09 -1.12 M-1.77 102.18 C33.25 66.38, 65.92 26.63, 91.31 -1.91 M0.82 110.49 C35.93 75.4, 64.24 39.33, 96.69 3.66 M-2.04 111.08 C28.48 76.89, 56.14 45.57, 95.78 -0.84 M-0.44 115.37 C28.18 88.33, 49.55 68.43, 103.75 -0.02 M2.18 117.43 C28.03 84.58, 57.61 50.63, 101.99 -1.42 M0.91 118.84 C26.31 88.36, 52.22 64.88, 104.55 1.46 M0.3 123.76 C29.83 89.04, 61.01 53.22, 107.91 0.34 M2.8 131.48 C40.59 84.57, 77.82 40.56, 109.12 1.11 M-1.75 129.92 C41.78 81.23, 82.1 29.17, 112.02 -0.55 M2.49 135.26 C27.74 95.18, 60.72 56.18, 117.62 2.14 M-1.41 134.33 C31.65 101.6, 60.55 66.26, 117.94 1.66 M-3.54 137.88 C36.84 98.01, 69.91 51.92, 124.3 -3.59 M-1.44 141.11 C39.57 93.08, 78.54 46.1, 122.53 0.59 M-1.11 143.64 C37.89 102.16, 74.48 59.83, 125.39 2.75 M0.81 145.81 C27.72 115.31, 53.19 84.34, 126 1.03 M-1.52 155.28 C38.82 105.4, 77.47 62.99, 129.87 -1.94 M0.13 154.11 C35.29 110.91, 71.61 67.31, 134.34 0.43 M-0.04 162.03 C57.75 100.19, 107.29 36.25, 138.44 -1.38 M-1.6 160.34 C28.65 123.96, 57.31 92.31, 138.98 0.24 M1.72 161.29 C39.63 116.7, 79.22 68.29, 142.46 -0.72 M1.42 165.5 C47.93 110.06, 89.42 59.95, 143.02 -1.58 M-1.05 173.3 C26.6 137.22, 58.94 102.82, 147.77 -0.59 M-1.78 171.18 C57.34 102.78, 115.48 34.33, 148.1 -0.05 M3.59 177.26 C52.85 113.5, 104.95 54.24, 156.78 -3.37 M0.44 175.17 C41.58 133.1, 78.34 88.39, 154.59 -0.53 M2.96 180.09 C43.45 133.77, 89 80.37, 158.58 2.83 M0.85 183.34 C62.86 114.41, 123.99 44.75, 160.04 1.89 M0.28 186.52 C49.22 135.67, 98.41 77.51, 165.98 -1.85 M-1.27 188.38 C45.77 138.13, 88.94 88.83, 162.86 -1.37 M-2.9 194.99 C68.23 115.38, 136.09 40.59, 171.5 0.42 M-0.71 194.59 C49.74 136.94, 99.44 80.17, 170.09 0.88 M-0.79 203.68 C61.51 130.29, 118.97 62.22, 177.67 -0.35 M-1.36 200.96 C42.04 156.39, 80.97 110.93, 174.97 -0.11 M0.43 205.55 C58.4 139.37, 112.5 79.99, 180.19 0.22 M-0.2 208.12 C51.67 143.79, 107.37 78.13, 181.02 -0.16 M-1.67 215.98 C79.69 127.02, 153.48 42.44, 184.15 1.91 M1.13 212.51 C68.29 138.71, 131.56 63.15, 186.41 1.11 M2.71 218.04 C79.43 136.55, 152.06 45.86, 193.55 3.08 M-0.41 218.89 C57.34 156.28, 113.39 91.83, 191.45 1.02 M-1.23 223.29 C62.1 153.63, 123.37 81.64, 197.26 1.05 M0.89 224.71 C76.09 144.71, 150.72 59.98, 196.1 -0.63 M-2.19 231.25 C73.69 142.85, 156.3 52.68, 201.32 0.91 M0.94 230.92 C73.21 144.53, 147.53 57.96, 200.83 -1.15 M0.92 239.6 C71.24 160.93, 137.38 78.34, 208.25 -2.16 M-0.35 237.27 C76.56 146.39, 155.65 55.62, 207.33 1.11 M-0.99 244.66 C49.82 187.25, 100.96 122.85, 213.63 -2.24 M-0.2 244.61 C41.3 193.31, 83.4 143.28, 210.71 -0.64 M1.15 250.24 C84.82 150.48, 170.28 55.74, 215.8 -0.3 M0.24 250.45 C76.65 164.49, 154.75 75.87, 217.4 -0.04 M-2.36 258.38 C65.53 179.47, 134 105.73, 222.52 -0.32 M1.22 255.98 C55.66 188.97, 112.48 121.7, 223.05 0.8 M-2.28 263.99 C51.69 204.6, 96.85 151.93, 227.5 0.99 M-0.33 263.33 C56.95 196.76, 114.18 131.71, 227.86 -1.24 M-0.08 265.97 C72.61 181.88, 148.75 101.85, 233.57 1.4 M0.45 267.2 C79.54 173.37, 161.5 79.63, 233.64 -1.23 M-0.55 275.15 C56.03 215.82, 110.78 157.71, 239.78 -1.19 M0.48 274.42 C71 190.8, 140.83 111.8, 239.32 -0.21 M1.3 278.67 C97.65 169.97, 195.38 60.43, 246.04 0.77 M0.14 279.98 C72.4 192.38, 147.1 103.66, 244.38 0.46 M-0.58 285.38 C62.53 219.18, 123.49 152.02, 249.79 1.74 M1.11 285.18 C78.42 196.89, 157.43 106.73, 248.09 0.78 M-1.84 293.04 C81.08 205.86, 157.9 115, 256.47 0.62 M0.82 291.63 C76.5 201.76, 156.93 110.65, 253.93 -0.17 M-1.77 300.58 C96.53 179.99, 197.6 68.66, 258.69 1.56 M-0.4 298.94 C55.83 240.02, 108.05 180.62, 258.47 0.99 M-0.07 304.75 C87.51 199.65, 175.36 99.43, 266.04 0.94 M1.08 305.61 C95.26 198.91, 189.49 90.57, 266.12 -0.48 M-0.29 310.91 C100.28 197.03, 199.94 83.96, 270.85 -1.58 M0.78 311.27 C64.38 238.59, 128.57 166.41, 269.06 -0.44 M0.59 316.95 C64.1 243.2, 129.93 166.78, 277.43 1.63 M-0.78 315.89 C99.13 202.33, 197.43 89.53, 275.02 -0.64 M-2.06 322.77 C109.23 198.27, 217.74 71.44, 282.13 1.78 M-0.55 322.45 C96.95 210.91, 196.19 97.04, 280.73 -0.8 M-0.14 329.11 C84.91 228.3, 172.76 128.95, 288.34 0.48 M-0.09 329.04 C80.33 233.54, 161.97 139.68, 286.36 -0.01 M1.86 333.38 C72.47 250.3, 144.57 165.91, 291.69 -1.58 M0 335.51 C86.98 233.9, 175.67 131.39, 291.15 0.45 M-0.63 340.51 C81.3 249.3, 157.71 156.87, 298.44 -0.53 M-0.53 341.79 C62.57 265.94, 127.78 191.83, 296.59 -0.16 M1.9 347.28 C79.26 257.75, 155.85 169.02, 303.2 1.01 M0.38 346.45 C91.16 240.6, 181.31 135.84, 302.15 -0.68 M-0.82 352.93 C62.39 276.44, 123.61 203.8, 307.13 -1.69 M0.37 354.21 C86.31 254.06, 172.29 156.09, 306.88 0.15 M0.69 359.17 C89.75 253.22, 180.99 148.71, 311.26 1.04 M1.1 359.87 C108.47 240.46, 213.31 120.36, 312.51 -0.03 M-0.16 365.34 C81.2 272.3, 163.99 177.89, 318.73 0.1 M0.27 365.16 C96.07 256.17, 193.97 143.58, 317.73 0.06 M1.02 372.15 C115.17 239.49, 228.05 111.52, 322.12 -0.86 M-0.22 371.64 C90.69 268.46, 181.54 164, 322.89 0.09 M-0.44 377.08 C92.45 266.56, 189.69 158.64, 329.84 -0.88 M-0.58 377.41 C127.4 231.99, 250.97 89.46, 328.25 -0.49 M0.36 384.97 C68.97 305.5, 138.67 226.1, 333.28 1.3 M-0.11 384.9 C128.07 237.07, 258.37 88.31, 334.58 -0.33 M-1.16 389.84 C73.02 305.73, 145.58 219.75, 338.98 -0.07 M0.25 390.35 C101.37 272.64, 204.48 154.25, 338.81 -0.15 M-1.01 395.42 C120.44 258.11, 238.83 122.29, 343.16 1.03 M0.64 396.5 C133.61 240.4, 267.36 84.93, 344 -0.33 M1.12 403.56 C109.5 278.89, 216.75 154.66, 349.9 -0.49 M-0.29 402.16 C108.04 276.42, 216.57 149.29, 349.53 0.57 M0.62 408.46 C83.33 313.78, 166.27 216.33, 355.49 0.76 M0.7 408.04 C73.81 326, 145.41 244.07, 354.8 -0.34 M1.11 415.05 C92.07 303.23, 187.92 191.62, 360.05 -1.08 M0.68 415.37 C132.45 262.22, 267.71 105.87, 360.43 0.35 M0.01 420.1 C86.42 319.9, 179.75 213.09, 364.83 0.45 M-0.7 421.74 C73.84 332.79, 151.48 243.73, 365.75 0.26 M1.62 427.31 C126.58 279.16, 253.4 132.47, 370.95 -0.19 M0.85 426.19 C102.05 308.77, 206.11 188.27, 371.52 0.8 M-0.02 432.04 C129.72 280.42, 263.15 131.18, 376.74 -0.12 M-0.45 433.37 C148.7 262.29, 296.64 93.18, 375.76 -0.12 M1.77 438.48 C95.62 330.14, 192.35 221.17, 376.99 6.6 M0.91 438.33 C130.38 282.4, 264.89 128.83, 375.53 7.76 M-0.56 444.95 C150.13 279.33, 295.94 111.01, 375.31 13.39 M0.57 445.62 C77.11 359.12, 151.62 273.04, 374.5 13.34 M0.52 451.42 C81.41 356.94, 162.19 263.41, 376.21 20.13 M-0.73 450.88 C131.02 297.93, 263.44 146.83, 375.95 19.46 M0.83 457.08 C85.42 358.2, 172.75 254.83, 374.06 27.03 M-0.68 457.83 C96.34 344.54, 193.27 232.09, 374.98 25.12 M0.86 462.61 C131.25 313.14, 262.18 162.14, 374.43 30.98 M0.26 464.12 C134.66 308.6, 268.42 156.23, 375.94 31.74 M1.49 469.8 C87.98 370.58, 173.54 272.32, 375.2 38.01 M0.29 469.22 C110.15 344.44, 217.76 221.68, 375.19 37.56 M1.1 474.76 C98.48 358.22, 200.51 242.81, 375.1 43.71 M-0.19 475.22 C105.96 355.42, 208.91 235.23, 375.35 43.96 M2.25 482.05 C116.75 343.1, 230.57 210.52, 374.07 48.28 M1 480.46 C139.78 321.4, 277.68 164.66, 376.13 49.26 M4.98 482.12 C102.06 373.97, 196.51 268.2, 375.28 57.32 M5.98 480.44 C137.82 327.86, 270.3 175.27, 375.59 56.22 M10.59 479.7 C133.6 341.99, 256.84 203.79, 376.06 60.53 M11.88 480.65 C109.17 369.89, 207.23 255.28, 375.56 61.46 M15.89 481.6 C140.1 340.44, 263.1 199.29, 376.19 68.23 M16.37 480.59 C117.92 364.15, 216.77 249.79, 374.83 68.34 M20.99 481.6 C135.59 348.37, 249.04 215.32, 375.22 74.12 M21.48 479.83 C143.89 334.96, 268.59 193.25, 374.54 74.79 M26.42 479.37 C162.36 320.9, 300.95 162.07, 374.53 81.6 M27.65 480.46 C106.1 392, 185.74 300.49, 376.28 80.82 M32.69 479.24 C106.09 395.03, 180.83 307.15, 374.41 86.88 M32.54 479.76 C110.99 385.85, 193.12 292.07, 376.09 87.07 M37.44 480.29 C117.34 389.51, 195.98 299.45, 376.3 91.33 M37.86 480.64 C120.78 385.94, 205.45 288.9, 375.51 91.59 M44.59 481.6 C160.56 348.49, 272.99 220.74, 376.61 98.02 M43.39 479.6 C154.75 351.43, 266.18 222.91, 375.57 98.6 M48.67 481.92 C150.29 359.4, 253.64 240.86, 375.32 104.8 M49.01 480.31 C147.72 368.8, 246.59 256.72, 374.99 105.59 M53.62 481.67 C154.07 362.15, 256.41 246.94, 376.36 109.9 M53.48 479.98 C164.09 357.52, 273.6 232.25, 375.41 109.94 M60.42 479.2 C140.5 390.52, 221.56 297.98, 376.74 115.77 M59.9 481.39 C175.21 347.51, 291.84 211.93, 374.68 116.47 M65.58 480.86 C169.91 356.98, 279.11 231, 376.63 124.26 M63.63 481.37 C163.73 369.24, 259.74 258.49, 375.59 121.95 M68.1 479.33 C159.86 376.2, 250.83 272.92, 374.99 130.26 M69.92 481.05 C190.15 346.22, 307.08 209.88, 375.53 129.86 M76.26 482.01 C186.41 351.58, 296.56 225.86, 373.4 133.7 M74.6 481.76 C135.96 411.95, 196.32 343.2, 375.42 135.82 M82.02 480.61 C149.35 400.15, 217.32 316.57, 375.13 141.18 M80.22 480.84 C163.26 379.59, 248.99 281.53, 376.07 141.01 M85.6 481.26 C161.07 390.21, 241.8 297.13, 374.35 149.27 M85.46 481.99 C181.22 364.81, 281.46 251.26, 375.17 146.87 M89.06 479.74 C182.33 378.19, 277.42 270.35, 377 151.86 M91.2 480.98 C195.71 361.15, 299.8 241.04, 375.95 154.01 M96.1 481.21 C167.76 391.34, 242.53 308.57, 374.75 158.89 M95.31 482 C188.35 373.69, 280.84 267.16, 374.92 159.63 M103.79 482.23 C196.67 374.34, 294.62 262.97, 374.88 164.99 M101.08 481 C188.31 380.45, 276.28 278.46, 374.6 166.93 M105.95 482.71 C200.64 374.38, 291.91 268.94, 376.82 172.06 M105.77 480.39 C209.73 363.33, 307.8 250.3, 376.62 172.42 M110.74 480.02 C201.86 381.05, 290.46 276.87, 374.81 176.77 M113.34 480.62 C165.69 421.1, 220.84 357.36, 375.1 176.97 M119.43 482.07 C174.82 417.18, 227.11 354.82, 374.68 182.89 M118.18 479.89 C200.89 388.67, 284.24 294.7, 375.65 184.69 M125.11 478.65 C194.12 397.49, 263.4 318.98, 376.66 192.13 M122.61 481.07 C190.25 395.68, 259.81 315.77, 374.7 189.08 M126.63 481.98 C208.62 381.8, 295.54 285.35, 373.45 198.23 M127.41 479.89 C184.49 417.18, 236.88 356.9, 374.2 196.87 M133.62 478.52 C226.5 375.48, 316.97 268.62, 378.01 201.09 M133.56 479.24 C215.64 389.29, 298.81 292.45, 375.17 203.05 M137.99 480.5 C215.53 389.37, 296.37 298.15, 377.07 209.79 M139.27 481.92 C230.85 371.48, 327.55 263.06, 374.42 208.76 M141.94 481.23 C196.31 419.22, 243.36 365.78, 375.47 214.95 M143.94 480.85 C199.52 422.6, 250.5 363.72, 376.63 214.49 M149.54 483.13 C232.01 386.22, 314.12 294.64, 375.51 219.43 M148.11 480.91 C232.91 386.89, 316.03 289.7, 375.26 220.4 M154.9 481.77 C204.32 424.44, 249.77 369.93, 377.33 226.15 M155.07 479.6 C214.14 411.17, 275.35 338.97, 375.1 226.72 M158.78 479.73 C225.24 408.58, 287.27 333.71, 375.06 235.17 M160.23 481.59 C223.68 401.09, 291.65 323.85, 376.18 232.74 M167.79 481.14 C233.89 405.45, 298.91 328.65, 378 237.31 M165.62 481.1 C230.15 403.36, 294.66 331.28, 374.24 239.64 M167.91 478.27 C251.78 387.06, 331.52 294.65, 375.4 242.05 M169.39 482.12 C254.28 387.28, 336.55 291.67, 375.04 244.44 M178.14 479.71 C240.84 400.84, 308.52 320, 376.91 248.04 M174.75 481.45 C219.11 433.44, 261.66 384.38, 375.39 249.49 M181.86 482.01 C228.67 424.82, 281.72 371.98, 376.36 260.24 M182.33 480.01 C233.8 423, 286.92 362.89, 374.56 256.64 M186.14 482.91 C228.96 427.36, 275.42 374.99, 373.59 265.91 M186.55 481.72 C252.16 407.45, 318.43 331.15, 375.45 264.32 M193.41 479.16 C228.53 432.57, 265.8 392.33, 377.62 272.22 M192.16 479.78 C257.19 406.64, 320.15 331.62, 375.3 268.71 M193.88 479.06 C230.05 441.04, 266.58 397.01, 376.21 274.52 M195.66 479.89 C271.38 398.22, 340.31 317.85, 376.26 274.34 M203.11 481.43 C259.2 414.82, 314.94 347.65, 377.6 280.78 M202.82 479.95 C261.39 412.4, 320.56 345.38, 375.64 281.31 M205.5 481.18 C268.54 409.78, 331.11 338.62, 373.46 284.66 M206.29 481.29 C248.96 433.01, 290.06 382.82, 376.79 286.52 M210.98 479.12 C256.64 432.33, 298.35 381.61, 372.96 293.06 M212.99 480.13 C266.96 421.16, 320.57 358.06, 376.05 294.83 M216.7 482.31 C266.43 417.1, 318.28 361.15, 377.16 299.59 M218.2 482.54 C276.46 413.72, 334.26 348.02, 376.96 299.45 M226.5 481.34 C274.66 412.49, 331.37 352.36, 374.49 305.2 M223.66 479.51 C265.23 432.92, 306.87 384.51, 376.98 305.08 M230.45 482.96 C258.42 442.28, 295.6 407.63, 377.21 314.89 M227.55 481.98 C288.6 411.47, 345.95 344.83, 375.37 311.9 M231.75 480.75 C281.73 423.39, 331.6 365.24, 377.31 318.61 M233.2 482.09 C277.24 427.32, 325.34 372.92, 376.45 319.14 M240.53 481.76 C271.18 451.35, 297.62 418.52, 372.85 324.55 M238.8 481.82 C288.69 425.47, 331.63 375.35, 377.29 324.81 M245.46 483.66 C288.79 435.37, 324.22 396.09, 379.37 326.58 M246.18 481.25 C287.15 434.13, 330.13 387.03, 374.07 330.53 M248.18 478.66 C282.03 449.55, 305.67 417.82, 377.28 332.26 M249.57 479.52 C274.69 448.07, 303.12 417.27, 374.77 337.16 M258.19 476.84 C302.21 426.68, 355.06 372.94, 371.73 346.07 M256.94 481.98 C284.56 447.34, 310.71 415.89, 377.13 342.34 M260.27 479.81 C284.36 449.37, 308.36 426.02, 377.12 351.85 M258.95 480.78 C305.37 433.09, 350.39 382.55, 376.47 347.67 M269.78 478.89 C286.56 459.48, 310.76 428.85, 372.71 355.33 M266.18 481.91 C305.12 435.22, 341.16 388.23, 373.96 356.05 M269.26 477.29 C306.93 438.86, 346.82 401.18, 374.45 358.49 M269.94 482.18 C296.1 450.66, 317.92 422.93, 374.76 358.85 M279.59 480.17 C303.2 448.76, 327.26 427.53, 373.52 370.4 M275.62 480.09 C312.39 441.04, 348.97 397.2, 374.62 365.6 M280.59 476.86 C313.69 443.09, 337.13 412.67, 372.91 369.38 M283.46 480.82 C305.21 452.89, 331.88 421.69, 374.74 370.94 M290.17 478.86 C315.54 444.76, 335.99 415.21, 373.9 377.86 M285.9 479.14 C321.46 440.77, 352.56 400.74, 376.41 380.29 M292.92 478.11 C314.68 454.74, 338.55 434.5, 375.99 388.76 M292.36 480.36 C316 454.82, 336.8 428.48, 375.08 385.04 M294.62 477.72 C316.68 462.89, 332.07 440.04, 372.75 391.86 M297.91 480.01 C325.41 447.19, 353.18 416.08, 376.51 391.75 M302.09 478.44 C326.94 456.71, 346.28 430.13, 374.37 396.68 M303.38 481.05 C321.6 457.85, 340.75 436.42, 377.37 397.83 M307.16 477.03 C330.05 452.45, 351.09 427.95, 376.19 406.61 M309.42 481.02 C327.36 459.45, 344.3 439.61, 374.06 404.46 M313.1 477.07 C335.99 454.36, 359.6 425.22, 373.26 409.76 M315.17 481.75 C335.61 455.22, 357.81 425.13, 375.41 408.33 M315.27 483.17 C336.96 464.78, 349.78 442.62, 372.17 413.38 M317.11 480.32 C334.17 464.46, 349.34 443.56, 374.73 414.75 M328.19 479.02 C336.52 472.43, 346.28 457.96, 375.02 418.19 M324.3 481.92 C337.49 468.37, 346.99 455.59, 375.92 420.92 M326.24 477.57 C342.75 466.53, 354.22 444.47, 373.85 429.27 M329.25 482.9 C343.71 466.27, 354.94 452.5, 376.12 425.54 M334.73 483.13 C344.24 472.25, 353.67 454.37, 379.25 434.2 M335.22 479.59 C345.77 464.97, 358.01 452.01, 376.52 431.81 M338.56 477.48 C352.38 468.62, 368.02 446.62, 374.89 437.92 M339.02 479.35 C352.22 468.22, 361.23 453.37, 377.06 441.08 M349.32 478.04 C357.12 470.49, 362.47 459.28, 373.37 445.11 M346.31 481.4 C357.19 468.74, 370.29 453.14, 374.43 444.06 M353.93 483.95 C353.88 476.42, 365.2 470.39, 372.15 454.55 M350.48 479.86 C357.73 472.33, 365.01 465.51, 374.27 453.98 M357.73 478.21 C365.47 468.93, 365.83 463.71, 376 458.02 M355.86 480.58 C360.38 474.93, 367.42 467.54, 375.74 458.32 M357.19 477.84 C362.31 474.51, 372.65 470.83, 373.66 462.42 M360.61 480.2 C367.26 477.47, 368.45 471.94, 376.4 463.69 M366.86 480.12 C369.96 474.68, 372.65 474.03, 375.93 471.94 M367.58 479.49 C369.53 477.44, 373.29 473.68, 376.28 471.26 M370.74 480.53 C372.57 479.18, 374.03 479.91, 374.97 476.77 M372.21 480.5 C373.41 478.65, 374.51 477.32, 375.97 476.06" stroke="#ced4da" stroke-width="0.5" fill="none"></path><path d="M-0.85 -2.05 C81.67 1.55, 164.62 0.76, 373.29 0.68 M-0.63 0.14 C132.71 2.49, 264.55 3.32, 375.37 0.25 M375.31 0.38 C374.86 109.25, 374.5 219.41, 375.65 481.62 M373.73 -0.61 C376.36 101.24, 375.96 201.78, 374.31 480.61 M373.63 479.51 C263.9 477.87, 153.93 480.47, 1.82 481.18 M373.48 479.37 C226.04 480.55, 75.04 480.56, 0.09 480.76 M1.34 478.51 C-1.24 352.44, -0.27 226.54, -1.72 0.05 M-0.6 479.73 C3.21 343.18, 4.22 206.34, -0.66 -0.34" stroke="#000000" stroke-width="1" fill="none"></path></g><g stroke-linecap="round" transform="translate(1910 330) rotate(0 187.22222900390625 240)"><path d="M0 0 C0 0, 0 0, 0 0 M0 0 C0 0, 0 0, 0 0 M0.48 5.25 C0.18 3.89, 3.92 2.36, 5.46 0.17 M-0.65 6.23 C0.23 4.42, 2.02 4.31, 5.58 0.91 M2.81 9.95 C5.04 8.3, 6.35 5.38, 12.69 2.64 M0.32 11.5 C2.26 7.37, 6.61 4.45, 9.57 -0.09 M1.43 15.52 C5.51 12.78, 4.86 9.18, 17.91 3.57 M-2.01 18 C3.68 11.69, 8.2 8.27, 16.07 0.72 M0.14 22.19 C11.72 12.39, 14.8 4.57, 21.01 3.83 M-0.9 23.15 C7.19 15.48, 12.4 11.95, 20.17 -0.39 M1.95 30.91 C5.03 22.18, 9.63 18.56, 25.96 -2.75 M1.59 30.33 C4.43 22.9, 12.64 15.55, 25.9 0.78 M3.49 40.85 C13.83 25.67, 25.48 9.79, 32.34 -1.23 M1.4 36.14 C10.45 21.89, 20.68 11.55, 30.67 1.31 M-2.1 40.99 C9.76 28.14, 26.98 15.52, 38.7 -2.95 M-0.58 42.49 C12.15 27.4, 21 17.7, 38.7 1.24 M-3.03 46.28 C6.71 40.54, 14.72 32.36, 43.99 2.33 M-1.53 47.05 C9.61 40.42, 18.35 30.13, 43.14 -0.43 M-0.16 58.22 C14.4 33.2, 38.41 15.64, 50.35 -1.71 M0.89 55.91 C15.76 34.57, 33.23 17.88, 47.83 0.37 M3.9 64.78 C13.2 42.02, 28.58 23.29, 56.57 -2.08 M-1.86 61.78 C20.86 39.23, 37.45 17.41, 53.46 0.84 M-2.51 64.99 C9.82 54.7, 26.32 38.01, 60.92 3.44 M0.39 68.69 C19.64 48.1, 36.55 25.9, 59.25 1.35 M-1.94 73.09 C16.93 52.51, 32.54 41.15, 62.53 -1.88 M1.47 74.37 C22.19 47.64, 46.04 19.35, 65.14 1.5 M-1.67 78.64 C24.53 58.55, 43.03 28.82, 72.26 2.19 M1.85 78.56 C19.64 55.84, 40.48 35.45, 69.49 -1.77 M3.02 83.15 C19.05 60.17, 34.99 40.68, 74.1 0.7 M0.14 85.78 C22.98 59.6, 45.44 30.06, 75.26 -2.17 M3.7 87.94 C27.88 58.53, 53.38 23.62, 76.01 -0.6 M0.82 93.43 C23.63 65.33, 45.25 37.56, 79.69 2.02 M-0.47 98.81 C37.52 54.48, 65.97 21.28, 87.34 0.62 M1.74 98.6 C16.44 78.42, 35.94 54.2, 84.5 0.01 M-0.59 102.11 C40.39 63.57, 73.78 19.18, 89.64 3.13 M1.11 102.36 C32.12 65.31, 69.02 27.09, 89.58 -1.42 M-3.88 108.89 C36.8 64.92, 71.03 26.95, 94.11 2.03 M-1.54 108.1 C34.16 75.14, 64.45 36.4, 95.15 -1.88 M-0.93 115.53 C35.37 80.1, 63.95 44.29, 104.42 -3.38 M0.14 114.32 C23.61 85.34, 47.04 61.14, 99.49 -1.28 M-2.85 119.62 C36.3 83.37, 70.15 38.91, 110.11 -1.74 M1.07 120.7 C24.35 94.06, 49.08 64.76, 105.07 0.18 M-0.54 128.55 C27.89 93.08, 61.78 50.6, 113.44 -1.71 M-1.78 128.92 C42.57 79.15, 85.92 32.13, 112.32 0.14 M1.46 131.68 C49.68 80.69, 95.03 23.43, 114.15 0.6 M-0.38 132.97 C44.17 79.95, 87.26 29.22, 117.08 -1.17 M3.14 140.43 C48.45 87.32, 91.84 34.69, 123.6 1.77 M-0.72 139.45 C25.04 110.55, 51.2 80.27, 123.6 1.44 M-2.29 144.93 C42.85 91.86, 85.01 44.67, 126.88 -0.76 M0.75 146.39 C48.6 90.78, 97.83 38.81, 127.54 -1.62 M2.24 150.15 C40.02 102.85, 83.85 54.31, 135.28 3.45 M0.74 151.44 C43.85 102.64, 84.2 54.13, 131.55 0.11 M-0.31 155.62 C29.6 123.91, 57.71 90.19, 138.59 3.42 M0.88 158.19 C29.19 124.49, 60.51 87.8, 136.57 1.18 M2.12 164.12 C48.96 114.31, 93.34 55.71, 140.39 0.46 M-1.16 165.07 C33.25 126.7, 62.69 90.95, 142.59 -1.2 M-2.6 171.15 C33.4 128.46, 76.52 88.02, 148.58 -2.99 M-0.36 171.75 C46.42 120.47, 90.08 69.53, 148.06 -0.66 M-0.32 178.87 C43.77 128.72, 86.73 78.5, 153.18 -0.86 M0.13 175.6 C57.19 112.25, 112.09 45.24, 154.07 -1.47 M2.53 183.08 C41.17 131.51, 85.83 81.31, 159.28 0.38 M0.19 184.42 C38.15 138.49, 78.56 93.43, 159.94 -0.29 M1.41 186.52 C64.18 114.91, 127.12 42.07, 164.91 -1.98 M1.18 189.31 C59.49 117.83, 124.78 42.87, 164.21 1.02 M-1.77 195.45 C40.22 149.43, 83.27 98.36, 166.26 3.35 M-0.05 193.94 C39.66 147.95, 79.02 97.88, 170.1 0.01 M2.1 201.07 C43.85 152.51, 85.22 104.62, 175.63 -1.69 M0.55 201.54 C37.81 155.46, 78.46 107.38, 173.52 0.59 M2.26 208.07 C46.02 152.24, 94.58 101.77, 181.03 -2.09 M1.8 206.85 C53.54 148.34, 105.16 90.25, 181.07 1.29 M-1.71 213.32 C44.45 158.37, 91.14 111.31, 183.76 0.44 M-0.55 213.28 C67.52 129.95, 137.94 51.41, 185.95 -0.92 M-2.2 220.89 C57.86 158.65, 110.47 93.73, 189.46 -0.98 M-0.96 218.27 C64.32 144.14, 124.86 73.59, 191.72 -0.12 M-0.77 224.28 C67.23 142.61, 142.34 63.01, 195.13 1.22 M-0.78 226.14 C60.01 160.22, 120.68 92.84, 195.06 0.24 M2.37 234.05 C62.11 157.72, 126.16 85.53, 199.42 -2.63 M1.17 232.56 C78.46 142.1, 157.18 51.52, 202.24 1.23 M-1.44 235.71 C66.22 164.27, 126.37 88.15, 207.58 -2.67 M-0.71 238.6 C73.43 152.46, 148.66 64.34, 207.04 -0.55 M-0.07 243.57 C81.74 149.54, 163.67 58.26, 212.02 -0.35 M1.1 245.04 C49.16 192.08, 97.12 137.1, 212.52 0.22 M0.97 247.96 C55.28 187.32, 105.33 126.67, 214.99 -0.97 M0.99 251.41 C72.77 166.5, 144.48 83.95, 218.08 0.15 M-0.09 258.23 C69.29 178.48, 138.09 99.52, 220.01 1.68 M0.38 255.65 C50.28 203.63, 97.38 149.09, 223.51 0.42 M-0.93 259.92 C54.63 198.53, 106.78 132.4, 226.45 -1.19 M0.46 263 C59.77 195.37, 118.67 126.27, 227.93 0.65 M-1.3 269.59 C48.92 213.61, 97.76 156.43, 232.55 -1.92 M0.76 267.53 C72.27 183.01, 144.08 99.62, 233.21 0.98 M-0.2 275.96 C50.72 216.96, 102.69 162.49, 240.12 -1.91 M-0.03 275.29 C96.05 168.77, 189.32 58.69, 237.33 -0.42 M-1.4 283.05 C83.16 184.59, 170.94 87.15, 244.95 -0.17 M-0.3 280.96 C71.69 199.7, 144.56 114.85, 243.37 1.09 M2.23 285.37 C94.66 177.81, 186.66 70.11, 250.11 0.23 M0.55 286.76 C72.88 202.41, 143 120.13, 249.18 1.41 M2.12 291.12 C78.87 201.76, 157.78 113.85, 253.11 0.38 M-0.35 292.17 C79.92 204.26, 157.41 113.8, 255.22 -1.13 M0.86 300.59 C52.28 232.7, 110.48 170.2, 260.02 -1.9 M0.52 297.27 C72.82 216.13, 144.56 133.48, 258.7 -0.23 M1.58 304.87 C57.61 234.5, 117.24 168.41, 264.82 -0.61 M0.11 303.95 C86.05 212.39, 167.41 117.38, 266.16 -0.56 M1.34 311.41 C84.57 211.37, 168.8 112.4, 272.2 2.25 M-1.3 311.82 C57.05 244.38, 112 182.62, 269.38 0.2 M-1.39 315.28 C90.14 216.81, 179.14 112.19, 277.82 -0.61 M-0.62 316.31 C65.47 239.28, 129.77 164.29, 275.98 -0.5 M1.74 322.55 C85.49 224.52, 173.01 122.57, 281.17 2.13 M-0.05 322.89 C83.62 228, 166.74 131.45, 281.29 0.44 M-0.42 328.73 C57.57 259.45, 114.76 194.58, 288.1 -1.02 M-0.57 328.7 C71.19 245.74, 144.56 161.49, 287.36 0.32 M0.63 336.48 C104.71 214.61, 209.58 94.95, 293.28 0.6 M-0.64 336.21 C86.14 236.62, 171.52 138.19, 290.79 1.06 M0.21 343.06 C105.39 218.37, 211.29 96.31, 296.21 -0.46 M-0.44 341.86 C83.74 247.5, 165.42 153.14, 296.48 0.03 M1.08 345.75 C70.8 266.76, 142.28 184.8, 303.24 1.54 M0.8 347.32 C88.67 245.15, 179.6 141.26, 301.79 0.13 M-0.32 352.22 C74.58 270.21, 148.39 186.78, 307.99 -0.96 M0.39 353.77 C81.81 265.25, 160.61 174.48, 308.31 -1.12 M0.15 359.1 C74.59 270.92, 152.9 180.87, 312.93 0.59 M0.97 359.69 C108.38 233.25, 218.32 107.46, 312.4 0.07 M1.6 366.75 C127.28 220.07, 248.15 78.94, 317.71 -1.86 M-0.75 365.17 C95.76 256.16, 191.52 146.85, 318.04 -0.36 M1.42 373.02 C113.99 235.56, 233.87 98.74, 324.63 -1.03 M-0.22 372.63 C79.73 279.08, 161.82 186.04, 323.82 0.67 M0.36 376.31 C106.81 249.89, 217.29 123.87, 328.82 1 M0.45 377.24 C116.91 242.62, 234.46 108.21, 328.95 -0.41 M-1.52 383.09 C78.64 290.91, 158.01 198, 332.98 0.46 M-0.38 383.43 C104.35 265.03, 207.39 144.2, 334.13 0.55 M-0.17 390.68 C94.26 281.84, 186.19 178.14, 340.99 0.83 M-0.01 389.71 C111.74 260.61, 222.18 135.45, 338.91 0.4 M-0.64 395.65 C136.25 240.52, 267.97 88.52, 343.26 0.35 M0.59 395.59 C84.9 299.83, 167.11 205.52, 344.19 -0.36 M0.35 402.09 C133.74 249.9, 268.75 96.34, 348.56 1.92 M-0.68 402.77 C115.81 268.78, 233.44 133.99, 349.09 1.15 M1.25 407.02 C82.98 312.79, 165.28 215.68, 356.53 0.15 M0.97 408.58 C86.51 312.97, 169.42 218.23, 355.01 -0.28 M0.23 416.22 C117.97 277.55, 237.06 139.9, 360.51 1.91 M0.42 414.68 C105.72 296.16, 207.34 179.64, 360.84 1.05 M0.68 419.6 C93.41 320.08, 185 213.51, 365.02 -0.56 M-0.21 421.79 C103.03 297.73, 207.32 176.47, 365.47 0.57 M-0.24 426.29 C129.29 275.89, 262.32 124.67, 369.37 1.14 M-0.44 427.13 C105.4 305.42, 213.65 180.78, 370.99 -0.11 M0.85 433.99 C80.49 342.3, 160.16 249.44, 375.46 1.42 M0.29 432.34 C106.73 305.11, 217.09 178.14, 375.6 -0.09 M-1 437.27 C141.36 276.49, 285.56 112.79, 375.17 8.11 M0.29 438.21 C89.13 336.55, 179.87 232.95, 375.76 7.51 M-0.27 445.53 C140.91 290.5, 276.95 129.44, 376.46 14.74 M0.4 445.15 C125.78 298.84, 251.59 153.28, 375.72 13.54 M1.27 452.91 C110.23 321.48, 222.4 192.22, 377.07 20.26 M0.14 451.13 C95.11 345.37, 187.25 238.93, 376.03 18.97 M0.66 455.67 C90.42 348.12, 183.83 241.7, 376.81 26.76 M-0.68 457.96 C144.59 286.21, 294.41 115.51, 375.74 25.51 M1.4 464.81 C111.62 337.1, 219.65 210.82, 374.23 30.14 M0.45 463.99 C139.95 303.9, 282.39 140.13, 375.78 31.14 M0.52 467.95 C92.2 365.35, 184.41 258.26, 374.18 36.5 M0.91 469.26 C95.63 362.86, 189.35 255.46, 374.84 37.8 M-0.64 474.5 C118.71 334.69, 240.06 195.66, 374.89 43.21 M0.05 475.13 C131.76 326.76, 261.39 176.41, 376 43.69 M1.56 479.22 C98.46 366.12, 200.4 251.2, 375.63 48.32 M0.7 479.96 C138.85 320.16, 278.61 160.59, 376.27 48.8 M7.23 482.02 C87.07 388.5, 172.26 293.74, 376.39 55.16 M6.13 480.51 C84.9 392.35, 162.5 302.45, 374.67 56.38 M11.29 481.81 C106.76 372.82, 197.44 265.46, 376.14 61.43 M12.21 480.32 C90.83 383.28, 173.22 288.87, 376.32 61.28 M17.77 481.02 C98.26 390, 173.72 298.49, 375.61 67.59 M16.53 480.72 C114.06 370.24, 210.15 259.71, 374.84 68.01 M22.91 480.79 C121.28 364.3, 222.14 249.01, 375.56 75.49 M22.56 480.85 C153.35 329.88, 285.87 177.21, 375.66 74.29 M26 481.36 C100.57 397.65, 171.11 317.72, 376.43 80.23 M27.63 480.54 C155.46 333.09, 285.28 183.28, 375.27 80.56 M33 481.59 C119.75 385.12, 205.01 285.88, 376.45 85.95 M33.33 479.89 C165.48 332.51, 295.31 182.78, 374.78 85.82 M38.65 479.32 C126.66 380.74, 212.6 281.8, 374.65 93.3 M38.25 480.58 C110.68 397.63, 182.37 316.1, 375.33 92.81 M42.86 480.52 C166.71 332.78, 294.9 190.11, 375.31 99.82 M43.57 480.56 C139.79 369.49, 235.22 257.95, 375.61 98.06 M48.79 480.45 C155.37 355.05, 264.88 230.54, 374.93 103.42 M49.05 480.23 C121.86 398.21, 196.79 311.81, 375.2 105.03 M53.68 479.13 C163.06 354.08, 273.79 225.17, 376.45 111.88 M53.74 480.33 C167.76 351.13, 280.89 221.7, 375.4 110.41 M59.84 482.06 C176.77 344.86, 294.52 208.03, 375.88 118.39 M58.46 480.01 C152.14 370.42, 246.72 262.23, 376.11 116.79 M64.45 480.29 C165.68 367.49, 264.21 253.33, 376.89 122.78 M64.36 480.54 C163.89 367.48, 262.37 254.9, 376.52 122.65 M71.15 480.78 C193.8 339.29, 316.72 200.17, 373.66 127.22 M70.22 481.02 C150.78 387.25, 229.59 297.24, 375.3 129.13 M75.99 480.17 C173.93 366.88, 274.14 248.93, 376.96 135.45 M74.31 481.27 C170.82 375.49, 265.14 268.4, 374.95 134.75 M78.93 481.59 C196.29 347.03, 315.99 210.25, 373.87 142.94 M80.63 480.19 C194.89 351.12, 306.69 224.22, 374.82 140.51 M84.89 481.2 C180.49 370.3, 281.06 254.69, 374.07 146.8 M84.65 481.21 C195.97 355.81, 306.63 227.73, 376.04 146.63 M89.66 482.11 C161.6 402.33, 232.01 318.35, 375.18 151.67 M91.47 480.3 C168.23 387.25, 246.44 296.99, 374.94 154.01 M96.12 479.74 C183.85 378.76, 268.37 279.7, 376.4 161.42 M95.25 480.91 C193.32 367.94, 292.06 254.61, 375.01 160.29 M103.72 481.11 C161.42 414.88, 219.21 343.93, 377.34 167.85 M102.09 479.91 C162.89 413.64, 222.81 343.71, 376.21 165.58 M104.63 480.83 C199.6 374.29, 295.78 269.59, 375.87 170.34 M106.76 481 C201.46 375.94, 294.5 267.17, 375.98 171.05 M111.16 481.16 C166.33 417.7, 227.65 348.16, 377.42 177.97 M111.98 480.04 C172.59 411.06, 230.17 344.63, 374.35 177.91 M118.04 479.72 C168.77 420.3, 222.31 358.24, 377.56 183.04 M117.45 481.03 C194.89 394.75, 269.48 309.16, 376.16 184.21 M124.8 482.54 C221.52 367.54, 318.87 253.72, 376.71 187.89 M122.1 481.24 C204.96 387.49, 287.73 289.95, 374.78 189.73 M128.46 481.09 C209.44 387.81, 291.4 290.03, 375.93 196.69 M128.61 480.42 C224.69 371.49, 321.75 261.68, 374.34 195.37 M133.87 480.07 C205.26 393.48, 278.21 306.66, 377.45 202.07 M133.97 479.78 C217.08 382.82, 300.88 286.23, 374.61 202.23 M136.44 478.63 C196.07 415.72, 253.02 347.81, 377.75 207.45 M138.98 479.66 C199.75 408.94, 262.39 337.41, 375.35 208.78 M142.23 480.07 C231.02 387.64, 314.11 289.83, 374.45 216.19 M143.29 480.87 C221.26 391.64, 296.06 304.87, 376.62 214.19 M150.46 481.47 C226.18 393.18, 310.7 299.32, 376.81 218.1 M148.16 481.92 C198.12 422.57, 248.03 366.86, 375.17 219.47 M153.01 478.65 C243.95 378.75, 334.38 280.02, 376.94 229.35 M153.48 480.51 C212.57 413.64, 266.44 350.09, 375.03 226.2 M158.41 481.96 C231.63 395.7, 300.74 316.91, 373.33 233.21 M160.88 481.24 C236.9 398.76, 310.33 311.14, 374.35 233.64 M165.55 479.1 C219.76 418.62, 272.85 359.61, 378.07 238.95 M164.77 481.63 C242.46 392.33, 320.08 303.96, 374.7 239.33 M171.62 483.36 C239.28 399.24, 307.93 316.66, 377.45 246.1 M169.54 482 C223.38 424.36, 274.57 363.36, 376.85 244.94 M176.77 479.58 C221.14 421.74, 267.14 368, 373.36 248.3 M174.3 480.32 C225.47 426.08, 274.12 370.36, 375.9 249.96 M179.49 481.5 C224.01 429.78, 268.26 380.31, 377.95 258.04 M179.78 481.82 C246 404.79, 308.82 331.69, 376.63 257.77 M186.55 483.97 C236.33 422.07, 287.15 366.85, 373.33 261.26 M185.75 480.94 C243.77 413.86, 301.97 349.73, 374.89 262 M191.09 478.6 C250.52 410.97, 305.3 344.58, 374.42 267.5 M190.21 480.94 C238.58 425.54, 287.16 370.99, 375.41 269.38 M197.14 479.91 C246.91 424.97, 295.93 368.71, 377.5 273.83 M195.46 482.33 C260.26 412.17, 321.52 341.81, 376.37 275.23 M204 481.38 C272.75 401.14, 340.28 325.02, 378.5 284.12 M202.02 481.17 C259.72 417.85, 315.92 353.84, 375.06 281.46 M206.88 480.73 C249.39 434.24, 284.6 389.33, 374.75 289.55 M208.52 481.42 C270.41 414.3, 331.49 342.08, 376.71 286.83 M211.98 478.78 C271.78 414, 332.9 346.38, 376.14 291.12 M211.32 481.22 C266.26 422.28, 315.73 366.29, 375.69 292.48 M218.72 481 C283.24 411.02, 339.33 336.89, 374.33 301.08 M217.89 482.09 C266.08 420.57, 319.11 359.88, 376.79 299.45 M221.35 482.92 C278.12 421.88, 328.54 354.9, 373.19 305.99 M223.54 481.23 C280.99 414.53, 337.32 348.66, 376.21 306.6 M230.7 484.16 C276.91 421.98, 326.24 363.06, 374.13 310.45 M228.12 480.99 C262.93 437.95, 296.86 398.69, 376.85 311.64 M235.65 480.6 C266.57 444.67, 304.82 404.1, 373.8 320.64 M235.69 481.28 C263.24 447.86, 293.29 411.98, 375.25 319.55 M238.62 479.16 C291.79 423.39, 337.69 365.62, 372.36 323.74 M237.8 482.18 C278.34 441.26, 316.58 395.55, 374.01 322.57 M244.17 483.51 C287.82 432.09, 320.55 386.93, 371.5 333.98 M243.96 479.44 C280.2 439.82, 317.06 401.52, 375.71 330.38 M246.48 478.18 C291.33 429.33, 343.43 368.38, 377.95 334.12 M251.55 482.06 C277.08 449.07, 303.11 420.75, 377.6 334.8 M253.38 482.57 C296.04 425.07, 339.13 376.03, 378.94 345.2 M257.15 481.44 C288.06 443.73, 325.87 399.7, 375.37 341.23 M257.74 480.04 C293.41 439.14, 329.02 404.43, 376.84 347.62 M259.32 480.76 C280.12 454.18, 304.38 430.21, 373.75 350.49 M262.8 481.5 C300.13 436.96, 335.14 405.38, 378.87 357.2 M264.55 479.18 C292.28 448.52, 323.52 417.81, 375.24 352.93 M269.03 477.33 C296.1 455.01, 316.95 423.95, 375.29 361.36 M273.04 481.94 C295.07 455.4, 318.74 424.38, 375.09 360.8 M275.53 477.2 C302.75 449.22, 329.01 418.8, 376.08 363.71 M276.8 480.37 C295.38 454.83, 319.13 429.1, 376.87 367.01 M282.88 478.02 C307.05 456.56, 328.52 432.52, 377.83 371.93 M281.41 482.02 C302.41 452.84, 325.25 426.16, 376.08 373.23 M286.52 479.75 C319.2 450.5, 344.78 419.77, 376.48 378.42 M288.16 478.65 C304.26 463.32, 320.58 440.83, 375.78 380.67 M295.64 477.3 C312.62 455.61, 343.79 424.12, 377.44 384.36 M291.74 480.34 C309.53 459.96, 329.5 439.21, 377.44 386.43 M293.86 477.17 C326.43 444.88, 352.95 419.15, 377.79 387.93 M297.79 480.29 C321.53 447.26, 350.53 416.93, 374.04 389.77 M301.44 477.54 C320.49 456.47, 337.81 436.84, 374.94 400.85 M303.89 481.12 C320.74 455.8, 338.47 434.59, 375.48 396.96 M305.39 484.43 C333.03 450.24, 356.83 424, 377.56 400.31 M306.46 479.21 C321.68 464.48, 336.96 447.54, 374.35 403.33 M312.24 484.29 C337.65 448.69, 359.79 422.79, 374.28 409.56 M312.35 479.49 C338.42 453.93, 358.98 426.35, 375.44 410.05 M314.85 479.92 C336.2 461.45, 352.29 446.68, 371.83 414.05 M318.52 479.52 C331.21 464.96, 344 452.2, 376.67 414.5 M321.84 478.29 C338.46 469.06, 345.39 453.3, 373.22 425.57 M324.2 479.51 C334.35 466.43, 349.12 450.9, 376.12 422.56 M332.41 478.47 C342.87 458.38, 358.88 443.04, 374.43 430.83 M330.61 482.46 C345.81 461.45, 364.87 438.81, 375.53 427.38 M333.8 483.47 C342.9 472.56, 357 459.93, 379.33 435.39 M333.11 480.13 C344.16 469.98, 353.45 457, 375.97 433.51 M340.07 480.11 C351.13 469.17, 362.97 455.28, 372.35 436.25 M340.93 481.18 C347.58 471.07, 356.73 461.07, 373.41 439.68 M341.53 482.94 C354.81 469.67, 363.9 465.11, 376.67 445.99 M345.32 481.19 C354.58 472.06, 363.86 460.22, 377.66 447.09 M351.62 482.06 C359.3 476.06, 359.04 467.95, 372.36 448.88 M351.29 482.74 C356.21 474.06, 365.32 465.93, 377.35 453.79 M356.25 479.01 C362.73 473.67, 362.52 465.81, 377.11 457.52 M357.71 481.46 C360.89 472.85, 370.63 466.35, 377.47 459.4 M360.69 482.69 C368.92 478.72, 372.06 472.13, 377.08 464.71 M361.09 482.1 C367.52 476.71, 372.76 471.03, 377.03 463.26 M364.29 480.92 C366.56 476.72, 368.51 476.55, 375.53 468.97 M367.38 480.55 C367.7 479.16, 371.02 474.46, 374.85 469.69 M370.83 479.86 C373 479.34, 373.77 477.65, 375.65 475.65 M372.22 480.62 C372.19 479.95, 373.1 478.73, 376.18 476.14" stroke="#ced4da" stroke-width="0.5" fill="none"></path><path d="M2.11 -1.04 C98.65 -0.04, 202.77 -0.68, 372.78 -0.06 M-0.1 -1.17 C137.07 -2.75, 272.21 -2.79, 373.65 -0.21 M374.71 -1.58 C375.05 185.01, 377.74 367.51, 375.86 480.7 M374.71 -0.04 C374.95 187.19, 375.6 374, 373.62 479.81 M374.9 481.15 C250.31 481.01, 124.74 481.12, 1.59 479.14 M375.14 479.26 C237.06 478.71, 100.39 479.24, -0.06 479.83 M1.7 481.1 C3.59 365.47, 4.12 249.35, 0.76 0.39 M0.04 480.11 C-1.82 333.46, -0.99 187.1, 0.24 0.4" stroke="#000000" stroke-width="1" fill="none"></path></g><g stroke-linecap="round" transform="translate(70 530) rotate(0 130 100)"><path d="M1.83 1.74 L261.73 0.76 L261.83 198.39 L-0.44 201.68" stroke="none" stroke-width="0" fill="#40c057"></path><path d="M-0.71 1.28 C85.1 -0.22, 170.17 -0.06, 261.39 -0.35 M0.73 0.23 C78.18 -1.11, 155.19 -0.9, 259.5 0.12 M261.44 0.97 C260.76 76.14, 258.77 156.62, 258.39 201.04 M260.77 -0.74 C260.31 53.36, 259.74 104.52, 259.48 200.56 M259.23 199.89 C182.67 198.94, 105.58 199.8, 0.36 200.02 M260.51 200.04 C200.46 201.26, 139.21 201.06, -0.77 199.74 M1.52 200.47 C2.02 122.99, -0.26 47.14, 0.52 -1.52 M0.53 200.41 C-1.4 154.43, -1.19 107.79, 0.51 -0.14" stroke="#000000" stroke-width="1" fill="none"></path></g><g transform="translate(70 390) rotate(0 122.5 19)"><text x="0" y="27" font-family="Virgil, Segoe UI Emoji" font-size="29.999999999999993px" fill="#000000" text-anchor="start" style="white-space: pre;" direction="ltr">Driving adapters</text></g><g stroke-linecap="round"><g transform="translate(750.0541880368464 599.6109218445395) rotate(270 429.9458119631536 0.3890781554604814)"><path d="M0.34 0.86 C70.95 -126.16, 140.02 -253.01, 215.54 -389.61 M0.18 0.38 C51.04 -89.82, 100.92 -180.74, 214.93 -389.26 M214.46 -389.31 C357.84 -388.63, 500.78 -388.77, 644.6 -389.35 M214.33 -388.87 C359.31 -388.31, 503.29 -388.47, 644.95 -388.91 M645.44 -388.9 C710.66 -267.82, 777.12 -146.98, 859.75 0.46 M644.36 -389.24 C693.78 -298.4, 743.51 -207.69, 859.58 -0.23 M859.95 -0.68 C788.18 127.41, 718.51 253.09, 643.8 389.13 M858.93 -0.28 C807.68 93.52, 756.22 187.16, 644.19 389.16 M645.11 388.4 C537.46 387.76, 430.37 387.83, 213.92 389.34 M644.89 388.74 C477.73 391.15, 310.96 390.73, 214.58 388.71 M215.64 389.68 C165.09 298.22, 114.56 206.91, 0.53 0.31 M214.98 389.38 C155.12 280.89, 95.16 172.99, -0.05 -0.05" stroke="#000000" stroke-width="1" fill="none"></path></g></g><mask></mask><g stroke-linecap="round" transform="translate(50 510) rotate(0 130 100)"><path d="M3.46 -1.7 L256.97 -1.57 L262.93 197.37 L-2.74 199.9" stroke="none" stroke-width="0" fill="#d9ead3"></path><path d="M0.67 -2.47 C94.5 -3.55, 185.65 -6.32, 257.7 2.17 M0.45 0.87 C55.05 1.2, 107.72 2.16, 259.88 0.37 M260.74 -2.53 C263.71 41.88, 265.09 86.28, 259.85 197.92 M261.68 -1.61 C258.49 54.31, 256.26 108.6, 260.39 200.33 M262.25 199.88 C190.72 198.04, 115.62 198.73, 0.54 199.69 M260.77 201.57 C166.81 203, 72.73 202.29, 1.04 201.13 M2.26 198.73 C-1.2 159.14, 0.18 110.26, 0.81 -1.1 M0.05 199.72 C-2.76 123.49, -2.5 47.95, -0.55 -0.36" stroke="#000000" stroke-width="1" fill="none"></path></g><g stroke-linecap="round"><g transform="translate(558.9078941215814 600.9030195131742) rotate(270 590.8235597771754 0.387227742871346)"><path d="M0.8 0.53 C110.06 -241.35, 221.24 -481.16, 296.04 -638.63 M0.08 0.39 C116.73 -249.64, 231.54 -499.12, 295.52 -639 M294.88 -639.34 C531.09 -639.13, 765.05 -639.45, 886.45 -638.27 M295.65 -638.9 C529.4 -639.32, 763.65 -639.38, 886.42 -639.02 M885.69 -638.18 C985.3 -422.43, 1086.35 -205.21, 1180.89 -0.31 M886.12 -638.64 C997.35 -403.12, 1105.54 -167.84, 1181.66 0.35 M1182.11 -0.79 C1109.38 163.55, 1033.31 325.69, 885.93 638.73 M1181.36 0.29 C1091.88 190.56, 1004.43 381.27, 886.1 639.02 M885.96 639.36 C719.43 640.67, 554.59 640.1, 295.81 639.01 M886.46 638.43 C704.05 638.11, 522.7 638.59, 295.27 638.42 M295.32 638.48 C211.05 456.4, 126.57 274.17, -0.47 0.53 M295.29 638.93 C220.35 476.23, 144.61 313.33, 0.23 -0.11" stroke="#000000" stroke-width="1" fill="none"></path></g></g><mask></mask><g transform="translate(70 530) rotate(0 111.5 19.5)"><text x="0" y="27" font-family="Virgil, Segoe UI Emoji" font-size="30.769230769230784px" fill="#000000" text-anchor="start" style="white-space: pre;" direction="ltr">REST adapter</text></g><g transform="translate(70 610) rotate(0 107.5 25)"><text x="0" y="18" font-family="Virgil, Segoe UI Emoji" font-size="20px" fill="#000000" text-anchor="start" style="white-space: pre;" direction="ltr">Spring MVC controllers</text><text x="0" y="43" font-family="Virgil, Segoe UI Emoji" font-size="20px" fill="#000000" text-anchor="start" style="white-space: pre;" direction="ltr">DTOs</text></g><g stroke-linecap="round" transform="translate(1970 530) rotate(0 140 100)"><path d="M0.93 -0.55 L278.39 -1.86 L278.91 201.32 L1.07 199.32" stroke="none" stroke-width="0" fill="#f9cb9c"></path><path d="M-0.31 1.33 C63.93 -0.51, 128.57 1.78, 278.99 -1.05 M0.48 -0.06 C82.57 -0.36, 166.68 -1.15, 280.04 -0.5 M281.44 0.28 C279.87 54.85, 282.32 114.21, 279.03 201.47 M280.73 0.28 C281.55 67.7, 282.2 136.42, 280.83 199.15 M279.85 200.29 C202.85 200.47, 125.19 199.76, 0.99 201 M279.73 200.43 C205.42 198.51, 131.97 199.09, 0.54 199.96 M1.03 201.76 C2.2 143.01, 2.19 86.4, 0.61 0.79 M-0.09 200.04 C0.02 134.88, -0.2 71.24, -0.01 0.25" stroke="#000000" stroke-width="1" fill="none"></path></g><g transform="translate(1970 390) rotate(0 119.5 19)"><text x="0" y="27" font-family="Virgil, Segoe UI Emoji" font-size="29.999999999999993px" fill="#000000" text-anchor="start" style="white-space: pre;" direction="ltr">Driven adapters</text></g><g stroke-linecap="round" transform="translate(1950 510) rotate(0 140 100)"><path d="M-3.72 -2.19 L282.64 2.14 L278.64 197.37 L-0.2 203.92" stroke="none" stroke-width="0" fill="#fcddb3"></path><path d="M-2.33 -1.2 C80.61 -0.19, 154.63 1.75, 281.97 1.1 M0.83 0.14 C100.8 4.22, 202.13 3.87, 281.28 0.83 M276.56 1.62 C282.72 74.09, 283.5 153.53, 283.2 200.72 M279.31 1.21 C281.77 77.78, 279.4 151.85, 280.58 200.23 M280.39 201.85 C197.77 204.01, 119.6 200.94, 2.07 197.67 M280.28 200.41 C207.34 198.48, 131.7 197.19, -0.91 198.73 M0.32 202.25 C-2.12 129.76, -1.95 57.89, 0.18 1.07 M-1.22 199.79 C0.37 141.87, 0.35 84.64, -0.49 -1.45" stroke="#000000" stroke-width="1" fill="none"></path></g><g transform="translate(1970 530) rotate(0 88.5 19.5)"><text x="0" y="27" font-family="Virgil, Segoe UI Emoji" font-size="30.769230769230784px" fill="#000000" text-anchor="start" style="white-space: pre;" direction="ltr">Db adapter</text></g><g transform="translate(1970 610) rotate(0 129.5 25)"><text x="0" y="18" font-family="Virgil, Segoe UI Emoji" font-size="20px" fill="#000000" text-anchor="start" style="white-space: pre;" direction="ltr">Repository implementations</text><text x="0" y="43" font-family="Virgil, Segoe UI Emoji" font-size="20px" fill="#000000" text-anchor="start" style="white-space: pre;" direction="ltr"></text></g><g transform="translate(992.7582092449663 82.32612660727227) rotate(0 145 22.5)"><text x="0" y="32" font-family="Virgil, Segoe UI Emoji" font-size="36.217026229793824px" fill="#000000" text-anchor="start" style="white-space: pre;" direction="ltr">Application layer</text></g><g transform="translate(1110 230) rotate(0 60.5 22.5)"><text x="0" y="32" font-family="Virgil, Segoe UI Emoji" font-size="36.217026229793824px" fill="#000000" text-anchor="start" style="white-space: pre;" direction="ltr">Domain</text></g><g stroke-linecap="round" transform="translate(530 510) rotate(0 110 40)"><path d="M2.41 -3.84 L216.81 3.84 L218.42 81.9 L-0.62 76.22" stroke="none" stroke-width="0" fill="#c7c0db"></path><path d="M-1.68 3.27 C87.12 -2.9, 173.43 -1.28, 222.06 -2.9 M-1.69 -0.85 C68.72 0.26, 141.8 -0.46, 218.39 0.61 M218.86 2.2 C222.61 32.53, 223.57 55.67, 216.01 78.04 M221.76 1.81 C216.87 28.12, 217.91 57.82, 221.09 81.61 M219.85 76.55 C149.44 79.01, 84.58 82.27, 2.25 77.36 M219.74 78.64 C159.73 75.14, 97.37 76.48, 1.58 78.48 M2.57 82.07 C0.57 62.29, -2.89 38.78, 1.67 -2.86 M0.89 78.66 C1.03 50.45, 0.07 21.43, 1.43 1.46" stroke="#000000" stroke-width="1" fill="none"></path></g><g transform="translate(550 530) rotate(0 89.5 12.5)"><text x="0" y="18" font-family="Virgil, Segoe UI Emoji" font-size="20px" fill="#000000" text-anchor="start" style="white-space: pre;" direction="ltr">Application service</text></g><g stroke-linecap="round" transform="translate(1650 530) rotate(0 110 40)"><path d="M-3.94 -0.11 L218.97 -0.64 L223.08 82.43 L-0.65 81.65" stroke="none" stroke-width="0" fill="#c7c0db"></path><path d="M-2.75 -1.54 C70.95 2.23, 149.96 -0.43, 219.17 -2.48 M1.3 -1.52 C55.46 2.63, 112.18 2.16, 221.4 -1.18 M223.55 3.2 C223.17 32.18, 219.32 59.79, 216.88 77.85 M221.66 -0.23 C221.5 29.11, 221.73 56.42, 221 81.9 M218.1 81.2 C154.35 79.04, 84.4 79.99, -0.63 77.54 M218.42 78.73 C155.48 77.97, 91.64 78.22, -0.47 81.21 M0.67 81.65 C2.45 51.81, 0.24 15.61, 0.18 3.88 M1.61 81.04 C0.23 49.39, 0.1 21.24, -1.94 -1.78" stroke="#000000" stroke-width="1" fill="none"></path></g><g transform="translate(1670 550) rotate(0 76.5 12.5)"><text x="0" y="18" font-family="Virgil, Segoe UI Emoji" font-size="20px" fill="#000000" text-anchor="start" style="white-space: pre;" direction="ltr">Repository port</text></g><g stroke-linecap="round" transform="translate(930 350) rotate(0 260 160)"><path d="M-2.28 1.67 L523.86 0.13 L522.47 317.61 L2.77 318.12" stroke="none" stroke-width="0" fill="#ced4da"></path><path d="M1.35 0.45 C165.99 2.5, 330.82 2.66, 521.5 -0.88 M0.1 0.42 C158.95 -3.51, 317.97 -2.55, 519.35 0.45 M517.53 -2.41 C518.58 128, 517.03 255.8, 519.64 317.59 M518.99 1.38 C515.01 128.17, 515.2 254.93, 519.29 319.95 M521.51 319.24 C339.18 323.35, 158.11 322.76, 0.78 318.43 M519.64 320.2 C409.12 319.8, 298.69 319.71, -0.06 319.23 M0.77 321.25 C-0.75 237.57, 3.31 160.3, 1.05 2.79 M1.21 319.36 C1.31 233.75, 2.3 147.74, -0.65 -0.62" stroke="#000000" stroke-width="1" fill="none"></path></g><g transform="translate(1130 370) rotate(0 66.5 19)"><text x="0" y="27" font-family="Virgil, Segoe UI Emoji" font-size="29.999999999999993px" fill="#000000" text-anchor="start" style="white-space: pre;" direction="ltr">Agregate</text></g><g stroke-linecap="round" transform="translate(950 430) rotate(0 110 40)"><path d="M2.34 -1.46 L220.01 -1.51 L222.83 81.33 L-2.94 76.81" stroke="none" stroke-width="0" fill="#c7c0db"></path><path d="M2.72 -2.89 C66.01 3.92, 135.36 0.02, 221.77 -3 M0.77 1.27 C53.41 4.84, 110.15 1.9, 219.49 1.23 M218.56 1.65 C219.73 18.24, 219.35 39.69, 219.54 83.8 M221.74 0.63 C218.95 28.23, 218.76 53.09, 218.47 80.95 M221.95 83.46 C151.87 83.78, 83.12 85.56, -2.83 81.66 M220.53 78.53 C135.82 78.03, 51.39 77.67, 0.69 78.44 M1.44 76.91 C-4.36 59.1, -1.71 44.36, 2.75 -0.98 M0.72 81.08 C-2.01 54.71, 0.14 30.04, -0.34 -1.17" stroke="#000000" stroke-width="1" fill="none"></path></g><g transform="translate(990 450) rotate(0 73 12.5)"><text x="0" y="18" font-family="Virgil, Segoe UI Emoji" font-size="20px" fill="#000000" text-anchor="start" style="white-space: pre;" direction="ltr">Agregate Root</text></g><g stroke-linecap="round" transform="translate(1030 570) rotate(0 110 40)"><path d="M3.3 -3.4 L217.06 2.34 L223.26 79.58 L1.78 79.51" stroke="none" stroke-width="0" fill="#b4a7d6"></path><path d="M1.87 -1.62 C54.61 -2.27, 109.98 -4.43, 221.01 -1.49 M1.69 -0.6 C86.82 -0.57, 175.16 -0.61, 220.63 -0.6 M220.37 -2.89 C220.9 21.91, 216.02 39.9, 222.55 82.39 M220.3 0.99 C219.22 25.42, 220.58 47.62, 220.11 78.36 M220.86 80.41 C150.71 84.12, 74.3 80.2, 2.42 82.61 M219.91 79.3 C156.87 79.13, 94.81 78.97, -0.55 79.45 M1.86 80.68 C3.63 58.87, -0.56 31.31, 2 -3.53 M1.66 79.07 C0.75 53.28, 2.82 25.54, 1.82 -1.54" stroke="#000000" stroke-width="1" fill="none"></path></g><g stroke-linecap="round" transform="translate(1010 550) rotate(0 110 40)"><path d="M-1.89 -1.66 L221.83 -3.94 L220.34 81.94 L-3.93 76.5" stroke="none" stroke-width="0" fill="#c7c0db"></path><path d="M1.18 -1.93 C79.92 -0.31, 153.82 2.97, 217.15 0.69 M-1.43 -1.51 C52.82 0.78, 105.75 -0.78, 221.63 -0.64 M221.44 -3.7 C219.49 24.97, 220.95 45.97, 219.96 81.29 M218.5 -0.28 C219.79 29.3, 219.37 56.96, 218.98 81.68 M217.63 81.18 C151.11 78.99, 75.89 80.58, 2.3 80.45 M220.86 80.45 C140.97 77.41, 66.4 76.11, 0.86 78.47 M-3.02 83.43 C-0.18 59.44, 4.32 42.31, -1 -2.88 M-1.33 78.71 C0.26 48.06, 2.2 17.88, 1.26 1.88" stroke="#000000" stroke-width="1" fill="none"></path></g><g transform="translate(1090 570) rotate(0 30 12.5)"><text x="0" y="18" font-family="Virgil, Segoe UI Emoji" font-size="20px" fill="#000000" text-anchor="start" style="white-space: pre;" direction="ltr">Entity</text></g><g stroke-linecap="round" transform="translate(1210 450) rotate(0 110 40)"><path d="M3.98 2.56 L217 -1.05 L221.99 81.14 L1.16 83.07" stroke="none" stroke-width="0" fill="#b4a7d6"></path><path d="M-0.39 2.42 C76.69 -3.82, 145.69 -4.71, 217.86 -0.38 M-1.13 0.95 C59.69 -1.61, 115.55 -1.9, 219.91 -1.13 M219.08 -0.36 C218.94 25.82, 217.72 49.39, 221.72 82.54 M221.45 -1.71 C218.9 31.14, 220.74 63.25, 219.51 78.47 M217.38 81.31 C149.43 79.47, 78.37 80.97, 0.82 79.51 M218.48 79.49 C171.03 77.34, 119.38 76.33, 0.22 78.47 M2.68 83.08 C-3.56 65.87, 2.11 45.8, 2.76 3.6 M0.18 78.37 C-0.23 54.66, 0.43 28.99, 1.13 -0.89" stroke="#000000" stroke-width="1" fill="none"></path></g><g stroke-linecap="round" transform="translate(1190 430) rotate(0 110 40)"><path d="M2.56 -3 L218.95 1.99 L221.14 81.16 L3.07 81.87" stroke="none" stroke-width="0" fill="#c7c0db"></path><path d="M2.42 2.77 C72.93 -1.72, 147.12 -1.72, 219.62 -1.18 M0.95 1.21 C86.27 1.06, 170.96 2.39, 218.87 -0.23 M219.64 -1.06 C222.07 21.72, 222.72 49.73, 222.54 83.79 M218.29 -1.75 C218.65 27.33, 219.17 53.97, 218.47 80.43 M221.31 80.19 C156.19 77.02, 94.59 77.94, -0.49 77.46 M219.49 80.94 C175.76 75.84, 130.29 76.88, -1.53 78.38 M3.08 76.04 C2.93 59.69, -0.59 38.69, 3.6 1 M-1.63 79.84 C0.87 56.15, 1.2 32.42, -0.89 1.99" stroke="#000000" stroke-width="1" fill="none"></path></g><g transform="translate(1250 450) rotate(0 61 12.5)"><text x="0" y="18" font-family="Virgil, Segoe UI Emoji" font-size="20px" fill="#000000" text-anchor="start" style="white-space: pre;" direction="ltr">Value object</text></g><g stroke-linecap="round" transform="translate(850 730) rotate(0 110 40)"><path d="M3.93 1.53 L221.73 -1.63 L217.89 81.87 L-2.77 79.12" stroke="none" stroke-width="0" fill="#b4a7d6"></path><path d="M-2.57 -3.04 C81.3 1.88, 163.01 0.19, 217.61 0.09 M-0.63 -1.05 C62.58 1.15, 124.89 2.05, 218.75 0.3 M218 2.66 C216.23 28.9, 218.22 58.01, 223.4 76.24 M219.81 0.69 C221.98 22.74, 221.15 47.89, 218.64 79.77 M218.86 76.71 C159.3 83.58, 97.86 83.53, 3.44 81.17 M219.48 79.12 C166.54 78.53, 110.79 79.26, 0.85 78.41 M0.65 76.37 C-3.05 47.13, -2.93 16.43, -1.82 -2.14 M-0.81 79.16 C0.62 53.21, 1.43 28.97, -1.15 -0.01" stroke="#000000" stroke-width="1" fill="none"></path></g><g stroke-linecap="round" transform="translate(830 710) rotate(0 110 40)"><path d="M1.53 1.73 L218.37 -2.11 L221.87 77.23 L-0.88 82.21" stroke="none" stroke-width="0" fill="#c7c0db"></path><path d="M-3.04 1.49 C55.5 6.21, 107.58 0.44, 220.09 -0.63 M-1.05 0.56 C48.55 2.21, 98.88 0.13, 220.3 1.29 M222.66 -3.3 C218.47 20.33, 217.64 46.69, 216.24 80.34 M220.69 0.91 C217.82 29.41, 218.28 57.3, 219.77 79.6 M216.71 80.92 C158.6 79.86, 96.38 82.18, 1.17 78.2 M219.12 81.12 C170.82 78.8, 122.42 79.71, -1.59 81.47 M-3.63 78.49 C-1.1 46.93, -1.01 14.83, -2.14 0.71 M-0.84 80.5 C-0.71 57.91, 0.46 32.06, -0.01 1.97" stroke="#000000" stroke-width="1" fill="none"></path></g><g transform="translate(910 730) rotate(0 27 12.5)"><text x="0" y="18" font-family="Virgil, Segoe UI Emoji" font-size="20px" fill="#000000" text-anchor="start" style="white-space: pre;" direction="ltr">Policy</text></g><g stroke-linecap="round" transform="translate(1190 730) rotate(0 110 40)"><path d="M3.63 0.52 L222.98 -0.4 L223.37 81.63 L-0.07 77.33" stroke="none" stroke-width="0" fill="#b4a7d6"></path><path d="M-3.3 -0.17 C56.69 -1.58, 110.94 4.45, 217.71 1.61 M-0.24 -1.09 C78.28 1.98, 154.91 2.15, 220.92 0.57 M219.58 -1.17 C218.15 26.43, 215.16 52.46, 218.98 83.14 M220.23 1.7 C220.85 33.5, 220.96 65.43, 218.02 79.6 M219.05 76.66 C171.49 75.92, 124.09 77.87, -0.79 78.95 M221.6 81.18 C150.53 78.38, 82.41 77.85, -0.42 80.27 M3.18 76.56 C1.71 66.66, -1.82 46.05, 2.58 -2.11 M1.98 80.06 C0.44 52.49, -2.66 22.7, -0.46 1.01" stroke="#000000" stroke-width="1" fill="none"></path></g><g stroke-linecap="round" transform="translate(1170 710) rotate(0 110 40)"><path d="M0.52 2.98 L219.6 3.37 L221.63 79.93 L-2.67 83.14" stroke="none" stroke-width="0" fill="#c7c0db"></path><path d="M-0.17 1.77 C44.7 4.73, 98.79 1.34, 221.61 1.67 M-1.09 1.65 C50.45 2.19, 100.62 1.45, 220.57 0.33 M218.83 -0.8 C222.36 14.93, 222.85 36.41, 223.14 83.88 M221.7 -0.2 C222.91 29.19, 223.07 56.6, 219.6 78.42 M216.66 80.13 C160.88 80.33, 106.49 78.16, -1.05 80.35 M221.18 78.75 C156.99 82.36, 92.03 83.09, 0.27 78.47 M-3.44 80.98 C2.78 57.09, -0.89 41.87, -2.11 2.14 M0.06 81.92 C1.85 47.4, 0.34 16.68, 1.01 1.82" stroke="#000000" stroke-width="1" fill="none"></path></g><g transform="translate(1210 730) rotate(0 72.5 12.5)"><text x="0" y="18" font-family="Virgil, Segoe UI Emoji" font-size="20px" fill="#000000" text-anchor="start" style="white-space: pre;" direction="ltr">Domain Service</text></g><g stroke-linecap="round" transform="translate(1050 850) rotate(0 110 40)"><path d="M-3.88 2.67 L218.25 -2.12 L219.82 76.68 L-1.14 80.95" stroke="none" stroke-width="0" fill="#b4a7d6"></path><path d="M1.9 -0.38 C62.19 -1.17, 132.57 0.82, 218.53 -1.3 M0.4 0.92 C61.05 4.85, 126.76 4.11, 219.46 -0.54 M222.06 -1.3 C221.39 16.56, 216.31 38.13, 218.31 83.92 M218.12 -1.15 C221.09 24.49, 219.64 47.98, 220.69 81.47 M222.32 79.78 C137.54 80.75, 55.55 78.57, -0.02 79.11 M220.32 80.1 C152.73 80.57, 86.04 77.93, -0.13 79.4 M-3.57 78.15 C5.22 53.16, 0.57 18, 3.6 3.34 M1.97 78.89 C0.12 51.54, -2.58 24.06, -1.83 0.78" stroke="#000000" stroke-width="1" fill="none"></path></g><g stroke-linecap="round" transform="translate(1030 830) rotate(0 110 40)"><path d="M2.67 -1.75 L217.88 -0.18 L216.68 78.86 L0.95 76.7" stroke="none" stroke-width="0" fill="#c7c0db"></path><path d="M-0.38 -3.14 C50.53 -0.18, 105.16 -3.57, 218.7 -0.51 M0.92 -1.72 C50.66 0.33, 99.49 -1.42, 219.46 -1.36 M218.7 2.94 C218.77 14.1, 222.61 30.79, 223.92 79.8 M218.85 0.3 C219.88 26.79, 219.77 56.57, 221.47 81.51 M219.78 80.2 C166 83.42, 110.92 82.54, -0.89 80.05 M220.1 79.05 C146.3 79.39, 69.03 80.58, -0.6 81.41 M-1.85 83.71 C2.51 62.61, -2.16 50.71, 3.34 2.22 M-1.11 80.86 C0.3 50.45, 1.25 22.75, 0.78 -1.94" stroke="#000000" stroke-width="1" fill="none"></path></g><g transform="translate(1110 850) rotate(0 38 12.5)"><text x="0" y="18" font-family="Virgil, Segoe UI Emoji" font-size="20px" fill="#000000" text-anchor="start" style="white-space: pre;" direction="ltr">Factory</text></g></svg>