<svg version="1.1" xmlns="http://www.w3.org/2000/svg" viewBox="0 0 2152.000000000002 1619.9999999999998" width="2152.000000000002" height="1619.9999999999998">
  <!-- svg-source:excalidraw -->
  
  <defs>
    <style class="style-fonts">
      @font-face {
        font-family: "Virgil";
        src: url("https://excalidraw.com/Virgil.woff2");
      }
      @font-face {
        font-family: "Cascadia";
        src: url("https://excalidraw.com/Cascadia.woff2");
      }
    </style>
  </defs>
  <rect x="0" y="0" width="2152.000000000002" height="1619.9999999999998" fill="#ffffff"></rect><g stroke-linecap="round" transform="translate(1010.0000000000018 1309.9999999999998) rotate(0 160 90)"><path d="M0 0 C0 0, 0 0, 0 0 M0 0 C0 0, 0 0, 0 0 M-1.8 6.84 C1.33 5.37, 2.23 2.82, 3.85 1.18 M-0.2 6.27 C0.94 4.91, 2.47 2.12, 5.6 0.12 M-1.57 12.06 C2.94 11.29, 2.7 5.72, 9.87 1.1 M-1.22 10.74 C2.3 6.65, 5.99 2.3, 11.32 0.2 M1.51 20.66 C3.56 12.32, 5.69 10.23, 16.41 1.2 M0.54 18.52 C7.45 10.69, 9.78 6.88, 15.81 -0.77 M2.01 23.34 C6.3 18.02, 11.75 15.08, 21.83 -3.79 M-1.67 23.85 C4.87 15.88, 12.71 8.72, 20.21 -2.01 M2.64 27.66 C9.44 17.47, 23.78 4.26, 25.86 3.35 M1.49 30.9 C5.38 25.76, 11.92 17.29, 27.48 1.27 M0.58 37.52 C6.23 29.23, 11.71 17.89, 28.02 -3.72 M-0.09 36.76 C7.12 30.27, 15.51 19.63, 31.89 0.15 M2.96 43.57 C8.25 27.95, 22.85 22.73, 36.02 -0.44 M1.8 42.41 C9 32.97, 14.65 25.97, 35.93 1 M-1.23 49.57 C11.51 37.68, 19.84 21.44, 40.88 -1.29 M1.76 49.86 C5.94 40.53, 16.08 28.3, 43.66 0.41 M-2.66 55.25 C14.39 33.72, 35.71 19.74, 49.59 2.37 M1.46 53.84 C14.15 39.79, 28.16 21.43, 49.48 2.12 M-3.09 62.49 C23.98 38.17, 36.96 13.34, 52.2 0.41 M-1.58 62.73 C13.11 46.29, 25.9 30.11, 51.51 0 M-0.83 66.14 C17.36 47.96, 42.1 20.07, 54.48 2.1 M-1.3 66.3 C18.71 49.38, 34.86 27.06, 56.34 -1.08 M-2.88 72.39 C10.47 56.32, 28.77 40.05, 60.98 2.15 M0.97 72.8 C24.81 43.06, 49.6 15.3, 64.37 1.76 M-0.99 81.21 C9.8 57.92, 28.16 43.15, 67.76 2.91 M-1.38 80.25 C19.48 58.67, 35.55 39.87, 70.63 -1.71 M-1.25 81.16 C21.53 63.44, 37.27 46.15, 77.4 -3.53 M-1.59 86.06 C25.77 55.18, 52.67 25.42, 74.07 0.12 M-3.37 91.54 C27.13 61.81, 53.76 26.85, 75.71 2.77 M-0.73 90 C16.66 70.6, 32.73 55.42, 78.38 1.7 M1.67 101.27 C21.16 71.19, 40.02 55.84, 86.82 -4.26 M-1.01 95.88 C29.28 60.22, 62.76 25.67, 85.32 -0.87 M-0.36 107.24 C38.17 63.3, 75.33 23.6, 93.8 -2.56 M0.26 102.72 C27.56 74.78, 50.77 47.02, 91.52 -0.77 M-3.1 108.73 C26.81 78.45, 52.83 53.55, 93.8 -3.86 M-1.17 109.96 C36.21 69.73, 71.64 29.46, 93.78 -1.62 M2.86 114.24 C24.36 91.88, 45.48 62.02, 98.67 0.51 M0.1 117.13 C38.78 72.38, 73.09 31.08, 101.9 -0.46 M-1.33 123.64 C30.32 82.87, 64.74 48.1, 110.07 -2.33 M-0.02 120.83 C26.83 90.75, 54.03 58.06, 107.98 -0.89 M-0.39 127.03 C44.8 74.3, 83.08 26.02, 112.14 -0.62 M1.54 126.34 C23.35 94.02, 50.13 64.88, 111.25 -0.09 M3.07 131.14 C32.77 98.33, 57.54 67.76, 117.92 0.88 M-0.92 132.88 C42.45 87.09, 84.63 37.15, 114.72 -1.14 M-3.6 141.67 C32 102.39, 68.75 61.31, 125.26 -0.74 M0.23 140.77 C33.77 101.31, 69.42 60.47, 121.24 0.18 M-0.62 142.19 C24.45 113.44, 58.09 78.04, 124.76 -0.12 M0.64 145.1 C45.46 93.49, 90.1 41.52, 127.66 -1.46 M-2.77 152.29 C31.2 113.95, 65.14 74.21, 134.05 2.85 M-1.13 150.87 C38.35 108.99, 80.69 62.09, 131.54 0.71 M-2.32 158.39 C50.51 101.21, 89.22 50.49, 139.05 -0.96 M-1.4 157.92 C43.19 113.3, 85.8 62.15, 137.43 0.83 M0.65 167.56 C41.87 117.87, 75.78 79.45, 144.26 -0.03 M-0.67 165.14 C47.78 105.58, 95.31 48.84, 141.52 0.7 M1.78 172.38 C45.19 119.86, 88.62 67.29, 146.2 -2.46 M0.11 171.54 C35.85 127.63, 76.42 81.33, 148.16 1.34 M-1.17 177.7 C51.35 110.87, 109.38 50.37, 150.98 0.24 M0.62 175.34 C41.56 130.7, 82.63 80.83, 152.4 -0.14 M-0.66 184.19 C60.2 119.86, 116.18 58.64, 156.73 1.34 M2.44 180.79 C38.31 138.01, 73.54 96.67, 158.92 -0.31 M6.93 179.51 C64.7 114.72, 118.67 53.32, 164.14 0.48 M7.55 179.43 C67.28 113.9, 127.88 42.43, 165.17 0.11 M13.53 180.08 C54.99 129.18, 100.82 82.56, 166.11 -0.63 M10.32 181.18 C47.49 138.58, 86.3 92.85, 169.72 -0.08 M16.52 183.11 C79.16 106.96, 139.97 36.52, 177.74 2.62 M16.6 180.25 C51.39 141.32, 88.4 100.1, 175.83 0.44 M21.12 183.93 C70.12 128.75, 114.79 83.28, 179.43 0.58 M22.95 181.53 C59.86 134.81, 98.36 91.89, 179.61 -1.01 M27.25 180.04 C87.39 114.37, 147.04 48.73, 186.93 -3.29 M28.61 181.95 C87.36 116.86, 143.53 54.32, 186.98 -1.33 M35.78 183.94 C88.46 125.03, 138.22 64.7, 187.73 -2.94 M31.97 182.32 C71.08 137.04, 110.67 92.26, 191.77 -1.49 M41.38 181.26 C97.39 114.08, 153.55 46.8, 197.82 -2.33 M38.51 182.84 C94.84 115.87, 149.81 53.62, 196.1 -0.16 M42.16 179.82 C79.39 141.04, 115.09 100.29, 198.04 0.72 M43.94 181.15 C97.56 120.21, 151.18 57.66, 201.78 -0.19 M45.82 181.97 C99.87 124.41, 153.68 60.23, 204.19 1.93 M48.9 181.99 C87.36 138.27, 124.92 92.54, 207.3 1.1 M52.56 179.45 C107.5 122.22, 158.73 65.5, 210.03 0.01 M55.33 181.12 C103.25 127.68, 149.6 74.85, 212.64 -1.18 M58.08 182.81 C92.14 135.64, 129.85 95.47, 217.45 -2.57 M57.88 182.05 C102.13 131.61, 145.28 83.85, 216.24 0.14 M63.63 182.22 C102.08 146.34, 130.08 109.8, 219.38 3.19 M64.23 182.51 C123.12 113.52, 182.52 42.8, 223.11 1.18 M72.4 183.52 C116.58 126.01, 164.34 71.92, 230.01 0.27 M69.92 181.25 C119.69 118.8, 175.57 58.36, 228.51 0.09 M72.98 182.38 C113.73 141.17, 150.34 96, 234.41 1.72 M75.28 181.09 C124.83 127.91, 171.96 74.08, 232.71 0.5 M82.32 180.35 C115.05 137.84, 151.44 94.8, 237.98 -1.15 M80.27 182.46 C131.73 123.33, 180.75 65.6, 237.32 -1.29 M89.23 179.01 C146.14 110.1, 199.67 45.11, 246.1 0.23 M84.74 179.77 C131.06 128.34, 177.5 73.48, 243.38 0.06 M90.69 182.71 C144.98 119.28, 199.74 53.29, 247.04 0.78 M89.93 181.58 C151.69 108.97, 211.42 37.95, 247.75 0.31 M95.32 179.37 C153.51 118.59, 210.27 51.36, 251.43 -0.14 M95.44 180.32 C134.05 140.82, 169.17 102.17, 254.46 1.13 M99.69 183.21 C162.55 113.1, 222.29 39.81, 258.59 0.8 M100.66 182.47 C147.95 131.67, 192.15 81.1, 257.83 1.95 M105.16 182.22 C169.75 105.67, 225.85 40.17, 263.35 1.59 M108.47 181.64 C150.21 129.65, 198.87 77.43, 264.42 1.32 M114.15 180.95 C143.78 143.01, 175.6 108.53, 269.01 1.06 M113.3 182.02 C148.26 142.07, 185.06 102.47, 269.52 -1.23 M120.34 181.19 C172.58 113.4, 235.5 44.51, 274.16 2.92 M118.18 181.49 C169.49 124.26, 216.28 69.58, 275.79 -0.46 M124.91 178.21 C155.54 139.73, 189.03 104.51, 278.99 1.9 M122.79 181.75 C160.2 138.75, 196.64 98.15, 279.7 -0.26 M126.77 181.4 C169.8 129.86, 213.83 86.8, 285.45 1.18 M130.5 181.43 C166.56 131.98, 208.69 87.5, 286.85 1.06 M132.11 183.8 C186.75 114.31, 242.91 56.18, 290.21 -1.51 M133.13 182.86 C188.14 115.39, 245.18 52.37, 291.81 -0.69 M137.99 182.81 C200.81 109.84, 263.14 38.65, 298.16 -3.11 M137.95 181.87 C185.38 125.17, 231.35 71, 296.67 -0.87 M141.9 183.02 C198.49 120.64, 252.48 56.92, 302.03 -2.48 M145.79 181.21 C187.52 129.32, 233.03 76.7, 300.91 -0.87 M151.91 183.57 C201.23 121.48, 251.4 66.67, 309.21 -2.93 M151.32 180.36 C203.72 116.52, 259.94 53.36, 306.69 -0.01 M156.38 181.02 C220.52 106.58, 281.32 35.99, 314.76 0.53 M154.61 182.3 C214.41 117.12, 269.37 52.96, 311.97 -0.37 M160.07 184.09 C216.04 119.56, 268.56 60.58, 321.5 -1.4 M160.65 180.72 C218 116.64, 276.18 47.61, 319.15 1.22 M163.69 179.46 C220.32 120.53, 274.89 62.06, 325.1 2.05 M164.21 179.65 C210.52 126.23, 256.79 74.15, 323.58 -0.07 M173.69 180.69 C204.31 141.97, 230.62 107.89, 320.03 6.46 M169.52 181.65 C204.82 145.97, 241.05 106.29, 321.48 8.37 M174.55 179.81 C221.77 133.74, 261.78 86.37, 324.18 12.33 M174.94 179.74 C218.37 130.31, 261.53 82.29, 320.96 12.17 M182.88 180.1 C208.51 148.68, 241.58 113.99, 320.3 22.91 M182.95 183.03 C212.58 144.81, 240.9 110.61, 323.09 18.72 M185.82 180.15 C228.29 138.04, 267.71 89.48, 324.46 27.08 M188.13 180.48 C227.59 127.6, 275.55 76.69, 321.45 26.22 M188.91 179.7 C232.23 141.97, 268.02 99.5, 319.54 29.66 M190.94 180.71 C241.2 126.53, 288.46 70.85, 321.45 33.9 M196.81 177.84 C223.32 142.35, 254.8 114.7, 322.87 41.37 M196.83 183 C233.46 142.33, 267.19 104.02, 322.54 38.32 M203.07 178.78 C239.81 138.6, 283.86 88.78, 318.32 44.71 M201.07 180.13 C246.06 134.39, 287.11 85.78, 322.3 46 M206.19 182.29 C241.05 143.82, 269 112.94, 322.57 51.88 M209.59 181.92 C250.82 135.4, 291.03 87.4, 321.16 50.04 M210.15 181.79 C245.17 146.48, 271.46 115.22, 319.87 55.78 M211.94 180.12 C254.99 135.8, 294.33 84.74, 323 57.9 M215.48 178.42 C246.67 152.44, 272.22 123.78, 318.68 60.23 M218.6 179.33 C252.39 140.78, 283.7 106.17, 319.95 64.31 M219.93 179.2 C263.43 136.43, 300.38 99.11, 318.14 70.74 M225.81 181.92 C248.63 156.49, 274.91 127.85, 321.02 67 M233.55 179.11 C260.21 143.76, 290.24 108.21, 319.94 72.95 M228.85 179.01 C254.38 155.71, 275.01 133.69, 320.23 75.83 M231.36 183.27 C267.6 143.76, 300.54 107.77, 320.25 79.01 M234.88 183.35 C264.42 152.41, 291.89 119.81, 322.68 80.04 M240.44 181.03 C260.2 162.82, 280.76 135.65, 320.22 90.39 M240.23 180.33 C264.79 152.58, 287.88 124.78, 323.21 85.89 M244.59 184.1 C274.08 153.81, 300.99 121.15, 322.54 92.09 M243.23 180.84 C275.38 150.33, 299.57 117.34, 321.23 91.61 M247.41 184.67 C279.14 147.85, 308.98 115.39, 317.97 95.44 M249.53 180.25 C268.85 158.65, 287.69 137.63, 323.36 101.12 M256.96 177.57 C282.15 149.16, 308.04 122, 325.19 104.53 M256.87 179.38 C277.51 158.29, 296.24 134.74, 321.51 103.16 M260.88 182.35 C272.96 163.21, 287.37 145.56, 322.76 110.56 M260.44 179.34 C284.65 157.1, 307.56 129.45, 321.01 112.51 M266.99 177.42 C282.95 160.27, 302.95 144.63, 319.55 114.71 M265.69 182.59 C282.8 159.96, 299.71 143.96, 321.24 117.69 M269.8 178.93 C286.7 164.09, 299.08 154.84, 323.4 126.28 M272.93 180.5 C282.87 165.09, 294.72 152.13, 320.44 121.88 M278.39 179.15 C289.96 167.24, 300.3 151.59, 323.54 129.55 M277.5 182.66 C293.61 163.79, 311.79 141.46, 320.4 130.59 M284.3 184.84 C300.18 166.42, 308.32 144.29, 318.54 134.17 M283.81 179.97 C297.25 163.88, 312.9 148.61, 322.5 136.89 M288.05 180.11 C296.66 164.61, 314.97 156.29, 324.2 141.55 M288.02 182.38 C295.86 170.14, 305.8 157.91, 321.86 140.56 M295.72 184.57 C304.75 170.54, 312.72 158.12, 320.01 147.66 M292.85 181.83 C299.96 174.29, 309.09 164.22, 321.93 145.81 M298.07 183.44 C308.85 168.33, 313.95 158.79, 325.8 153.25 M298.87 181.15 C304.17 174.08, 307.32 171.5, 321.4 152.18 M307.22 177.69 C312.02 174.88, 315.6 162.91, 324.18 158.69 M303.36 181.03 C307.16 175.18, 311.48 171.24, 320.73 160.25 M311.71 178.11 C316.05 174.2, 320.56 169.35, 324.46 162.29 M307.58 180.95 C310.3 177.87, 314.3 174.06, 320.38 166.82 M313.48 182.72 C316.18 176.42, 318.97 177.22, 319.87 171.44 M314.93 181.85 C314.37 178.98, 316.27 177.34, 321.19 173.45" stroke="#82c91e" stroke-width="0.5" fill="none"></path><path d="M1.06 -1.57 C94.2 -1.1, 194 2.37, 317.5 -1.24 M-0.77 -0.62 C109.64 2.09, 221.27 2.17, 319.27 0.71 M320.96 3.25 C322.53 50.86, 324.65 101.36, 323.29 180.69 M320.23 -2 C317.73 62.71, 317.85 124.34, 319.3 178.72 M321.79 182.24 C217.77 183.78, 119.91 185.69, -0.26 178.58 M318.76 181.26 C200.22 178.54, 79.43 178.95, -0.21 181.01 M1.7 182.59 C-5.59 133.34, -0.48 86.28, 0.37 1.69 M-0.24 179.66 C1.38 116.72, -2.02 55.45, -1.22 1.99" stroke="#000000" stroke-width="1" fill="none"></path></g><g stroke-linecap="round" transform="translate(1410.0000000000018 469.9999999999998) rotate(0 170 170)"><path d="M0 0 C0 0, 0 0, 0 0 M0 0 C0 0, 0 0, 0 0 M0.48 5.25 C0.18 3.89, 3.92 2.36, 5.46 0.17 M-0.65 6.23 C0.23 4.42, 2.02 4.31, 5.58 0.91 M2.81 9.95 C5.04 8.3, 6.35 5.38, 12.69 2.64 M0.32 11.5 C2.26 7.37, 6.61 4.45, 9.57 -0.09 M1.43 15.52 C5.51 12.78, 4.86 9.18, 17.91 3.57 M-2.01 18 C3.68 11.69, 8.2 8.27, 16.07 0.72 M0.14 22.19 C11.72 12.39, 14.8 4.57, 21.01 3.83 M-0.9 23.15 C7.19 15.48, 12.4 11.95, 20.17 -0.39 M1.95 30.91 C5.03 22.18, 9.63 18.56, 25.96 -2.75 M1.59 30.33 C4.43 22.9, 12.64 15.55, 25.9 0.78 M3.49 40.85 C13.83 25.67, 25.48 9.79, 32.34 -1.23 M1.4 36.14 C10.45 21.89, 20.68 11.55, 30.67 1.31 M-2.1 40.99 C9.76 28.14, 26.98 15.52, 38.7 -2.95 M-0.58 42.49 C12.15 27.4, 21 17.7, 38.7 1.24 M-3.03 46.28 C6.71 40.54, 14.72 32.36, 43.99 2.33 M-1.53 47.05 C9.61 40.42, 18.35 30.13, 43.14 -0.43 M-0.16 58.22 C14.4 33.2, 38.41 15.64, 50.35 -1.71 M0.89 55.91 C15.76 34.57, 33.23 17.88, 47.83 0.37 M3.9 64.78 C13.2 42.02, 28.58 23.29, 56.57 -2.08 M-1.86 61.78 C20.86 39.23, 37.45 17.41, 53.46 0.84 M-2.51 64.99 C9.82 54.7, 26.32 38.01, 60.92 3.44 M0.39 68.69 C19.64 48.1, 36.55 25.9, 59.25 1.35 M-1.94 73.09 C16.93 52.51, 32.54 41.15, 62.53 -1.88 M1.47 74.37 C22.19 47.64, 46.04 19.35, 65.14 1.5 M-1.67 78.64 C24.53 58.55, 43.03 28.82, 72.26 2.19 M1.85 78.56 C19.64 55.84, 40.48 35.45, 69.49 -1.77 M3.02 83.15 C19.05 60.17, 34.99 40.68, 74.1 0.7 M0.14 85.78 C22.98 59.6, 45.44 30.06, 75.26 -2.17 M3.7 87.94 C27.88 58.53, 53.38 23.62, 76.01 -0.6 M0.82 93.43 C23.63 65.33, 45.25 37.56, 79.69 2.02 M-0.47 98.81 C37.52 54.48, 65.97 21.28, 87.34 0.62 M1.74 98.6 C16.44 78.42, 35.94 54.2, 84.5 0.01 M-0.59 102.11 C40.39 63.57, 73.78 19.18, 89.64 3.13 M1.11 102.36 C32.12 65.31, 69.02 27.09, 89.58 -1.42 M-3.88 108.89 C36.8 64.92, 71.03 26.95, 94.11 2.03 M-1.54 108.1 C34.16 75.14, 64.45 36.4, 95.15 -1.88 M-0.93 115.53 C35.37 80.1, 63.95 44.29, 104.42 -3.38 M0.14 114.32 C23.61 85.34, 47.04 61.14, 99.49 -1.28 M-2.85 119.62 C36.3 83.37, 70.15 38.91, 110.11 -1.74 M1.07 120.7 C24.35 94.06, 49.08 64.76, 105.07 0.18 M-0.54 128.55 C27.89 93.08, 61.78 50.6, 113.44 -1.71 M-1.78 128.92 C42.57 79.15, 85.92 32.13, 112.32 0.14 M1.46 131.68 C49.68 80.69, 95.03 23.43, 114.15 0.6 M-0.38 132.97 C44.17 79.95, 87.26 29.22, 117.08 -1.17 M3.14 140.43 C48.45 87.32, 91.84 34.69, 123.6 1.77 M-0.72 139.45 C25.04 110.55, 51.2 80.27, 123.6 1.44 M-2.29 144.93 C42.85 91.86, 85.01 44.67, 126.88 -0.76 M0.75 146.39 C48.6 90.78, 97.83 38.81, 127.54 -1.62 M2.24 150.15 C40.02 102.85, 83.85 54.31, 135.28 3.45 M0.74 151.44 C43.85 102.64, 84.2 54.13, 131.55 0.11 M-0.31 155.62 C29.6 123.91, 57.71 90.19, 138.59 3.42 M0.88 158.19 C29.19 124.49, 60.51 87.8, 136.57 1.18 M2.12 164.12 C48.96 114.31, 93.34 55.71, 140.39 0.46 M-1.16 165.07 C33.25 126.7, 62.69 90.95, 142.59 -1.2 M-2.6 171.15 C33.4 128.46, 76.52 88.02, 148.58 -2.99 M-0.36 171.75 C46.42 120.47, 90.08 69.53, 148.06 -0.66 M-0.32 178.87 C43.77 128.72, 86.73 78.5, 153.18 -0.86 M0.13 175.6 C57.19 112.25, 112.09 45.24, 154.07 -1.47 M2.53 183.08 C41.17 131.51, 85.83 81.31, 159.28 0.38 M0.19 184.42 C38.15 138.49, 78.56 93.43, 159.94 -0.29 M1.41 186.52 C64.18 114.91, 127.12 42.07, 164.91 -1.98 M1.18 189.31 C59.49 117.83, 124.78 42.87, 164.21 1.02 M-1.77 195.45 C40.22 149.43, 83.27 98.36, 166.26 3.35 M-0.05 193.94 C39.66 147.95, 79.02 97.88, 170.1 0.01 M2.1 201.07 C43.85 152.51, 85.22 104.62, 175.63 -1.69 M0.55 201.54 C37.81 155.46, 78.46 107.38, 173.52 0.59 M2.26 208.07 C46.02 152.24, 94.58 101.77, 181.03 -2.09 M1.8 206.85 C53.54 148.34, 105.16 90.25, 181.07 1.29 M-1.71 213.32 C44.45 158.37, 91.14 111.31, 183.76 0.44 M-0.55 213.28 C67.52 129.95, 137.94 51.41, 185.95 -0.92 M-2.2 220.89 C57.86 158.65, 110.47 93.73, 189.46 -0.98 M-0.96 218.27 C64.32 144.14, 124.86 73.59, 191.72 -0.12 M-0.77 224.28 C67.23 142.61, 142.34 63.01, 195.13 1.22 M-0.78 226.14 C60.01 160.22, 120.68 92.84, 195.06 0.24 M2.37 234.05 C62.11 157.72, 126.16 85.53, 199.42 -2.63 M1.17 232.56 C78.46 142.1, 157.18 51.52, 202.24 1.23 M-1.44 235.71 C66.22 164.27, 126.37 88.15, 207.58 -2.67 M-0.71 238.6 C73.43 152.46, 148.66 64.34, 207.04 -0.55 M-0.07 243.57 C81.74 149.54, 163.67 58.26, 212.02 -0.35 M1.1 245.04 C49.16 192.08, 97.12 137.1, 212.52 0.22 M0.97 247.96 C55.28 187.32, 105.33 126.67, 214.99 -0.97 M0.99 251.41 C72.77 166.5, 144.48 83.95, 218.08 0.15 M-0.09 258.23 C69.29 178.48, 138.09 99.52, 220.01 1.68 M0.38 255.65 C50.28 203.63, 97.38 149.09, 223.51 0.42 M-0.93 259.92 C54.63 198.53, 106.78 132.4, 226.45 -1.19 M0.46 263 C59.77 195.37, 118.67 126.27, 227.93 0.65 M-1.3 269.59 C48.92 213.61, 97.76 156.43, 232.55 -1.92 M0.76 267.53 C72.27 183.01, 144.08 99.62, 233.21 0.98 M-0.2 275.96 C50.72 216.96, 102.69 162.49, 240.12 -1.91 M-0.03 275.29 C96.05 168.77, 189.32 58.69, 237.33 -0.42 M-1.4 283.05 C83.16 184.59, 170.94 87.15, 244.95 -0.17 M-0.3 280.96 C71.69 199.7, 144.56 114.85, 243.37 1.09 M2.23 285.37 C94.66 177.81, 186.66 70.11, 250.11 0.23 M0.55 286.76 C72.88 202.41, 143 120.13, 249.18 1.41 M2.12 291.12 C78.87 201.76, 157.78 113.85, 253.11 0.38 M-0.35 292.17 C79.92 204.26, 157.41 113.8, 255.22 -1.13 M0.86 300.59 C52.28 232.7, 110.48 170.2, 260.02 -1.9 M0.52 297.27 C72.82 216.13, 144.56 133.48, 258.7 -0.23 M1.58 304.87 C57.61 234.5, 117.24 168.41, 264.82 -0.61 M0.11 303.95 C86.05 212.39, 167.41 117.38, 266.16 -0.56 M1.34 311.41 C84.57 211.37, 168.8 112.4, 272.2 2.25 M-1.3 311.82 C57.05 244.38, 112 182.62, 269.38 0.2 M-1.39 315.28 C90.14 216.81, 179.14 112.19, 277.82 -0.61 M-0.62 316.31 C65.47 239.28, 129.77 164.29, 275.98 -0.5 M1.74 322.55 C85.49 224.52, 173.01 122.57, 281.17 2.13 M-0.05 322.89 C83.62 228, 166.74 131.45, 281.29 0.44 M-0.42 328.73 C57.57 259.45, 114.76 194.58, 288.1 -1.02 M-0.57 328.7 C71.19 245.74, 144.56 161.49, 287.36 0.32 M0.63 336.48 C104.71 214.61, 209.58 94.95, 293.28 0.6 M-0.64 336.21 C86.14 236.62, 171.52 138.19, 290.79 1.06 M0.86 342.31 C105.81 217.88, 211.48 96.1, 296.21 -0.46 M0.22 341.11 C84.22 246.95, 165.72 152.8, 296.48 0.03 M7.02 338.9 C75.34 261.54, 145.52 181.08, 303.28 1.59 M6.72 340.53 C92.77 240.4, 181.94 138.56, 301.79 0.13 M10.82 339.3 C83.09 260.46, 154.27 180.13, 308.01 -1 M11.57 340.94 C90.21 255.73, 166.17 168.23, 308.35 -1.18 M16.54 340.21 C86.62 256.85, 160.78 171.58, 312.97 0.63 M17.43 340.86 C119.01 220.97, 223.34 101.7, 312.38 0.07 M23.45 341.97 C140.8 204.62, 252.87 73.34, 317.64 -2.07 M20.79 340.19 C110.9 238.75, 200.22 136.97, 318.01 -0.37 M29.25 341.47 C131.13 215.36, 241.34 89.83, 324.87 -1.21 M27.33 341.01 C100.3 255.32, 175.75 170.14, 323.92 0.77 M32.54 339.03 C127.92 224.96, 227.92 111.21, 328.8 1.27 M32.64 340.15 C137.5 218.84, 243.52 97.85, 328.97 -0.43 M36.24 339.09 C107.41 257.7, 177.37 175.28, 332.8 0.55 M37.61 339.51 C130.6 234.98, 221.59 127.54, 334.18 0.66 M42.37 341.79 C125.36 245.85, 205.77 155.82, 341.29 1.07 M42.57 340.63 C140.65 227.19, 237.41 118.15, 338.8 0.55 M47.76 339.67 C165.49 207.06, 277.35 77.79, 341.02 2.68 M49.26 339.6 C121.36 257.88, 191.43 177.6, 342.16 1.82 M54.28 340.06 C164.11 215.15, 275.88 88.76, 341.11 10.61 M53 340.92 C149.01 230.56, 245.99 119.64, 341.77 9.65 M60.6 338.74 C125.68 264.39, 191 186.12, 344.46 14.54 M60.23 340.74 C129.12 264.1, 195.45 188.62, 342.52 13.98 M64.62 342.74 C154.95 234.55, 246.46 128.42, 342.92 22.78 M64.87 340.73 C147.1 248.81, 225.4 159.22, 343.35 21.65 M71.23 338.34 C140.7 266.25, 209.78 185.15, 341.81 25.68 M70.02 341.29 C146.48 247.72, 223.72 157.14, 342.41 27.21 M74.43 340.1 C166.63 232.23, 262.79 124.11, 340.64 33.92 M74.16 341.26 C150.26 254.14, 228.5 163.99, 342.87 32.19 M81.98 341.53 C136.77 278.19, 190.96 214.12, 341.88 40.23 M81.19 339.19 C153.77 251.06, 230.85 162.37, 342.09 38.08 M83.74 338.48 C181.42 229.68, 281.38 117.85, 342.24 46.32 M85.61 339.86 C145.91 270.86, 208.92 199.51, 343.09 45.44 M90.81 340.81 C186.81 238.49, 276.59 128.41, 344.28 53.1 M91.81 340.25 C175.34 241.87, 259.6 143.72, 343.16 51.31 M98.53 342.67 C167.82 254.93, 241.44 169.91, 345.03 58.59 M96.82 339.97 C159.79 270.87, 220.13 200.77, 343.45 56.63 M102.01 338.61 C158.27 270.29, 218.28 202.86, 344.82 65.19 M99.94 342.15 C192.24 230.56, 289.8 120.88, 343.16 63.25 M109.27 342.51 C178.16 260.88, 244.13 181.81, 339.89 68.04 M107.77 341.21 C193.86 242.25, 283.59 139.17, 342.35 69.63 M112.24 338.86 C168.58 278.11, 225.37 211.17, 340.58 73.6 M112.87 340.97 C171.05 275.85, 228.33 210.63, 341.65 75.69 M116.42 338.66 C187.74 254.83, 261.57 170.84, 341.88 80.48 M117.55 339.71 C197.31 251.68, 274.45 160.89, 343.71 81.26 M123.32 338.72 C177.7 274.39, 239.54 207.2, 342.84 85.19 M121.88 339.96 C202.88 246.42, 285.57 153.33, 343.93 86.01 M130.16 342.47 C173.61 288.37, 226.35 233.29, 344.34 92.3 M128.26 339.86 C174 289.96, 219.04 237.08, 341.38 94.41 M132.41 343.19 C189.46 279.98, 238.46 218.26, 342.98 99.78 M134.03 340.58 C176.78 284.12, 224.09 230.32, 343.3 99.51 M140.71 340.77 C187.83 289.26, 227.62 235.08, 342.91 104.98 M138.49 340.25 C194.56 277.61, 248.37 215.72, 341.54 105.73 M144.83 341.44 C198.69 273.96, 256.89 208.35, 343.04 114.1 M144.17 341.56 C217.11 256.86, 291.4 171, 343.23 111.93 M146.96 341.45 C191.53 293.4, 230.82 250.45, 344.33 118.11 M149.98 339.93 C219.76 259.13, 291.82 175.34, 342.17 118.73 M154.48 343 C202.72 290.57, 250.46 233.48, 344.63 123.24 M155.1 339.81 C228.78 259.96, 300.08 177.22, 341.47 122.99 M161.4 337.6 C208.72 285.01, 254.61 232.09, 340.19 132.9 M160.62 340.01 C200.3 294.74, 238.89 252.14, 341.49 131.96 M163.61 341.04 C228.23 259.65, 299.78 186.71, 342.34 138.83 M165 341.12 C217.08 281.68, 267.73 219.97, 342.93 135.38 M171.1 339.79 C225.22 273.19, 283.13 209.48, 341.85 139.72 M171.61 339.35 C208.58 298.82, 249.3 251.56, 342.38 142.9 M174.62 338.36 C231.89 276.48, 290.99 205.52, 344.43 150.88 M174.73 340.7 C234.13 273.24, 292.98 206.91, 342.4 148.01 M182.52 342.93 C240.82 272.33, 298.91 202.9, 343.56 157.45 M179.87 339 C227.74 283.35, 276.18 228.82, 343.99 154.38 M186.78 339.21 C238.58 284.35, 286.09 228.13, 344.46 161.44 M186.6 339.7 C236.66 284, 287.12 227.28, 343.76 161.2 M194.38 340.5 C253.51 269.18, 315.31 202.34, 339.29 163.45 M192.64 340.95 C233.25 292.49, 272.22 248.89, 342.34 167 M199.05 339.08 C244.36 287.92, 291.55 228.73, 345.6 173.26 M195.96 341.08 C244.01 290.15, 290.61 239.12, 341.92 171.95 M199.76 341.99 C255.83 277.72, 315.42 210.84, 339.64 182.23 M202.85 339.45 C257.92 277.77, 311.62 219.1, 341.36 177.82 M206.53 340.99 C249.37 291.89, 299 234.97, 340.25 184.04 M206.11 340.99 C259.5 283.23, 311.29 222.25, 343.78 183.75 M209.72 343.95 C246.15 308.86, 276.62 267.95, 341.18 188.82 M213.28 340.39 C246.6 296.73, 281.22 256.34, 340.69 193.42 M218.25 338.25 C257.48 291.82, 293.11 247.32, 344.43 200.94 M216.58 340.48 C260.6 289.8, 305.6 238.53, 341.78 198.78 M226.86 341.96 C249.48 315, 274.08 278.4, 346.34 207.3 M223.83 339.73 C250.51 313.86, 275.58 283.17, 344.24 203.08 M225.01 340.37 C266.29 294.04, 310.5 253.99, 343.27 207.13 M228.88 340.68 C268.64 297.65, 307.98 249.23, 343.46 208.42 M231.66 342.02 C252.84 317.08, 283.11 284.04, 346.2 215.76 M233.11 340.03 C260.41 310.93, 283.41 284.15, 340.77 215.66 M240.63 338.49 C258.8 318.23, 282.24 290.44, 345.42 221.17 M239.61 340.76 C272.03 306.64, 302.25 272.26, 343 223.2 M247.48 344.32 C281.15 297.42, 318.78 251.03, 344.74 224.21 M242.9 342.12 C275.71 305.91, 306.94 266.07, 341.48 227.32 M250.86 340.87 C281.93 306.99, 312.17 266.42, 343.59 234.65 M251.1 339.76 C286.28 299.43, 323.66 259.46, 340.96 232.47 M255.45 340.21 C279.83 309, 304.1 276.39, 345.77 239.86 M255.6 339.73 C285.91 305.1, 314.85 271.49, 341.18 240.11 M257.25 336.97 C280.3 317.84, 299.9 291.5, 346.33 244.64 M261.28 338.6 C281.29 316.78, 303.55 292.02, 342.54 246.75 M262.53 340.25 C295.99 311.23, 322.87 276.87, 340.27 255.87 M264.17 341.49 C292.56 310.38, 315.96 282.34, 343.63 252.77 M273.17 341.45 C292.85 314.97, 325.15 282.94, 344.68 254.63 M269.68 342.13 C286.57 320.43, 304.12 302.82, 342.2 256.71 M273.52 338.19 C301.74 310.02, 332.03 283.03, 344.96 268.32 M274.21 340.95 C294.52 318.94, 308.54 300.46, 342.13 263.64 M279.8 342.14 C302.1 313.01, 320.32 293.08, 339.46 271.29 M283.41 341.09 C304.51 319.09, 324.15 291.91, 340.96 271.92 M286.98 338.94 C299.99 323, 313.74 310.13, 346.43 276.72 M285.86 342.55 C306.39 318.74, 328.92 294.12, 341.6 277.27 M294.13 344.05 C308.59 323.34, 322.75 302, 344.67 285.24 M291.21 342.14 C306.55 328.38, 318.52 311.63, 343.82 283.61 M299.32 338.63 C307.38 325.72, 314.77 316.07, 339.75 285.05 M295.9 339.66 C309.2 328, 321.56 314.12, 343.25 287.33 M300.97 341.4 C312.7 328.69, 321.74 320.23, 346.09 296.04 M301.36 341.84 C317.41 324.4, 329.65 309.2, 344.32 295.67 M308.75 344.56 C317.64 329.56, 329.2 320.59, 339.77 298.44 M307.68 340.53 C317.73 326.75, 328.58 318.03, 341.83 299.43 M312.94 337.59 C326.17 326.61, 330.31 317.43, 341.33 304.68 M311.78 340.65 C319.7 331.38, 329.22 322.18, 342.62 307.13 M319.3 339.22 C326.24 336.24, 333.05 328.58, 344.53 311.99 M317.15 342.33 C328.1 331.5, 336.39 322.09, 343.08 313.79 M326.46 341.21 C335.25 331.01, 341.23 326.1, 346.48 322.58 M323.97 340.94 C329.79 333.5, 336 327.15, 342.14 319.21 M328.8 340.29 C335.27 336.13, 332.38 333.99, 341.83 327.71 M330.85 341.14 C335.21 337.08, 340.81 328.22, 344.25 324.34 M333.55 339.54 C337.19 337.54, 342.02 334.13, 343.23 329.33 M333.03 341.47 C337.85 338.02, 340.11 336.14, 342.87 330.41" stroke="#ced4da" stroke-width="0.5" fill="none"></path><path d="M2.3 -1.13 C89.23 -0.13, 184.45 -0.84, 338.17 -0.07 M-0.11 -1.28 C124.58 -2.72, 247.05 -2.77, 339.14 -0.23 M340.42 -2.43 C339.91 131.7, 344.06 259.54, 342.17 341.07 M340.41 -0.07 C340.4 133.08, 341.4 265.58, 338.74 339.71 M340.5 341.25 C227.34 341.15, 113.11 341.27, 1.73 339.06 M340.76 339.19 C215.3 338.75, 91.37 339.34, -0.07 339.81 M2.61 341.69 C3.99 259.77, 4.79 177.11, 1.17 0.6 M0.06 340.17 C-2.25 236.11, -0.96 132.52, 0.37 0.62" stroke="#000000" stroke-width="1" fill="none"></path></g><g stroke-linecap="round"><g transform="translate(360.06939437395636 469.71554492619373) rotate(270 299.9306053347109 0.28445487191163465)"><path d="M0.44 1.11 C50.06 -106.31, 97.72 -213.69, 150.69 -329.72 M0.23 0.49 C36.11 -75.82, 70.92 -152.99, 149.91 -329.26 M149.26 -329.36 C249.14 -328.42, 348.42 -328.63, 449.51 -329.41 M149.07 -328.73 C250.82 -328.2, 351.16 -328.41, 450 -328.79 M450.56 -328.8 C495.19 -226.24, 541.48 -123.91, 599.68 0.59 M449.18 -329.24 C483.36 -252.28, 517.74 -175.68, 599.47 -0.29 M599.93 -0.87 C549.21 108.12, 500.94 213.78, 448.47 329.1 M598.63 -0.36 C563.08 79.1, 527.29 158.38, 448.96 329.14 M450.23 328.06 C374.6 328.1, 299.79 328.2, 148.49 329.39 M449.92 328.54 C332.99 331.16, 216.62 330.56, 149.43 328.5 M150.82 329.81 C115.19 252.21, 79.75 174.79, 0.68 0.39 M149.98 329.42 C108.09 237.66, 66.09 146.44, -0.07 -0.06" stroke="#000000" stroke-width="1" fill="none"></path></g></g><mask></mask><g stroke-linecap="round"><g transform="translate(160.1981413776282 499.66979877317124) rotate(270 489.5333125211296 0.33020122682842157)"><path d="M0.8 0.53 C90.99 -241.31, 183.1 -481.14, 245.39 -638.66 M0.08 0.39 C96.96 -249.62, 192 -499.11, 244.87 -639.03 M244.22 -639.4 C440.19 -639.09, 633.81 -639.41, 734.53 -638.28 M245.02 -638.93 C438.59 -639.33, 632.69 -639.4, 734.5 -639.06 M733.75 -638.22 C816.18 -422.43, 900.06 -205.19, 978.31 -0.31 M734.19 -638.67 C826.77 -403.28, 916.3 -167.98, 979.08 0.35 M979.53 -0.79 C919.7 163.54, 856.53 325.69, 734 638.76 M978.78 0.29 C904.38 190.47, 832 381.18, 734.16 639.05 M734.02 639.42 C595.92 640.58, 459.59 639.99, 245.19 639.05 M734.54 638.44 C583.25 638.18, 433.07 638.68, 244.62 638.44 M244.67 638.52 C174.83 456.54, 104.78 274.3, -0.47 0.53 M244.64 638.96 C182.6 476.29, 119.77 313.38, 0.23 -0.11" stroke="#000000" stroke-width="1" fill="none"></path></g></g><mask></mask><g stroke-linecap="round" transform="translate(1470.0000000000018 629.9999999999998) rotate(0 120 50)"><path d="M0.93 -0.55 L238.39 -1.86 L238.91 101.32 L1.07 99.32" stroke="none" stroke-width="0" fill="#f9cb9c"></path><path d="M-0.34 1.44 C54.65 -0.65, 110.06 1.83, 238.91 -1.14 M0.52 -0.07 C70.6 -0.27, 142.89 -1.14, 240.05 -0.54 M241.6 0.31 C239.01 26.37, 241.74 57.76, 238.92 101.63 M240.81 0.31 C240.84 33.64, 241.56 68.41, 240.92 99.05 M239.83 100.31 C174.04 100.47, 107.52 99.7, 1.08 101.08 M239.71 100.47 C175.97 98.63, 113.17 99.27, 0.59 99.96 M1.15 101.96 C1.86 71.6, 1.84 43.63, 0.68 0.88 M-0.09 100.04 C0.08 67.07, -0.17 35.78, -0.02 0.28" stroke="#000000" stroke-width="1" fill="none"></path></g><g transform="translate(1470.0000000000018 509.9999999999998) rotate(0 119.5 19)"><text x="0" y="27" font-family="Virgil, Segoe UI Emoji" font-size="29.999999999999993px" fill="#000000" text-anchor="start" style="white-space: pre;" direction="ltr">Driven adapters</text></g><g stroke-linecap="round" transform="translate(1450.0000000000018 609.9999999999998) rotate(0 120 50)"><path d="M-3.72 -2.19 L242.64 2.14 L238.64 97.37 L-0.2 103.92" stroke="none" stroke-width="0" fill="#fcddb3"></path><path d="M-2.53 -1.3 C69.61 -0.49, 132.06 1.62, 242.14 1.2 M0.9 0.15 C86.22 3.94, 173.03 3.56, 241.4 0.9 M236.18 1.8 C242.71 35.86, 243.57 77.65, 243.55 100.8 M239.23 1.35 C241.35 39.9, 238.72 75.69, 240.65 100.26 M240.42 102.01 C169.28 104.04, 102.97 100.71, 2.25 97.47 M240.3 100.44 C178.05 98.76, 112.87 97.35, -0.99 98.62 M0.36 102.5 C-0.4 65.63, -0.21 29.44, 0.2 1.19 M-1.36 99.77 C0.49 70.92, 0.47 42.83, -0.55 -1.61" stroke="#000000" stroke-width="1" fill="none"></path></g><g transform="translate(492.75820924496816 82.32612660727204) rotate(0 145 22.5)"><text x="0" y="32" font-family="Virgil, Segoe UI Emoji" font-size="36.217026229793824px" fill="#000000" text-anchor="start" style="white-space: pre;" direction="ltr">Application layer</text></g><g transform="translate(610.0000000000018 229.99999999999977) rotate(0 60.5 22.5)"><text x="0" y="32" font-family="Virgil, Segoe UI Emoji" font-size="36.217026229793824px" fill="#000000" text-anchor="start" style="white-space: pre;" direction="ltr">Domain</text></g><g stroke-linecap="round" transform="translate(1150.0000000000018 529.9999999999998) rotate(0 110 40)"><path d="M-3.94 -0.11 L218.97 -0.64 L223.08 82.43 L-0.65 81.65" stroke="none" stroke-width="0" fill="#c7c0db"></path><path d="M-2.75 -1.54 C70.95 2.23, 149.96 -0.43, 219.17 -2.48 M1.3 -1.52 C55.46 2.63, 112.18 2.16, 221.4 -1.18 M223.55 3.2 C223.17 32.18, 219.32 59.79, 216.88 77.85 M221.66 -0.23 C221.5 29.11, 221.73 56.42, 221 81.9 M218.1 81.2 C154.35 79.04, 84.4 79.99, -0.63 77.54 M218.42 78.73 C155.48 77.97, 91.64 78.22, -0.47 81.21 M0.67 81.65 C2.45 51.81, 0.24 15.61, 0.18 3.88 M1.61 81.04 C0.23 49.39, 0.1 21.24, -1.94 -1.78" stroke="#000000" stroke-width="1" fill="none"></path></g><g transform="translate(1170.0000000000018 549.9999999999998) rotate(0 76.5 12.5)"><text x="0" y="18" font-family="Virgil, Segoe UI Emoji" font-size="20px" fill="#000000" text-anchor="start" style="white-space: pre;" direction="ltr">Repository port</text></g><g stroke-linecap="round" transform="translate(410.0000000000018 349.9999999999998) rotate(0 110 40)"><path d="M3.52 -1.03 L219.94 1.6 L219.2 81.41 L2.44 77.52" stroke="none" stroke-width="0" fill="#b4a7d6"></path><path d="M-3.04 -3.09 C66.8 0.03, 136.49 3.71, 221.62 2.12 M-1.03 0.8 C82.43 2.13, 167.93 2.3, 221.36 0.92 M217.95 1.12 C218.92 24.78, 224.13 45.37, 221.05 78.14 M218.78 -0.97 C219.82 20.18, 220.84 43.8, 221.1 78.19 M219.68 78.49 C169.01 78.07, 117.28 73.64, -2.31 79.64 M220.21 79.43 C133.91 81.8, 48.91 81.97, 1.31 79.97 M-3.88 77 C-0.69 52.61, -1.4 28.46, -0.3 -1.64 M0.62 80.6 C1.07 61.61, 1.23 45.26, -1.97 0.42" stroke="#000000" stroke-width="1" fill="none"></path></g><g stroke-linecap="round" transform="translate(390.0000000000018 329.9999999999998) rotate(0 110 40)"><path d="M-1.03 -0.06 L221.6 -0.8 L221.41 82.44 L-2.48 77.72" stroke="none" stroke-width="0" fill="#c7c0db"></path><path d="M-3.09 -2.33 C65.65 1.57, 137.57 4.96, 222.12 2.74 M0.8 -0.93 C67.99 3.48, 136.92 3.64, 220.92 -0.69 M221.12 -1.39 C222.54 29.4, 222.32 52.22, 218.14 78.61 M219.03 -1.5 C218.93 30.14, 221.33 62.32, 218.19 78.78 M218.49 81.55 C144.97 82, 64.09 77.34, -0.36 83.03 M219.43 79.17 C167.11 79.87, 112.91 81.77, -0.03 80.25 M-3 79.75 C-2.56 52.85, -1.54 27.33, -1.64 -3.49 M0.6 81.48 C-2.84 55.59, -2.17 25.94, 0.42 1.76" stroke="#000000" stroke-width="1" fill="none"></path></g><g stroke-linecap="round" transform="translate(710.0000000000018 429.9999999999998) rotate(0 110 40)"><path d="M0.95 -3.7 L223.82 1.71 L222.22 79.9 L-3.32 77.12" stroke="none" stroke-width="0" fill="#b4a7d6"></path><path d="M3.42 0.29 C70.22 1.65, 143.86 1.4, 221.49 -0.44 M-0.09 -0.9 C50.8 3.61, 103.13 4.28, 221.44 -0.87 M217.65 -0.22 C215.86 27.52, 221.93 53.8, 219.72 78.11 M220.06 0.26 C220.91 20.86, 220.01 43.04, 218.28 80.45 M222.54 81.09 C145.76 84.83, 67.79 82.63, 0.99 78.17 M218.28 79.38 C150.5 77.42, 82.19 78.99, -1.28 79.24 M2.66 77.07 C0.04 54.16, 1.34 30, 2.57 -2.38 M-1.17 79.08 C-1.2 57.76, 0.55 36.9, 1.13 -1.22" stroke="#000000" stroke-width="1" fill="none"></path></g><g stroke-linecap="round" transform="translate(690.0000000000018 409.9999999999998) rotate(0 110 40)"><path d="M-3.7 3.82 L221.71 2.22 L219.9 76.68 L-2.88 79.27" stroke="none" stroke-width="0" fill="#c7c0db"></path><path d="M0.29 -1.1 C84.28 -2.53, 169.55 -2.27, 219.56 -2.35 M-0.9 -0.26 C55.95 1.22, 111.57 1.65, 219.13 0.36 M219.78 -3.26 C221.6 22.43, 222.22 38.98, 218.11 79.13 M220.26 1.27 C218.63 22.56, 218.56 42.66, 220.45 80.81 M221.09 80.72 C160.63 80.51, 97.8 83.78, -1.83 80.38 M219.38 78.91 C159.82 75.25, 102.62 74.95, -0.76 79.83 M-2.93 80.28 C-2.59 56.38, -3.56 32.16, -2.38 -1.24 M-0.92 79.86 C-1.04 52.31, -0.38 22.52, -1.22 0.48" stroke="#000000" stroke-width="1" fill="none"></path></g><g stroke-linecap="round" transform="translate(410.0000000000018 489.9999999999998) rotate(0 110 40)"><path d="M0.74 -0.52 L223.69 -0.37 L216.74 80.61 L-3.33 81.57" stroke="none" stroke-width="0" fill="#b4a7d6"></path><path d="M-1.64 -0.76 C80.61 0.31, 162.9 0.72, 222.2 -2.41 M0.39 0.71 C69.65 4.9, 141.42 3.82, 220.36 0.63 M217.89 0.44 C218.25 17.51, 215.61 36.03, 217.49 76.74 M219.12 -0.2 C220.44 19.42, 221.47 37.48, 220.14 78.68 M217.94 78.93 C147.6 83.16, 68.56 80.85, -0.25 78.76 M218.94 80.41 C134.63 83.82, 53.21 83.13, -0.04 78.56 M-0.01 76.09 C1.42 65.4, -0.03 44.6, -2.35 -2.25 M1.49 79.01 C-1.28 54.05, 0.05 29.32, -1.01 0.89" stroke="#000000" stroke-width="1" fill="none"></path></g><g stroke-linecap="round" transform="translate(390.0000000000018 469.9999999999998) rotate(0 110 40)"><path d="M-0.52 3.69 L219.63 -3.26 L220.61 76.67 L1.57 82.79" stroke="none" stroke-width="0" fill="#c7c0db"></path><path d="M-0.76 -0.78 C79.73 1.91, 159.83 4, 217.59 0.64 M0.71 -0.42 C51.51 0.42, 100.32 -0.49, 220.63 -1.14 M220.44 -1.31 C219.23 17.86, 219.02 41.13, 216.74 77.74 M219.8 0.3 C218.76 26.04, 217.35 49.57, 218.68 80.79 M218.93 82.3 C174.52 75.7, 126.02 77.49, -1.24 82.8 M220.41 78.4 C156.25 78.42, 90.15 77.64, -1.44 78.75 M-3.91 81.13 C3.89 57.13, 1.34 32.55, -2.25 0.5 M-0.99 79.04 C-2.34 54.76, -2.08 27.74, 0.89 0.37" stroke="#000000" stroke-width="1" fill="none"></path></g><g stroke-linecap="round" transform="translate(50.00000000000182 529.9999999999998) rotate(0 110 40)"><path d="M3.47 -0.87 L222.32 -1.57 L221.46 82.93 L-1.95 80.86" stroke="none" stroke-width="0" fill="#b4a7d6"></path><path d="M2.04 1.83 C53.04 1.79, 111.23 0.99, 216.6 -0.74 M0.94 -0.43 C64.64 2.12, 127.51 5.45, 219.11 -1.29 M223.61 1.78 C219.91 29.68, 219.54 59.73, 223.12 77.99 M218.49 1.37 C221.04 22.5, 220.01 45.46, 219.91 78.16 M222.05 77.37 C146.87 82.89, 72.62 79.16, -1.67 81.49 M220.02 79.78 C161.5 79.29, 102.25 80.24, -0.41 81.53 M-0.83 83.44 C2.85 56.71, -0.27 28.37, -1.87 2.31 M-1.45 78.6 C-0.08 50.4, -1.61 23.84, 1.39 1.74" stroke="#000000" stroke-width="1" fill="none"></path></g><g stroke-linecap="round" transform="translate(30.00000000000182 509.9999999999998) rotate(0 110 40)"><path d="M-0.87 2.32 L218.43 1.46 L222.93 78.05 L0.86 79.89" stroke="none" stroke-width="0" fill="#c7c0db"></path><path d="M1.83 -2.87 C84.93 -2.83, 167.2 -5.65, 219.26 -0.31 M-0.43 0.57 C75.7 -2.69, 156.35 -2.96, 218.71 1.69 M221.78 -1.56 C216.71 29.43, 214.97 65.85, 217.99 79.23 M221.37 1.41 C221.44 22.53, 221.94 44.2, 218.16 80.67 M217.37 80.23 C134.65 81.59, 45.26 80.59, 1.49 78.9 M219.78 80.52 C168.03 80.33, 118.42 79.63, 1.53 80.53 M3.44 81.8 C3.19 59.94, 1.3 40.67, 2.31 1.82 M-1.4 80.26 C-3.19 53.02, -2.1 29.98, 1.74 1.74" stroke="#000000" stroke-width="1" fill="none"></path></g><g stroke-linecap="round" transform="translate(930.0000000000018 669.9999999999998) rotate(0 140 50)"><path d="M1.89 -1.31 L282.64 3.82 L283.81 99.92 L-2.75 98.94" stroke="none" stroke-width="0" fill="#fa5252"></path><path d="M1.16 2.55 C93.91 -5.56, 184.77 -0.27, 280.54 2.56 M0.25 0.54 C112.32 2.25, 222.71 1.5, 280.27 1.01 M279.27 -1.73 C282.52 22.76, 277.19 40.01, 276.82 103.79 M278.62 -0.36 C279.67 20.16, 281.78 42.43, 279.54 101.5 M278.68 98.26 C168.62 103.26, 61.15 103.01, 2.01 100.24 M281.51 100.53 C205.27 98.27, 131.32 98.94, -0.89 101.21 M-0.52 100.92 C0.41 73.79, -0.41 54.5, 2.71 -3.35 M-0.09 101.95 C-3.22 61.83, -1.94 27.88, 0.46 1.37" stroke="#000000" stroke-width="1" fill="none"></path></g><g transform="translate(947.2223510742206 702.3490492023377) rotate(0 112.5 12.5)"><text x="0" y="18" font-family="Virgil, Segoe UI Emoji" font-size="20px" fill="#000000" text-anchor="start" style="white-space: pre;" direction="ltr">Nullable infrastructure</text></g><g stroke-linecap="round"><g transform="translate(1250.0000000000018 609.9999999999998) rotate(0 -49.28370010200888 30.403905159831027)"><path d="M0.45 -0.57 C-15.97 9.53, -81.42 50.7, -97.91 60.34 M-2.75 -3.35 C-19.41 7.29, -82.89 53.78, -99.02 64.15" stroke="#000000" stroke-width="1" fill="none"></path></g></g><mask></mask><g stroke-linecap="round"><g transform="translate(1744.1222779022537 1009.5241291218993) rotate(0 -265.02489585751596 -130.0971992635029)"><path d="M-0.82 1.12 C-89.25 -42.21, -443.53 -213.79, -532.23 -257.53 M3.94 -0.74 C-84.64 -43.6, -444.2 -218.26, -533.99 -261.32" stroke="#000000" stroke-width="1" fill="none"></path></g><g transform="translate(1744.1222779022537 1009.5241291218993) rotate(0 -265.02489585751596 -130.0971992635029)"><path d="M-502.53 -257.02 C-508.16 -259.04, -520.78 -263.43, -533.69 -257.86 M-505.58 -258.49 C-514.97 -260.89, -526.06 -259.48, -532.72 -259.86" stroke="#000000" stroke-width="1" fill="none"></path></g><g transform="translate(1744.1222779022537 1009.5241291218993) rotate(0 -265.02489585751596 -130.0971992635029)"><path d="M-511.46 -238.54 C-515.26 -244.96, -525.72 -253.81, -533.69 -257.86 M-514.5 -240.02 C-520.67 -249.34, -528.45 -254.76, -532.72 -259.86" stroke="#000000" stroke-width="1" fill="none"></path></g></g><mask></mask><g transform="translate(1430.0000000000018 1010.5241291218993) rotate(0 356 19.5)"><text x="0" y="27" font-family="Virgil, Segoe UI Emoji" font-size="30.769230769230763px" fill="#000000" text-anchor="start" style="white-space: pre;" direction="ltr">Useful for domain tests and local development</text></g><g stroke-linecap="round"><g transform="translate(1370.0000000000018 569.9999999999998) rotate(0 40.654298389516725 40.79340774238108)"><path d="M2.59 2.7 C16.08 15.4, 68.1 64.28, 80.76 77.57 M0.55 1.7 C13.75 14.54, 66.37 67.12, 78.94 79.88" stroke="#000000" stroke-width="1" fill="none"></path></g></g><mask></mask><g stroke-linecap="round" transform="translate(710.0000000000018 1109.9999999999998) rotate(0 430 250)"><path d="M0 0 C0 0, 0 0, 0 0 M0 0 C0 0, 0 0, 0 0 M-1.34 5.05 C2.36 4.81, 2.47 3.7, 4.45 -0.09 M-0.82 6.71 C0.56 5.21, 2.28 4.34, 5.24 1.06 M2.88 10.48 C2.5 7.96, 7.77 7.13, 13.47 2.71 M-0.23 10.85 C5.31 8.98, 9.21 3.8, 9.77 0.78 M0.91 17.83 C3.38 11.61, 7.65 10.18, 16.84 -2.07 M1.43 19.95 C4.46 10.88, 12.02 5.53, 16.11 -1.35 M2.59 20.57 C3.92 14.97, 13.39 16.38, 24.62 0.48 M-0.22 24.58 C7.03 18.06, 13.46 13.01, 21.64 0.17 M3.22 30.25 C8.89 20.04, 21.99 6.54, 28.79 3.14 M1.61 31.59 C6.28 19.51, 18.4 11.88, 25.68 -0.85 M-0.75 32.98 C12.11 22.69, 26.14 4.04, 32.22 -3.69 M0.06 36.97 C12.29 25.81, 21.74 10.44, 33.12 1.85 M-0.89 45.19 C14.64 28.82, 25.17 15.27, 36.26 0.62 M1.51 41.81 C7.71 31.33, 17.92 22.83, 35.89 1.17 M-2.62 45.79 C16.67 29.33, 31.63 14.65, 42.14 2.73 M-1.48 50.64 C12.73 32.75, 30.5 12.7, 43.13 0.77 M-0.5 56.73 C14.76 42.36, 23.96 27.14, 45.83 3.29 M-0.61 56.23 C18.17 32.48, 34.39 12.98, 46.91 1.14 M0.65 62.94 C13.65 35.92, 33.97 16.07, 55.4 0.75 M1.81 61.67 C14.3 44.23, 29.86 25.64, 52.39 -0.4 M2.48 68.9 C20.62 47.62, 37.45 27.62, 61.91 -0.72 M-1.58 69.14 C10.08 54.01, 25.35 39.54, 59.5 0.43 M3.22 70.8 C18.27 49.32, 46.73 23.75, 64.79 0.59 M1.8 74.28 C15.3 53.14, 31.54 36.23, 65.19 -1.12 M-0.09 80.65 C23.58 52.82, 42.8 32.33, 66.7 3.88 M-0.64 78.47 C23.23 51.24, 44.96 27.55, 69.03 -0.71 M1.06 82.91 C25.53 61.33, 39.8 39.47, 74.93 -2.36 M0.97 83.62 C17.07 63.5, 33.08 44.64, 75.45 -0.91 M1.52 94.38 C27.75 57.99, 53 31.08, 80.24 -0.42 M-1.42 92.3 C25.04 61.6, 51.54 30.93, 79.42 -1.1 M3.26 96.78 C23.85 74.41, 40.05 49.5, 82.25 0.48 M-2.24 98.48 C27.42 65.42, 58.83 31.14, 84.65 -1.41 M1.48 100.93 C24.97 75.9, 47.57 41.28, 92.35 4.07 M0.69 103.88 C25.27 77.95, 46.5 51.27, 89.24 -0.67 M-1.25 110.83 C31.43 67.32, 73.19 22.88, 95.01 2.9 M-0.88 108.3 C32.5 73.23, 62.92 37.22, 95.89 -0.34 M-2.22 116.32 C23.52 91.54, 54.63 58.9, 98.69 2.21 M-0.1 114.37 C22.14 88.12, 43.41 63.84, 101.6 1.56 M-3.74 124.92 C22.82 91.82, 45.09 69.41, 105.24 -4.16 M-1.33 121.7 C32.97 80.96, 66.13 43.83, 107.85 -1.51 M3.57 130.51 C38.14 85.96, 72.85 46.92, 112.72 -1.94 M1.38 127.59 C40.89 85.91, 76.68 39.34, 110.26 1.48 M-1.01 133.36 C44.79 87.52, 92.58 29.47, 116.16 4.22 M1.27 133.43 C31.86 99.93, 62.72 64.2, 116.15 -0.08 M-2.21 140.39 C38.26 94.66, 79.98 50.91, 121.71 2.85 M1.84 140.97 C27.44 110.94, 53.29 74.99, 121.52 -0.11 M-0.01 145.65 C35.24 103.86, 75.65 62.92, 124.77 -0.15 M0.36 147.16 C32.47 112.26, 61.21 77.83, 125.97 0.45 M-2.5 150.52 C41.07 106.03, 75.53 60.34, 130.94 -0.89 M-0.35 152.19 C40.97 106.88, 80.21 60.02, 132.33 0.42 M1.23 159.15 C54.69 99.93, 102.52 41.37, 137.87 -1.72 M-0.62 158.29 C26.57 127.52, 54.02 98.5, 138.06 -1.1 M-0.79 164.94 C31.48 130.72, 62.42 90.71, 142.8 0.14 M-0.61 165.74 C37.36 120.19, 77.25 77.78, 144 -0.15 M-2.37 168.74 C53.13 107.25, 102.32 45.97, 147.06 2.12 M0.1 172.35 C37.98 131.05, 73.47 90.43, 149.46 -1.21 M0.4 178.18 C47.77 117.82, 99.59 64.21, 154.31 -0.75 M0.92 176.9 C58.61 104.31, 120.52 35.08, 153.2 1.26 M-2.25 181.33 C52.01 129.44, 99.45 74.43, 162.11 1.68 M1.11 181.66 C49.26 131.16, 95.2 77.56, 159.19 -0.26 M1.17 187.13 C48.53 130.19, 104.35 69.76, 167.54 -3.4 M-1.67 188.74 C51.28 133.57, 102.52 73.45, 164 -1.73 M1.48 195.24 C67.48 120.06, 129.52 42.97, 171.96 -0.96 M-0.97 195.77 C40.19 152.44, 80.45 106.16, 169.2 -0.26 M-2.97 203.66 C72.64 118.68, 136.72 40.18, 173.12 1.2 M0.66 200.17 C67.17 122.21, 135.83 47.13, 175.67 0.23 M-2.36 205.23 C68.79 129.16, 137.04 51.6, 182.33 3.17 M-0.85 206.58 C66.79 130.28, 135.98 49.59, 179.35 0.06 M-2.61 210.56 C43.62 165.36, 85.43 112.7, 185.65 1.93 M-0.05 212.22 C55.97 150.18, 111.85 86.55, 185.01 0.75 M-1.73 218.91 C52.19 163.84, 102.65 103.41, 192.1 1.74 M-0.14 220.52 C40.6 170.39, 82.49 124.89, 189.2 0.25 M-0.9 225.53 C76.89 135.4, 153.53 49.27, 195.58 -2.63 M1.32 226.52 C70.55 145.91, 138.67 70.11, 197 -0.68 M-0.39 231.43 C60.99 168.71, 114.7 98.5, 203.04 2.28 M0.6 231.49 C46.3 176.23, 95.49 121.73, 202.43 -0.15 M2.09 236.31 C66.15 166.72, 123.1 96.8, 204.43 -2.87 M-1 238.73 C56.77 170.51, 116.32 102.33, 207.89 -0.97 M0.65 245.68 C63.01 171.58, 125.28 94.53, 210.99 -1.78 M-0.47 242.53 C65.73 167.42, 132.37 88.3, 210.74 -0.22 M0.05 247.57 C52.89 184.79, 108.84 121.99, 220.22 0.68 M0.74 249.91 C64.3 174.03, 131.8 96.85, 218.92 -0.97 M2.31 254.87 C46.17 202.42, 89.69 151.97, 220.28 0.78 M0.05 254.84 C78.98 162.42, 158.93 68.85, 221.52 0.77 M2.46 261.95 C65.39 190.46, 126.92 119.75, 227.38 1.79 M0.34 261.4 C57.87 192.2, 116.66 124.25, 228.93 -0.8 M-1.16 268.18 C74.4 188.02, 144.38 102.74, 234.52 2.3 M0.31 267.48 C50.99 208.11, 101.29 148.97, 233.07 -0.46 M0.43 271.87 C49.18 217.65, 97.73 159.76, 238.29 -2.11 M0.56 275.03 C51.63 220.06, 104.58 160.89, 237.94 -0.5 M0.64 281.29 C91.62 177.33, 178.8 74.81, 244.24 1.87 M-0.33 279.71 C91.4 176.46, 184.8 70.3, 244.94 0.63 M-1.1 285.49 C55.62 215.89, 116.02 151.32, 249.57 -1.3 M0.44 286.86 C81.26 193.47, 159.86 100.77, 248.16 0.69 M-1.85 292.65 C93.34 184.29, 185.96 74.27, 255.55 1.87 M-0.2 291.65 C75.16 210.43, 148.14 124.86, 254.14 -0.43 M1.97 298.79 C93.55 195.17, 186.1 88.47, 257.6 2.41 M1.25 299.25 C85.21 199.27, 171.53 99.19, 258.9 0.22 M0.66 304.8 C77.02 213.88, 155.38 124.1, 266.69 0.41 M-0.42 304.81 C61.52 232.85, 125.33 160.2, 265.82 -0.7 M1.22 309.83 C85.38 215.92, 167.3 114.98, 271.97 1.95 M-0.15 310.5 C76.71 222.58, 156.33 131.38, 270.45 0.19 M-1.9 318.75 C59.34 243.86, 120.49 173.45, 276.11 -1.25 M1.06 316.02 C67.52 236.96, 134.31 156, 275.48 -0.97 M-0.13 321.8 C73.33 235.14, 149.69 150.39, 280.55 1.55 M-0.49 322.26 C66.43 244.76, 136.4 165.89, 280.21 -0.3 M-0.58 328.82 C114.44 203.16, 225.01 79.67, 284.5 -1.46 M1.12 328.21 C62 259.7, 120.35 190.99, 286.34 0.08 M0.71 335.91 C94.33 226.53, 187.21 117.07, 292.22 0.34 M-0.05 335.85 C98.36 224.46, 195.59 111.63, 292.29 0.47 M-1.39 342.33 C90.77 237.22, 182.82 134.3, 296.21 -0.27 M0.73 341.12 C96.66 226.19, 194.21 114.88, 296.96 0.55 M-1.04 347.41 C119.46 210.14, 236.54 73.05, 303.76 -0.87 M-0.58 346.94 C83.5 245.95, 170.58 146.89, 301.86 -0.43 M0.73 353.6 C88.92 248.75, 181.59 144.24, 309.12 -0.84 M0.06 353.72 C87.24 253.68, 176.02 151.59, 306.91 -1.09 M-0.46 360.15 C105.98 237.73, 213.56 113.5, 311.59 1.73 M0.77 359.14 C100.23 243.77, 201.77 126.47, 312.41 0.42 M0.35 366.55 C102.58 241.45, 209.06 119.49, 318.03 -0.03 M-0.48 365.85 C93.49 259.82, 188.22 152.42, 317.4 -0.1 M-1.04 373.4 C81.46 276.89, 161.25 183.34, 323.7 -0.87 M0.39 371.85 C93.45 266.2, 184.98 161.46, 322.8 0.23 M0.87 378.51 C122.61 237.08, 245.5 93.97, 330.08 -1.31 M0.99 377.91 C68.95 301.82, 136.49 224.1, 328.39 -0.85 M0.92 385 C115.74 249.28, 230.89 118.7, 332.92 -0.42 M-0.51 384.02 C90.57 275.67, 182.08 170.97, 333.9 0.32 M1.15 390.13 C92.51 287.82, 183.6 181.51, 338.62 0.65 M0.09 389.06 C79.32 298.82, 155.34 210.57, 339.72 0.05 M0.63 397.07 C89.39 297.45, 173.76 195.92, 343.12 -1.07 M0.18 396.01 C76.29 311.09, 149.63 226.49, 344.41 -0.18 M0.15 403.9 C81.66 306.13, 163.95 212.19, 350.91 -0.49 M-0.64 401.92 C68.42 318.71, 142.05 235.29, 349.71 0.16 M-1.29 408.2 C125.6 264.21, 249.51 118.09, 353.94 -0.64 M-0.58 408.98 C110.35 284.64, 220.65 157.69, 354.91 -0.2 M1.16 413.34 C138.44 257.82, 274.65 102.91, 360.09 1.55 M0.33 414.02 C123.77 270.97, 246.49 130.38, 360.06 0.32 M-1.77 419.82 C95.55 315.9, 189.68 208.61, 365.78 1.09 M-0.22 420.8 C134.33 268.07, 268.31 114.82, 365.37 -0.68 M-0.21 425.14 C135.07 269.21, 275.19 109.4, 371.63 -0.23 M0.37 426.32 C98.53 313.72, 196.74 200.06, 371.11 0.45 M-0.66 431.58 C112.38 308.67, 220.95 185.66, 374.93 0.82 M0.02 433.46 C107.64 309.54, 212.45 188.39, 376.04 -0.59 M1.06 438.49 C145.18 269.87, 292.03 99.74, 382.03 1.31 M0.96 439.39 C144.79 273, 285.97 109.92, 382.12 0.43 M0.17 444.27 C85.46 349.43, 165.82 255.9, 388.04 -0.3 M0.01 445.56 C139.72 290.03, 276.04 132.63, 386.57 0.63 M0.44 451.42 C136.46 294.84, 275.11 136.3, 392.46 0.98 M-0.83 450.91 C114.71 326.06, 225.38 197.59, 391.37 0.12 M1.02 458.39 C131.37 310, 263.26 158.05, 398.06 -1.4 M0.86 456.51 C152.25 286.29, 299.81 115.51, 396.88 -0.86 M0.92 462.56 C118.28 328.12, 237.68 191.67, 404.07 -1.13 M-0.94 463.06 C156.34 284.99, 309.39 107.11, 403.39 0.15 M-1.11 470.14 C143.02 300.07, 284.87 135.76, 408.28 -0.36 M0.35 469.68 C131.52 317.08, 263.65 165.05, 407.9 0.23 M1 474.1 C88.35 377.11, 176.95 273.63, 413.09 -1.28 M0.58 475.07 C113.27 343.89, 229.79 210.35, 413.72 -0.49 M-1.91 483.32 C139.61 315.22, 279.96 151.48, 417.91 -1.8 M-0.56 482.76 C119.04 342.2, 240.88 202.89, 419.22 -0.02 M-0.98 487.12 C161.87 295.66, 328.29 104.37, 425.29 -0.01 M-0.27 487.34 C150.42 312.95, 299.81 140.44, 424.18 -0.45 M-1.6 495.16 C157.64 313.64, 315.8 130.57, 430.09 0.57 M-0.71 493.55 C145.65 326.98, 293.87 156.41, 429.85 0.42 M0.39 500.81 C120.04 362.07, 241.33 224.46, 435.17 -0.63 M0.01 499.85 C89.95 393.75, 179.57 290.52, 434 -0.03 M2.43 501.84 C112.68 370.02, 222.21 242.43, 440.67 -0.12 M3.01 503.08 C116.68 368.54, 230.29 236.88, 440.64 -0.87 M7.96 501.74 C106.35 392.22, 203.65 278.07, 443.56 -1.16 M8.17 502.28 C95.13 401.78, 184.27 300, 445.45 -0.36 M14.06 503.34 C115.4 381.47, 218.58 262.91, 449.43 0.16 M13.25 502.05 C104.4 401.71, 194.12 298.48, 450.29 -0.33 M18.56 502.48 C169.8 330.77, 315.83 162.62, 456.01 0.88 M18.93 502.2 C165.05 334.95, 311.02 165.09, 455.05 0.62 M24.31 503.3 C146.81 360, 270.72 217.32, 461.69 -1.29 M23.77 501.95 C130.36 379.07, 234.87 258.28, 460.92 -0.44 M30.77 502.64 C126.19 389.08, 221.34 278.31, 465.17 0.41 M29.82 502.86 C187.54 324.24, 345.11 142.32, 467.13 -0.72 M34.54 502.36 C123.33 398.24, 211.49 297.99, 470.03 1.25 M35.36 501.93 C135.98 389.63, 235.07 276.82, 471.86 -0.17 M40.13 503.3 C149.27 375.26, 257.53 247.82, 478.06 -0.76 M40.47 502.52 C157.89 372.68, 275.14 238.78, 477.09 0 M43.82 502.38 C187.52 345.66, 324.62 188.05, 480.92 1.32 M45.59 503.46 C181.84 346.22, 316.84 190.61, 481.41 -0.37 M50.91 502 C177.57 359.3, 304.81 211.6, 488.8 1.25 M50.73 502.95 C225.37 307.96, 396.58 112.25, 488.15 -0.1 M56.25 501.85 C223.25 309.77, 393.97 113.85, 493.19 -0.81 M55.46 503.29 C163.89 379.5, 271.56 254.78, 493.36 -0.11 M61.67 503.97 C225.76 314.29, 387.82 126.95, 499.42 1.21 M61.5 502.33 C199.68 339.63, 340.77 178.12, 497.77 -0.73 M65.95 501.96 C201.43 350.49, 334.06 195.56, 502.24 0.47 M66.22 503.61 C189.75 364.33, 310.06 226.64, 502.79 -0.4 M73.35 501.29 C168.75 391.26, 260.29 284.45, 508.71 -0.85 M72.3 502.35 C241.78 308.44, 408.34 117.55, 509.65 -0.85 M77.18 502.06 C248.02 304.3, 420.43 105.25, 513.82 -0.78 M76.42 503.44 C176.1 385.49, 278.9 266.99, 513.81 0.49 M81.15 503.34 C213.33 343.97, 350.89 189.55, 520.16 -1.23 M82.1 502.7 C233.11 324.08, 386.47 149.44, 520.13 0.55 M86.14 501.96 C215.09 354.14, 345.11 205.62, 523.17 -1.21 M86.84 503.32 C205.51 368.69, 321.53 236.73, 524.39 -0.16 M92.26 503.18 C201.28 380.92, 307.6 259.39, 530.79 -0.53 M93.31 501.83 C241.21 331.7, 390.12 158.99, 530.17 0.45 M98.54 503.53 C225.53 355.76, 354.8 206.84, 535.89 0.6 M98.1 502.99 C221.08 358.79, 344.91 215.19, 535.11 0.91 M104.96 501.51 C264.53 324.12, 421.18 143.15, 542.36 1.09 M104.56 502.54 C244.99 337.92, 386.42 175.02, 541.39 -1.01 M108.85 502.74 C285.45 303.36, 460.61 103.83, 547.09 -0.65 M108.28 502.12 C250.85 336.74, 394.2 171.08, 545.2 -0.68 M113.44 501.93 C250.95 349.19, 382.84 196.88, 550.12 -0.82 M114.74 501.6 C200.93 400.88, 291.75 296.96, 552.03 0.25 M121.02 504.03 C221.98 384.36, 325.56 265.22, 555.8 0.61 M120.06 502.77 C215.57 394.03, 308.61 287.74, 556.54 -0.15 M125.45 502.93 C251.33 356.01, 375.96 210.28, 560.49 -0.65 M125.37 501.73 C274.37 328.43, 424.78 154.52, 562.59 0.31 M130.96 502.69 C301.96 303.67, 473.88 107.48, 566.58 0.02 M130.38 502.15 C239.4 375.99, 350.8 248.18, 566.42 -0.36 M135.05 502.64 C229.51 398.2, 319.43 295.01, 573.38 -0.33 M134.99 502.83 C239.4 384.21, 344.64 262.39, 573.39 -0.81 M140.89 502.52 C250.79 375.51, 356.97 248.61, 578.31 0.91 M140.81 503.02 C301.68 321.8, 458.96 140.29, 577.98 0.19 M146.63 503.68 C296.6 336, 441.1 166.78, 583.18 -0.54 M146.4 502.76 C253.61 385.51, 355.57 267.01, 583.12 0.83 M151.36 501.38 C298.51 334.88, 446.07 163.58, 589.01 -0.12 M151.97 503.34 C297.29 329.87, 446.3 158.59, 588.21 0.18 M156.63 502.71 C257.41 388.02, 357.45 274.29, 592.58 1.04 M157.18 503.68 C251.63 393.62, 349.2 279.85, 593.91 -0.33 M162.84 502.39 C256.47 393.8, 352.98 283.26, 597.41 1.19 M162.71 501.79 C332.24 303.78, 507.1 103.66, 598.32 -0.57 M167.4 501.78 C263.73 391.44, 360.9 282.41, 603.82 -0.11 M166.3 503.47 C314.74 331.27, 465.66 157.58, 603.33 0.37 M174.12 502.77 C340.38 313.54, 505.67 124.53, 610.97 -0.81 M172.5 501.84 C267.78 390.15, 365.91 275.63, 609.77 -0.27 M178.45 501.71 C315.25 341.63, 458.29 178.24, 613.32 -0.82 M177.41 502.62 C299.93 366.67, 419.94 228.2, 614.25 -0.4 M183.93 501.8 C324.79 339.41, 469.37 173.57, 618.68 -0.9 M183.88 502.91 C318.94 343.53, 455.43 185.58, 620.25 -0.75 M187.46 503.81 C332.74 335.64, 477.09 168.71, 625.43 -0.63 M187.85 503.64 C336.84 328.49, 486.7 155.55, 625.38 0.41 M192.52 502.44 C331.75 342.31, 468.46 182.62, 631.03 -0.57 M193.6 502.78 C306.91 374.36, 417.97 246.84, 630.89 -0.31 M197.64 502.67 C344.92 339.26, 486.88 176.92, 634.82 -0.21 M198.41 502.99 C297.9 392.02, 397.72 278.8, 635.28 0.19 M203.26 503.32 C297.88 389.56, 395.26 277.66, 640.08 -0.07 M204.66 503.21 C301.58 389.18, 401.9 273.94, 642.26 -0.86 M209.73 503.78 C361.23 326.34, 512.29 154.64, 647.29 0.27 M209.3 503.12 C308.33 384.98, 411.94 267.98, 646.32 -0.49 M214.64 503.56 C322.88 374.57, 429.25 252.24, 652.98 0.07 M215.9 502.71 C354.3 341.87, 491.68 184.28, 651.95 -0.77 M220.38 502.67 C364.36 334.13, 507.48 165.51, 655.75 -0.53 M219.37 502 C323.54 380.65, 428.19 260.41, 657.54 -0.32 M225.09 501.13 C322.64 390.95, 419.49 280.66, 661.6 0.55 M225.99 502.15 C393.05 310.29, 560.96 116.82, 663.42 -0.41 M230.19 502.56 C405.25 304.19, 575.7 103.99, 667.47 -0.25 M230.12 501.99 C378.6 334.28, 527.8 162.89, 666.99 0.39 M237.75 500.9 C374.5 344.41, 516.52 184.39, 672.98 -1.42 M235.84 502.36 C330.47 395.51, 419.54 292.42, 673.94 0.16 M242.05 503.16 C383.66 338.25, 525.13 173.65, 676.81 -0.84 M241.67 502.61 C416.47 304.24, 589.06 104.95, 678.97 0.49 M246.1 503.4 C388.06 338.25, 530.98 172.62, 685.23 -0.98 M247.8 501.75 C400.85 330.1, 551.54 155.25, 683.42 -1.11 M253.21 502.24 C379.11 352, 508.76 205.24, 689.26 -0.59 M251.99 502.95 C386.86 346.4, 520.43 192.05, 688.81 0.4 M257.94 503.23 C424.78 314.66, 587.78 125.34, 695.61 0.03 M258.45 501.88 C368.49 370.89, 482.41 239.82, 695.24 -1.14 M263.23 503.63 C421.81 320.75, 580.13 140.77, 700.65 1.06 M262.5 502.43 C398.28 345.09, 535.65 187.34, 699.7 -0.31 M268.18 503.49 C360.53 395.8, 453.92 286.38, 704.67 1.78 M269.02 501.86 C362.57 396.17, 451.88 292.47, 705.11 0.28 M272.38 502.87 C424.15 332.18, 574.69 155.75, 711.53 -1.21 M274.02 503.28 C405.7 349.87, 540.34 193.88, 710.64 -0.52 M279.02 502.09 C416.97 339.75, 563.96 175.3, 714.01 1.85 M277.52 503.15 C422.91 336.55, 568.69 168.28, 715.78 -0.13 M283.29 501.55 C446.56 319.13, 606.93 134.3, 722.37 -1.07 M284.44 503.24 C422.63 340.88, 565.76 176.66, 720.47 0.09 M288.14 503.15 C385.37 387.33, 486.89 274.26, 727.22 1.38 M288.55 502.48 C456.87 306.63, 625.5 113.48, 725.86 0.95 M296.08 502.54 C431.6 346.61, 566.82 191.41, 731.97 -1.32 M294.28 502.87 C404.47 375.33, 513.04 251.9, 731.89 0.17 M299.18 503.93 C458.34 319.43, 615 138.36, 738.05 0.41 M298.99 503.61 C389.41 401.68, 478.33 299.61, 736.46 0.07 M303.61 501.98 C460.25 331.78, 610.53 154.48, 742.24 0.54 M305.88 503.04 C431.61 350.69, 561.23 200.52, 742.62 -0.86 M309.98 503.02 C484.9 300.44, 659.46 100.74, 747.4 0.26 M309.42 502.32 C407.53 390.45, 505.66 278.64, 746.52 -0.27 M315.47 503.71 C421.11 384.31, 520.63 268.25, 753.44 1.05 M316.25 502.61 C466.35 330.23, 616.66 156.71, 752.61 -0.4 M319.86 502.68 C464.24 338, 608.89 169.71, 758.47 -1.28 M321.05 502.34 C484.04 315.34, 648.44 124.64, 758.41 -0.4 M327.57 501.61 C493.4 308.37, 663.28 111.93, 762.54 -1.14 M325.81 502.4 C416.33 400.75, 507.56 295.7, 763.27 0.09 M331.31 504.04 C423.53 394.37, 514.44 290.83, 768.8 1.28 M331.72 503.39 C505.36 308.9, 675.39 113.93, 769.16 0.52 M336.54 503.66 C438.84 392.59, 537.31 278.85, 774.43 -0.52 M337.63 502.79 C485.49 326.23, 637.59 151.48, 773.44 -0.89 M341.92 502.31 C507.98 308.81, 675.76 115.38, 778.24 0.27 M341.53 503.5 C469.12 359.62, 592.68 218.76, 779.22 0.47 M347.75 501.5 C445.95 387.89, 548.95 269.93, 784.34 0.87 M347.01 502.93 C510.64 315.64, 673.42 129.1, 784.98 -0.84 M352.42 501.17 C463.44 375.24, 571.58 250.59, 790.58 -1.09 M351.99 503.11 C469.38 365.5, 590.24 227.06, 790.08 0.2 M357.67 500.85 C486.21 359.17, 609.08 215.87, 795.41 -1.68 M358.3 503.11 C505.29 336.26, 651.82 169.26, 795.6 -0.55 M361.85 501.59 C504.98 338.3, 642.63 177.83, 799.13 0.11 M363.66 502.61 C484.61 367.06, 604.9 228.49, 800.27 -0.75 M368.33 500.72 C506.54 344.43, 647.72 184.4, 804.33 -1.26 M369.67 502.4 C468.56 391.29, 568.48 277.26, 806.06 0 M372.38 503.4 C529.29 326.73, 686.73 147.3, 810.73 -1.56 M373.75 503.15 C544.69 301.94, 718.64 103.21, 810.96 -0.13 M379.24 501.37 C498.77 365.15, 617.1 228.36, 815.02 0.71 M380.34 502.64 C511.22 353.77, 639.71 204.78, 815.49 -0.09 M384.51 503.7 C486.21 382.48, 588.25 267.67, 821.73 0.94 M384.88 502.63 C486.2 383.61, 590.39 263.71, 821.95 -0.07 M388.42 503.5 C544.98 329.84, 697.82 153.41, 826.92 -0.6 M389.12 503.57 C534.14 336.78, 679.24 170.76, 826.41 0 M395.47 501.69 C509.04 376.16, 621.22 245.07, 832.42 -0.07 M394.74 502.92 C564.34 301.76, 737.82 102.8, 832.48 0.01 M399.76 503.63 C550.18 337.33, 695.11 165.64, 835.83 -0.89 M400.99 502.23 C558.82 323.69, 716.63 142.09, 836.84 0.11 M407.2 503.41 C526.86 369.02, 645.93 229.48, 842.21 0.2 M406.43 502.67 C567.6 319.67, 729.6 133.78, 842.04 -0.5 M411.12 503.4 C545.35 350.83, 678.26 201.29, 847.71 -0.9 M411.25 503.11 C575.14 319.57, 736.75 131.94, 848.47 0.09 M415.17 501 C568.07 327.92, 721.55 152.22, 854.44 1.44 M416.5 502.88 C525.09 381.73, 630.75 259.37, 852.74 0.52 M421.73 501.8 C550.7 353.83, 676.75 205.74, 857.27 -0.95 M421.65 503.07 C585.03 310.88, 751.67 119.95, 858.84 -0.24 M425.99 503.08 C554.92 354.43, 678.43 213.48, 863.19 2.06 M426.94 502.89 C516.7 397.84, 605.09 295.21, 861.77 1.42 M433.15 503.86 C535.67 386.01, 633.62 272.33, 862.16 8.32 M432.6 502.56 C583.36 328.09, 738.98 149.94, 861.96 7.22 M436.56 501.13 C567.51 353.74, 699.7 200.5, 861.89 13.41 M437.97 502.85 C533.14 391.96, 630.58 281.3, 862.75 13.41 M441.27 503.1 C538.48 387.34, 633.99 277.29, 860.5 20.48 M442.34 503.19 C581.62 343.09, 716.76 186.11, 862.61 20.76 M448.55 503.1 C601.24 324.01, 758.65 142.3, 861.38 25.98 M448.85 502.83 C609.7 316.85, 773.36 128.58, 863.05 25.9 M453.89 502.33 C564.94 375.88, 673.55 249.52, 863.22 33.84 M454.15 502.12 C547.8 393.57, 641.58 284.63, 862.28 32.43 M460.32 503.03 C569.27 368.57, 685.17 238.38, 861.49 38.16 M458.69 502.08 C606.47 327.53, 757.86 156.5, 862.54 37.66 M463.56 502.42 C593.68 354.74, 720.55 207.83, 860.84 44.36 M464.34 502.48 C582.45 372.45, 698.47 238.25, 862.01 44.25 M468.57 501.83 C605.62 349.04, 736.44 197.84, 860.53 51.93 M470.4 503.02 C596.61 359.65, 723.9 212.34, 862.25 51.79 M474.72 503.9 C560.24 404.37, 644.7 307.35, 863.7 55.73 M474.28 502.97 C574.01 390.99, 671.33 278.14, 861.73 56.65 M479.52 502.48 C593.22 373.64, 706.17 242.72, 862.69 61.91 M480.38 502.41 C563.61 406.69, 645.46 314.03, 861.46 62.29 M486.17 502.21 C635.62 328.11, 785.15 155.09, 861.25 68.9 M484.76 503.44 C598.38 371.6, 713.55 239.36, 861.98 68.4 M491.32 502.04 C574.63 406.43, 657.03 308.82, 862.94 74.25 M490.42 501.8 C600.99 377.08, 709.56 252.44, 862.47 75.38 M495.82 502.03 C627.17 350.36, 757.85 198.53, 861.39 81.26 M495.19 502.51 C640.78 332.4, 786.36 164.64, 862.51 81.42 M501.38 503.6 C587.02 406.57, 672.52 306.01, 860.79 86.02 M501.52 502.63 C583.28 414.03, 662.48 322.15, 862.91 86.48 M505.49 502.95 C641.38 340.47, 779.48 183.5, 862.74 94.82 M506.06 503.16 C621.23 374.41, 732.78 245.23, 862.48 93.71 M510.62 502.07 C645.28 354.49, 773.95 203.41, 861.31 100.38 M510.89 502.47 C627.7 367.73, 745.05 232.46, 862.23 99.4 M516.15 501 C600.6 408.91, 686.25 309.42, 861.86 106.3 M516.46 502.32 C651.37 346.39, 785.97 190.44, 862.09 106.28 M521.11 503.07 C623.17 392.41, 722.91 276.09, 863.24 112.89 M521.58 503.48 C655.08 350.47, 786.86 201.12, 861.87 111.84 M526.29 503.12 C618.37 394.78, 712.06 286.34, 863.91 118.58 M528.14 502.91 C661.9 348.65, 796.01 194.86, 862.86 117.79 M533.88 502.37 C662.63 357.27, 790.72 207.51, 863.19 122.94 M533.15 502.25 C600.88 427.81, 667.47 350.94, 862.26 124.4 M539.95 503.1 C636.58 384.31, 735.31 270.02, 861.11 130.19 M538.28 501.77 C622.15 402.47, 706.86 305.5, 862.94 129.21 M543.51 504.27 C642.77 392.62, 737.95 281.52, 862.98 136.7 M543.42 502.52 C617.99 420.93, 689.79 337.77, 862.97 136.35 M548.94 502.37 C657.39 384.15, 760.51 260.88, 862.79 140.7 M548.22 501.73 C656.92 380.11, 765.84 254.12, 862.05 142.29 M552.3 503.77 C671.18 371.72, 784.24 238.45, 860.66 149.67 M553.99 503.3 C671.86 369.82, 788.12 235.6, 862.7 148.07 M560.6 502.1 C633.11 415.29, 705.95 329.49, 863.91 153.23 M559.85 502.99 C674.73 373.67, 786.26 245.67, 861.67 153.97 M563 504.66 C680.1 369.43, 794.95 233.65, 862.39 161.6 M564.8 502.38 C679.82 370.65, 794.37 237.31, 863 159.52 M569.25 501.43 C659.89 397.71, 748.21 296.39, 861.65 167.02 M570.9 503.26 C658.06 403.52, 742.67 306.61, 862.18 166.96 M576.89 504.25 C657.17 414.84, 736.46 324.89, 861.96 172.55 M574.49 503.05 C653.23 418.24, 727.57 330.51, 861.39 173.9 M579.21 503.01 C649.29 422.5, 721 345.9, 861.62 178.68 M580.88 502.25 C637.83 434.89, 695.73 369.56, 862.57 178.43 M586.9 501.94 C685.43 391.26, 784.38 275.67, 863.25 186.12 M585.49 501.84 C647.32 430.27, 710.9 357.79, 862.6 185.72 M592.38 503.07 C701.31 379.94, 808.73 257.31, 864.07 189.11 M590.68 501.22 C667.74 415.38, 741.06 332.2, 862.45 191.42 M595.43 502.22 C684.92 404.24, 773.14 303.14, 863.05 195.46 M597.14 503.43 C697.43 383.02, 800.38 264.72, 861.5 198.06 M600.62 501.16 C697.36 397.58, 791.76 287.8, 863.89 203.13 M601.72 502.26 C697.02 393.07, 795.62 279.75, 862.78 202.3 M605.39 504.16 C675.6 419.68, 747.1 340, 864.04 207.27 M606.05 502.86 C672.22 428.02, 737.89 353.89, 861.24 208.47 M614.4 503.45 C690.63 416.37, 766.23 327.67, 864.09 215.27 M612.44 502.37 C676.76 429.62, 743 351.26, 862.93 216.24 M617.7 502.42 C677.3 432.9, 741.24 359.93, 863.18 219.32 M618.97 501.48 C669.16 440.2, 721.1 381.84, 863.53 221.89 M624.15 502.53 C697.15 412.71, 771.14 328.15, 860.95 229.75 M623.21 501.81 C674.66 442.62, 729.49 379.54, 862.21 228.11 M628.14 504.19 C701.42 418.68, 772.07 339.77, 862.49 231.72 M628.29 502.14 C692.64 432.43, 757.46 359.05, 861.13 234.04 M632.24 504.94 C677.98 447.35, 727.07 391.01, 863.83 241.03 M633.01 503.01 C721.6 400.95, 807.95 302.81, 861.62 238.71 M639.63 502.81 C691.83 445.5, 739.11 389.2, 859.68 246.98 M639.43 502.79 C706.71 425.76, 777.44 344.34, 861.33 246.03 M643.27 504.07 C712.22 423.46, 782.93 343.25, 861.84 251.54 M644.29 503.82 C691.02 451.69, 733.67 401.82, 862.08 250.29 M649.9 505.12 C698.59 443.29, 752.64 385.83, 862.22 256.12 M650.14 502.36 C699.62 447.2, 746.79 390.91, 861.19 258.19 M653.35 504.83 C724.21 422.03, 799.27 339.95, 861.2 265.76 M654.04 502.85 C701.43 453.09, 747.21 400.41, 862.28 263.37 M659.07 502.67 C723.75 428.82, 788.01 358.55, 860.69 270.25 M658.95 502.37 C739.11 413.02, 819.69 322.3, 861.37 270.66 M668.07 500.63 C712.29 447.95, 761.02 393.46, 859.4 278.57 M665.08 502.13 C727.35 437.21, 786.89 366.26, 862.49 277.53 M673.14 501.5 C711.18 457.64, 751.98 411.34, 863.46 280.77 M669.85 503.09 C747.51 414.16, 821.35 331.81, 861.54 282.79 M676.99 504.54 C714.61 458.61, 753.52 414.23, 860.33 287.42 M676.53 503.18 C741.05 427.33, 808.76 350.65, 862.02 288.61 M683.34 503.35 C725.13 449.8, 769.87 399.48, 859.24 296.42 M682.45 501.6 C733.55 442.22, 785.73 382.93, 861.16 295.26 M685.27 505.75 C731.31 452.03, 778.22 397.88, 862.75 298.94 M687.86 502.14 C728.01 456.62, 771.14 408.94, 863.71 301.92 M692.3 501.48 C751.09 432.88, 817.07 362.8, 864.26 308.21 M692.8 502.52 C749.35 435, 806.78 367.34, 860.55 305.64 M700.37 500.95 C733.51 455.45, 773.73 415.25, 861.84 315.17 M697.29 503.47 C737.27 455.93, 775.92 410.7, 862.32 313.71 M699.58 502.48 C736.76 461.62, 775.91 416.38, 859.93 320.89 M704.28 501.1 C755.42 440.81, 810.83 380.95, 861.69 317.7 M708.72 505.91 C771.74 434.61, 831.34 364.04, 864.71 323.33 M706.71 502.95 C739.8 461.87, 777.71 419.79, 860.96 325.4 M711.39 504.56 C770.12 440.58, 823.95 381.98, 861.63 328.07 M713.58 503.85 C744.63 462.12, 777.45 423.91, 863 330.49 M717.28 499.62 C749.27 465.89, 783.03 423.2, 864.01 335.38 M717.01 501.73 C758.43 456.57, 799.78 405.86, 863.17 336.2 M723.96 499.68 C775.9 446.93, 826.18 384.71, 863.69 343.02 M725.43 503.92 C754.55 463.73, 787.37 425.53, 863.15 343.73 M732.05 500.59 C777.26 456.83, 819.21 408.52, 863.4 350.47 M729.76 502 C766.77 461.47, 798.47 421.67, 863.24 349.36 M732.03 506.4 C777.21 456.35, 814.04 402.21, 860.54 355.16 M733.12 503.35 C766.81 462.41, 797.05 428.42, 862.44 356.97 M739.25 503.14 C789.13 450.26, 833.22 393.82, 864.06 360.41 M737.86 501.38 C763.79 474.5, 790.62 442.13, 860.5 360.13 M743.49 505.78 C770.76 473.68, 796.61 444.65, 861.42 364.49 M744.23 501.84 C790.01 449.92, 836.13 397.05, 863.72 367.76 M751.93 499.76 C782.39 469.78, 809.37 433.76, 858.81 376.61 M749.69 502.24 C772.7 477.66, 793.94 451.05, 862.01 372.97 M756.34 500.57 C783.07 470.78, 810.95 436.43, 860.17 376.94 M756.66 503.84 C778.03 476.25, 801.6 450.51, 862.7 379.25 M762.51 501.65 C792.62 466.26, 825.87 429.06, 859.88 389.22 M760.74 501.71 C787.06 472.58, 815.52 439.42, 860.07 385.16 M765.07 502.27 C784.45 481.09, 805.58 452.66, 864.93 388.88 M766.36 504.78 C798.66 468.1, 830.42 431.87, 864.29 390.7 M768.91 503.41 C795.28 475.42, 817.31 453.15, 865.11 399.19 M771.02 501.9 C798.21 472.03, 819.71 446.11, 860.43 397.62 M779.99 503.62 C799.14 480.96, 812.4 458.75, 861.68 407.86 M776.9 501.95 C809.35 466.52, 841.22 427.44, 863.95 404.23 M778.82 502.87 C807.95 476.21, 833.92 448.13, 866.24 410.92 M783.13 503.82 C800.93 479.55, 818.19 456.87, 860.45 409.45 M791.22 506.49 C808.15 479.31, 822.02 462.95, 865.52 417.37 M785.43 504.57 C811.22 479.76, 830.94 454.49, 861.11 415.63 M789.78 505 C810.82 486.48, 823.81 466.76, 863.44 425.25 M792.29 501.39 C820.32 468.91, 849.45 438.03, 861.75 420.89 M796.69 501.98 C824.14 475.69, 849.86 444.14, 863.35 425.84 M796.69 503.76 C824.65 472.59, 846.15 444.04, 863.74 429.37 M801.12 501.98 C822.95 484.28, 841.27 463.92, 860.7 436.21 M804.27 503.43 C814.63 490.35, 828.77 476.78, 863.56 436.09 M806.13 506.37 C829.26 487.11, 847.27 460.92, 861.92 443.14 M809.02 502.55 C823.66 486.58, 835.88 466.84, 862.45 441.03 M818 501.19 C827.84 479.96, 848.3 465.31, 861.17 443.74 M813.46 503.68 C825.45 488.17, 838.05 475.31, 864.01 445.88 M821.11 501.1 C835.63 486.2, 850.95 465.97, 862.45 449.57 M820.36 501.88 C832.25 483.34, 851.01 466.27, 863.1 452.39 M823.36 505.17 C837.64 486.21, 849.67 474.46, 865.79 462.75 M824.85 502.76 C836.66 484.77, 852.98 466.47, 860.84 458.7 M831 500.83 C836.03 494.51, 848.09 479.19, 863.29 465.37 M830.22 502.58 C840.32 489.96, 852.72 476.84, 863.47 466.86 M838 499.67 C843.49 488.92, 853.74 483.07, 865.32 467.57 M836.01 502.24 C841.05 496.32, 846.5 488.65, 861.36 471.18 M840.97 501.39 C841.81 493.54, 847.53 491.49, 858.6 479.72 M841.75 503.4 C847.06 494.04, 858.32 483.45, 861.93 476.52 M844.49 505.61 C855.77 493.2, 859.65 490.94, 863.01 480.98 M847.11 502.54 C852.95 493.87, 856.53 490.46, 863.19 483.1 M851.87 500.22 C852.93 495.25, 858.62 495.42, 862.35 491.02 M851.54 502.94 C853.92 499.7, 856.05 496.3, 863.25 488.77 M855.36 503.37 C859.21 499.8, 861.14 497.52, 861.61 497.75 M855.21 502.43 C857.64 499.97, 859.97 497.13, 862.32 496.5" stroke="#ced4da" stroke-width="0.5" fill="none"></path><path d="M0.96 -0.94 C214.6 -4.31, 427.38 -2.4, 858.57 -1.6 M-0.59 -0.15 C292.32 3.36, 582.94 2.3, 860.69 -0.2 M861.53 -0.68 C859.32 147.83, 859.11 294.6, 861.48 499.2 M859.71 -0.55 C857.18 143.1, 856.5 287.3, 860.31 500.35 M859.79 498.66 C646.97 493.11, 433.62 493.77, 0.7 498.41 M860.1 500.09 C614.22 506.59, 368.61 506.54, 0.7 499.45 M0.29 501.51 C4.72 324.98, 1.83 151.5, 1.54 -1.55 M-0.14 499.65 C-2.91 364.68, -3.79 228.49, -0.46 0.21" stroke="#000000" stroke-width="1" fill="none"></path></g><g transform="translate(910.0000000000018 1529.9999999999998) rotate(0 230 32)"><text x="0" y="45" font-family="Virgil, Segoe UI Emoji" font-size="50.76923076923086px" fill="#000000" text-anchor="start" style="white-space: pre;" direction="ltr">Domain Unit tests</text></g><g stroke-linecap="round" transform="translate(990.0000000000018 1289.9999999999998) rotate(0 160 90)"><path d="M3.21 2.22 L316.46 -1.41 L323.76 182.79 L-1.14 177.73" stroke="none" stroke-width="0" fill="#82c91e"></path><path d="M0.77 0.57 C76.23 2.79, 149.63 -0.39, 320.89 -2.41 M-0.71 1.38 C123.52 1.02, 248.11 0.79, 320.24 -0.31 M323.47 3.26 C319.09 47.74, 319.35 98.21, 319.52 176.55 M318.82 -0.25 C319.92 59.29, 318.25 118, 319.09 179.94 M317.83 182.14 C197.76 178.88, 75.67 175.69, -2 181.14 M318.65 181.37 C206.31 179.93, 90.96 178.15, -1.22 179.75 M0.21 183.98 C1.62 131.12, -0.42 84.71, -3.9 1.26 M0.89 180.22 C0.37 112.78, 1.63 43.47, 1.39 1.98" stroke="#000000" stroke-width="1" fill="none"></path></g><g transform="translate(1050.0000000000018 1349.9999999999998) rotate(0 109.5 28)"><text x="0" y="39" font-family="Virgil, Segoe UI Emoji" font-size="44.3469087040309px" fill="#000000" text-anchor="start" style="white-space: pre;" direction="ltr">Unit Test</text></g><g stroke-linecap="round" transform="translate(770.0000000000018 1149.9999999999998) rotate(0 90 32.14285714285711)"><path d="M1.97 2.15 L176.74 1.22 L181.82 62.44 L1.22 60.61" stroke="none" stroke-width="0" fill="#fa5252"></path><path d="M0.75 0.47 C58.93 -6.16, 111.19 0.96, 179.77 -2.18 M1.27 1.43 C62.46 1.09, 126.01 1.31, 181.11 -1.77 M178.86 -2.27 C184.84 14.86, 184.91 33.54, 176.1 63.69 M180.16 -1.79 C181.07 20.15, 181.41 41.66, 180.09 65.73 M182.46 68.18 C110.4 65.98, 36.67 61.52, 2.67 67.55 M179.69 64.47 C126.5 66.15, 73.03 65.57, -0.71 63.33 M-1.98 66.11 C2.8 50.18, -0.47 30.24, -3.13 1.5 M-0.19 65.72 C0.87 49.19, -0.92 29.6, 1.72 -1.54" stroke="#000000" stroke-width="1" fill="none"></path></g><g transform="translate(818.2142857142876 1166.0714285714282) rotate(0 33.5 18)"><text x="0" y="25" font-family="Virgil, Segoe UI Emoji" font-size="28.4248744419644px" fill="#000000" text-anchor="start" style="white-space: pre;" direction="ltr">Mock</text></g><g stroke-linecap="round" transform="translate(910.0000000000018 909.9999999999998) rotate(0 230 100)"><path d="M229.83 -0.99 L461.08 104.09 L228.82 199.16 L-2.01 97.17" stroke="none" stroke-width="0" fill="#fcddb3" fill-rule="evenodd"></path><path d="M229.3 1.66 C320.38 39.04, 412.8 76.31, 462.66 100.28 M232.34 0.28 C308.88 30.64, 383.85 65.53, 458.37 100.8 M458.86 98.91 C388.14 128.34, 318.02 164.51, 233.62 196.73 M459.85 100.17 C387.02 137.68, 312.05 166.44, 232.47 200.46 M230.52 202.35 C174.14 178.09, 117.33 152.38, 2.11 99.27 M231.15 200.69 C157.07 169.55, 84.1 137.82, -0.27 102.23 M-1.99 104.24 C56.93 79.95, 111.73 56.02, 231.23 -1.98 M0.87 102.01 C54.04 78.81, 105.73 55.58, 231.06 -0.96" stroke="#000000" stroke-width="1" fill="none"></path></g><g transform="translate(990.0000000000018 989.9999999999998) rotate(0 149.5 16)"><text x="0" y="22" font-family="Virgil, Segoe UI Emoji" font-size="24.89626556016597px" fill="#000000" text-anchor="start" style="white-space: pre;" direction="ltr">Can use either of these</text></g><g stroke-linecap="round"><g transform="translate(1130.0000000000018 1289.9999999999998) rotate(0 -0.2855661903156488 -88.7492493067682)"><path d="M0.51 -1.34 C0.73 -31.18, 2.34 -147.91, 2.06 -177.79 M-2.66 4.1 C-2.69 -26.6, 1.09 -151.27, 0.94 -181.6" stroke="#000000" stroke-width="1" fill="none"></path></g><g transform="translate(1130.0000000000018 1289.9999999999998) rotate(0 -0.2855661903156488 -88.7492493067682)"><path d="M8.86 -150.32 C10.49 -164.1, 3.22 -172.35, 1.59 -180.4 M10.51 -153.89 C7.68 -162.93, 3.27 -171.26, 2.25 -183.09" stroke="#000000" stroke-width="1" fill="none"></path></g><g transform="translate(1130.0000000000018 1289.9999999999998) rotate(0 -0.2855661903156488 -88.7492493067682)"><path d="M-11.66 -150.62 C-3.36 -164.38, -3.95 -172.53, 1.59 -180.4 M-10.01 -154.2 C-5.63 -163.5, -2.83 -171.73, 2.25 -183.09" stroke="#000000" stroke-width="1" fill="none"></path></g></g><mask></mask><g stroke-linecap="round"><g transform="translate(1130.0000000000018 909.9999999999998) rotate(0 -20.575689394026995 -69.43173576816912)"><path d="M-1.97 2.48 C-8.66 -21.09, -34.16 -117.52, -40.69 -141.35 M2.15 1.36 C-4.92 -21.86, -35.68 -115.28, -43.3 -138.45" stroke="#000000" stroke-width="1" fill="none"></path></g><g transform="translate(1130.0000000000018 909.9999999999998) rotate(0 -20.575689394026995 -69.43173576816912)"><path d="M-21.2 -115.85 C-31.87 -123.36, -35.82 -132.27, -43.99 -135.63 M-24.42 -114.07 C-30.71 -120.98, -37.66 -130.82, -44.56 -139.69" stroke="#000000" stroke-width="1" fill="none"></path></g><g transform="translate(1130.0000000000018 909.9999999999998) rotate(0 -20.575689394026995 -69.43173576816912)"><path d="M-40.7 -109.45 C-45.92 -118.47, -44.42 -129.17, -43.99 -135.63 M-43.91 -107.66 C-44.5 -116.24, -45.68 -127.98, -44.56 -139.69" stroke="#000000" stroke-width="1" fill="none"></path></g></g><mask></mask><g stroke-linecap="round"><g transform="translate(910.0000000000018 1009.9999999999998) rotate(0 -21.337856695801065 69.83907031968238)"><path d="M-0.32 1.52 C-7.46 24.25, -35.45 114.73, -42.36 137.52 M-3.94 -0.12 C-10.26 22.77, -31.91 116.38, -37.23 139.8" stroke="#000000" stroke-width="1" fill="none"></path></g><g transform="translate(910.0000000000018 1009.9999999999998) rotate(0 -21.337856695801065 69.83907031968238)"><path d="M-38.73 106.66 C-43.05 116.95, -40.84 130.98, -33.61 139.39 M-42.82 109.8 C-39.35 117.01, -40.27 125.36, -37 138.77" stroke="#000000" stroke-width="1" fill="none"></path></g><g transform="translate(910.0000000000018 1009.9999999999998) rotate(0 -21.337856695801065 69.83907031968238)"><path d="M-18.73 111.26 C-29.42 120.05, -33.53 132.62, -33.61 139.39 M-22.83 114.41 C-25.19 120.06, -31.89 127.08, -37 138.77" stroke="#000000" stroke-width="1" fill="none"></path></g></g><mask></mask></svg>